<svg height="1066.6666pt" viewBox="-33 -33 1066.6666 1066.6666" width="1066.6666pt" xmlns="http://www.w3.org/2000/svg"><path d="m452.082031 342.144531c0-29.085937-23.660156-52.734375-52.734375-52.734375-29.078125 0-52.734375 23.648438-52.734375 52.734375 0 29.070313 23.65625 52.734375 52.734375 52.734375 29.074219 0 52.734375-23.664062 52.734375-52.734375zm-76.171875 0c0-12.925781 10.511719-23.4375 23.4375-23.4375 12.929688 0 23.4375 10.511719 23.4375 23.4375 0 12.914063-10.507812 23.4375-23.4375 23.4375-12.925781 0-23.4375-10.523437-23.4375-23.4375zm0 0"/><path d="m593.550781 468.039062c0 29.082032 23.65625 52.734376 52.734375 52.734376 29.066406 0 52.734375-23.652344 52.734375-52.734376 0-29.078124-23.667969-52.734374-52.734375-52.734374-29.078125 0-52.734375 23.65625-52.734375 52.734374zm52.734375-23.4375c12.917969 0 23.4375 10.507813 23.4375 23.4375 0 12.917969-10.519531 23.4375-23.4375 23.4375-12.929687 0-23.4375-10.519531-23.4375-23.4375 0-12.929687 10.507813-23.4375 23.4375-23.4375zm0 0"/><path d="m324.628906 612.792969c0 41.207031 33.519532 74.726562 74.71875 74.726562 41.199219 0 74.71875-33.519531 74.71875-74.726562 0-41.199219-33.519531-74.710938-74.71875-74.710938-41.199218 0-74.71875 33.511719-74.71875 74.710938zm74.71875-45.414063c25.046875 0 45.421875 20.375 45.421875 45.414063 0 25.050781-20.375 45.429687-45.421875 45.429687-25.050781 0-45.421875-20.378906-45.421875-45.429687 0-25.042969 20.371094-45.414063 45.421875-45.414063zm0 0"/><path d="m945.246094 445.246094c-23.886719 0-43.308594 16.261718-49.765625 38.085937h-64.179688c-8.277343-27.351562-24.308593-40.40625-27.652343-55.125-4.398438-19.339843 10.335937-50.714843-2.082032-76.445312-12.480468-25.886719-46.566406-34.277344-58.5-49.222657-3.835937-4.804687-6.53125-12.039062-9.148437-19.78125l112.878906-112.875c9.453125 5.683594 19.765625 9.703126 31.078125 9.703126 16.433594 0 31.871094-6.398438 43.492188-18.019532 23.976562-23.972656 23.976562-62.996094 0-86.976562-24.03125-24.027344-62.9375-24.03125-86.972657 0-20.3125 20.308594-22.351562 50.917968-8.265625 74.527344l-103.890625 103.890624c-9.019531-17.351562-20.4375-26.910156-46.378906-30.660156-8.011719-1.15625-15.433594 4.394532-16.597656 12.398438-1.15625 8.007812 4.394531 15.433594 12.414062 16.597656 20.789063 3.007812 23.886719 8.757812 32.398438 34.832031 10.707031 32.792969 16.796875 40.324219 46.191406 57.886719 28.34375 16.945312 29.589844 20.152344 25.332031 52.125-4.628906 34.75-2.175781 44.117188 16.269532 72.058594 18.261718 27.707031 18.261718 31.773437 0 59.464844-18.507813 28.0625-20.875 37.445312-16.269532 72.070312 4.265625 32.027344 2.953125 35.210938-25.347656 52.125-29.375 17.550781-35.46875 25.082031-46.175781 57.890625-10.175781 31.164063-12.929688 33.226563-45.304688 36.230469-34.457031 3.1875-43.144531 7.492187-66.625 32.042968-22.875 23.914063-26.324219 24.421876-56.332031 13.21875-12.0625-4.496093-24.523438-9.140624-37.828125-9.140624-26.152344 0-52.59375 19.386718-68.472656 15.78125-8.542969-1.9375-16.863281-10.644532-25.679688-19.859376-23.417969-24.484374-32.050781-28.839843-66.628906-32.050781-32.386719-2.996093-35.140625-5.070312-45.308594-36.234375-10.71875-32.800781-16.800781-40.328125-46.1875-57.886718-28.339843-16.941407-29.59375-20.136719-25.339843-52.121094 4.609374-34.585938 2.25-43.996094-16.265626-72.066406-18.261718-27.691407-18.261718-31.769532 0-59.46875 18.511719-28.054688 20.878907-37.449219 16.265626-72.066407-4.253907-31.980469-3-35.183593 25.347656-52.121093 10.832031-6.472657 22.035156-13.164063 30.085937-23.25 8.089844-10.136719 12.160157-22.589844 16.09375-34.640626 3.925781-12.011718 7.628907-23.359374 14.308594-28.691406 6.601563-5.28125 18.449219-6.375 31-7.539062 34.496094-3.199219 43.164063-7.507813 66.628906-32.042969 22.828125-23.871094 26.246094-24.449219 56.328125-13.222656 32.753906 12.222656 42.886719 12.222656 75.652344 0 36.925781-13.777344 34.359375-7.683594 64.890625 21.9375 5.796875 5.625 15.074219 5.496093 20.703125-.316407 5.640625-5.804687 5.503906-15.082031-.3125-20.71875-2.558594-2.472656-5.082031-5.128906-7.78125-7.9375-31.773438-33.203124-47.339844-35.480468-87.746094-20.40625-4.46875 1.660157-8.765625 3.195313-12.933594 4.484376v-81.226563c21.816407-6.464844 38.082032-25.878906 38.082032-49.769531 0-29.078125-23.660156-52.734375-52.734375-52.734375-29.078125 0-52.734375 23.65625-52.734375 52.734375 0 23.890625 16.261718 43.304687 38.085937 49.769531v81.226563c-4.160156-1.289063-8.457031-2.824219-12.9375-4.484376-40.394531-15.074218-55.96875-12.800781-87.742187 20.410157-7.183594 7.511719-13.96875 14.605469-20.707032 17.863281-6.984374 3.367188-16.925781 4.285156-27.453124 5.261719-29.46875 2.734375-47.421876 6.558593-60.765626 32.246093l-81.933593-81.933593c15.359375-25 13.367187-57.710938-8.265625-79.351563-25.304688-25.3125-66.492188-25.3125-91.804688 0-52.414062 52.421875 11.519532 141.734375 79.351563 100.070313l90.96875 90.964843c-6.921875 20.464844-9.53125 23.105469-31.367188 36.148438-38.824219 23.203125-45.15625 37.542969-39.347656 81.144531 1.402344 10.53125 2.726563 20.488281.980469 28.15625-3.34375 14.71875-19.375 27.769531-27.648438 55.125h-64.175781c-6.464844-21.824219-25.878906-38.085937-49.769531-38.085937-29.078125 0-52.734375 23.65625-52.734375 52.734375 0 29.074219 23.65625 52.734375 52.734375 52.734375 23.890625 0 43.304687-16.265625 49.769531-38.085938h64.175781c8.273438 27.355469 24.304688 40.398438 27.65625 55.121094 4.394532 19.335938-10.339844 50.726562 2.074219 76.445312 12.488281 25.894532 46.570313 34.277344 58.511719 49.222657 3.832031 4.808593 6.523437 12.046875 9.140625 19.785156l-55.496094 55.492187c-19.992187-10.859374-45.234375-8.632812-62.117187 8.261719-33.242188 33.25-9.375 89.992188 37.289062 89.992188 39.132812 0 65.285156-41.1875 45.546875-77.535157l46.464844-46.464843c21.738281 41.839843 65.351562 26.484375 88.214843 37.515625 17.285157 8.339844 32.734376 39.597656 61.078126 46.035156 21.121093 4.804688 41.425781-6.386719 60.308593-12.246094v81.226563c-21.824219 6.457031-38.085937 25.878906-38.085937 49.765625 0 29.074218 23.65625 52.734375 52.734375 52.734375 29.074219 0 52.734375-23.660157 52.734375-52.734375 0-23.886719-16.265625-43.308594-38.085938-49.765625v-81.226563c19.160156 5.933594 39.222656 17.046875 60.316406 12.246094 28.269532-6.425781 43.921876-37.757812 61.070313-46.035156 23.144531-11.171875 66.355469 4.554687 88.222656-37.515625l15.378907 15.394531c5.726562 5.714844 15 5.714844 20.726562 0 5.71875-5.726562 5.71875-15.003906 0-20.726562l-24.425781-24.421876c6.925781-20.484374 9.550781-23.105468 31.367187-36.144531 38.816406-23.199219 45.160156-37.542969 39.347656-81.140625-3.644531-27.371094-2.894531-29.96875 11.679688-52.066406 6.121094-9.273438 11.550781-19.863281 14.980469-31.214844h64.175781c6.46875 21.820313 25.890625 38.085938 49.777344 38.085938 29.074218 0 52.734375-23.660156 52.734375-52.734375 0-29.078125-23.660157-52.734375-52.734375-52.734375zm-67.371094-359.371094c28.625 0 42.925781 34.832031 22.78125 54.980469-12.59375 12.582031-32.960938 12.585937-45.554688 0-20.15625-20.15625-5.839843-54.980469 22.773438-54.980469zm-403.332031-35.160156c0-12.925782 10.511719-23.4375 23.4375-23.4375 12.929687 0 23.4375 10.511718 23.4375 23.4375 0 12.929687-10.507813 23.4375-23.4375 23.4375-12.925781 0-23.4375-10.507813-23.4375-23.4375zm-362.097657 112.097656c-13.890624-13.886719-13.890624-36.484375 0-50.378906 13.882813-13.878906 36.480469-13.878906 50.367188 0 13.890625 13.894531 13.890625 36.492187 0 50.378906-13.886719 13.890625-36.484375 13.882812-50.367188 0zm-61.730468 358.605469c-12.925782 0-23.4375-10.507813-23.4375-23.4375 0-12.925781 10.511718-23.4375 23.4375-23.4375 12.929687 0 23.4375 10.511719 23.4375 23.4375 0 12.929687-10.507813 23.4375-23.4375 23.4375zm147.578125 309.398437c-9.148438 9.144532-24.015625 9.144532-33.152344 0-14.777344-14.777344-4.167969-39.996094 16.570313-39.996094 20.730468 0 31.371093 25.207032 16.582031 39.996094zm323.125 114.429688c0 12.929687-10.507813 23.4375-23.4375 23.4375-12.925781 0-23.4375-10.507813-23.4375-23.4375 0-12.925782 10.511719-23.4375 23.4375-23.4375 12.929687 0 23.4375 10.511718 23.4375 23.4375zm423.828125-423.828125c-12.925782 0-23.4375-10.507813-23.4375-23.4375 0-12.925781 10.511718-23.4375 23.4375-23.4375 12.929687 0 23.4375 10.511719 23.4375 23.4375 0 12.929687-10.507813 23.4375-23.4375 23.4375zm0 0"/><path d="m825.585938 804.867188-25.003907-25.011719c-5.734375-5.714844-15.003906-5.714844-20.726562 0-5.722657 5.722656-5.722657 15 0 20.726562l25.011719 25.003907c-14.890626 24.492187-12.890626 56.425781 8.261718 77.574218 24.878906 24.878906 65.152344 24.886719 90.03125 0 24.878906-24.878906 24.878906-65.148437 0-90.03125-21.148437-21.152344-53.078125-23.152344-77.574218-8.261718zm56.859374 77.578124c-13.429687 13.429688-35.160156 13.429688-48.597656 0-13.394531-13.398437-13.394531-35.199218 0-48.597656 13.398438-13.394531 35.195313-13.394531 48.597656 0 13.429688 13.429688 13.433594 35.167969 0 48.597656zm0 0"/></svg>