<svg height="1065pt" viewBox="-33 -142 1065.0027 1065" width="1065pt" xmlns="http://www.w3.org/2000/svg"><path d="m746.761719 209.253906h-101.414063c-8.082031 0-14.625 6.546875-14.625 14.625v166.699219c0 8.078125 6.542969 14.625 14.625 14.625h178.679688c8.082031 0 14.625-6.546875 14.625-14.625v-76.871094c0-9.640625-1.304688-5.0625-80.800782-99.371093-2.78125-3.230469-6.828124-5.082032-11.089843-5.082032zm62.640625 166.6875h-149.429688v-137.441406h80.074219l69.355469 80.628906zm0 0"/><path d="m278.390625 583.589844c-34.238281 0-62.082031 27.851562-62.082031 62.089844 0 34.222656 27.851562 62.070312 62.082031 62.070312s62.078125-27.847656 62.078125-62.070312c0-34.238282-27.847656-62.089844-62.078125-62.089844zm0 94.914062c-18.097656 0-32.832031-14.726562-32.832031-32.824218 0-18.105469 14.734375-32.832032 32.832031-32.832032 18.09375 0 32.828125 14.730469 32.828125 32.832032 0 18.097656-14.722656 32.824218-32.828125 32.824218zm0 0"/><path d="m746.117188 583.589844c-34.230469 0-62.082032 27.851562-62.082032 62.089844 0 34.222656 27.851563 62.070312 62.082032 62.070312 34.222656 0 62.074218-27.847656 62.074218-62.070312 0-34.238282-27.851562-62.089844-62.074218-62.089844zm0 94.914062c-18.101563 0-32.824219-14.726562-32.824219-32.824218 0-18.105469 14.722656-32.832032 32.824219-32.832032 18.101562 0 32.824218 14.730469 32.824218 32.832032 0 18.097656-14.722656 32.824218-32.824218 32.824218zm0 0"/><path d="m178.9375 317.210938h44.523438v44.519531c0 20.613281 16.769531 37.378906 37.378906 37.378906h35.101562c20.605469 0 37.375-16.765625 37.375-37.378906v-44.519531h44.527344c20.609375 0 37.371094-16.769532 37.371094-37.382813v-35.101563c0-20.601562-16.761719-37.371093-37.371094-37.371093h-44.527344v-44.53125c0-20.605469-16.769531-37.367188-37.375-37.367188h-35.101562c-20.609375 0-37.378906 16.761719-37.378906 37.367188v44.53125h-44.523438c-20.613281 0-37.375 16.769531-37.375 37.371093v35.101563c0 20.613281 16.761719 37.382813 37.375 37.382813zm-8.125-72.484376c0-4.476562 3.644531-8.117187 8.128906-8.117187h59.148438c8.074218 0 14.625-6.550781 14.625-14.625v-59.160156c0-4.480469 3.644531-8.117188 8.128906-8.117188h35.101562c4.480469 0 8.121094 3.636719 8.121094 8.117188v59.160156c0 8.074219 6.546875 14.625 14.625 14.625h59.15625c4.480469 0 8.117188 3.640625 8.117188 8.117187v35.101563c0 4.484375-3.636719 8.132813-8.117188 8.132813h-59.15625c-8.078125 0-14.625 6.546874-14.625 14.625v59.144531c0 4.484375-3.640625 8.128906-8.121094 8.128906h-35.101562c-4.484375 0-8.128906-3.644531-8.128906-8.128906v-59.144531c0-8.078126-6.550782-14.625-14.625-14.625h-59.152344c-4.480469 0-8.125-3.648438-8.125-8.132813zm0 0"/><path d="m996.40625 362.84375c0-19.335938-7.097656-37.917969-19.988281-52.335938l-53.796875-60.148437c-5.386719-6.023437-14.636719-6.539063-20.652344-1.152344-6.027344 5.386719-6.539062 14.628907-1.152344 20.652344l53.808594 60.148437c8.074219 9.050782 12.53125 20.699219 12.53125 32.824219v109.984375h-408.359375v-306.15625h227.695313c13.992187 0 27.371093 5.980469 36.710937 16.414063l26.296875 29.410156c5.386719 6.015625 14.636719 6.53125 20.652344 1.152344 6.023437-5.386719 6.535156-14.628907 1.144531-20.65625l-26.300781-29.40625c-27.640625-30.910157-64.269532-25.609375-67.386719-26.164063v-27.628906c0-8.078125-6.550781-14.625-14.625-14.625h-2.242187v-32.175781c0-39.613281-32.214844-71.828125-71.824219-71.828125s-71.835938 32.214844-71.835938 71.828125v32.175781h-2.230469c-8.078124 0-14.625 6.546875-14.625 14.625v27.628906h-41.429687v-53.128906c0-32.878906-26.742187-59.617188-59.617187-59.617188h-300.339844c-8.078125 0-14.625 6.546876-14.625 14.625 0 8.078126 6.546875 14.625 14.625 14.625h300.339844c16.738281 0 30.367187 13.625 30.367187 30.367188v388.535156h-502.3125v-388.527344c0-16.75 13.621094-30.371093 30.367187-30.371093h68.429688c8.085938 0 14.625-6.550781 14.625-14.625 0-8.070313-6.539062-14.625-14.625-14.625h-68.429688c-32.875 0-59.621093 26.746093-59.621093 59.621093v499.832032c0 32.878906 26.746093 59.621094 59.621093 59.621094h94.714844c-1.121094 72.289062 57.347656 128.203124 126.078125 128.203124 68.722657 0 127.1875-55.914062 126.066407-128.203124h215.589843c-1.117187 72.289062 57.34375 128.203124 126.066407 128.203124 68.398437 0 127.171874-55.546874 126.078124-128.203124h64.601563c32.871094 0 59.625-26.742188 59.625-59.621094v-221.277344zm-350.074219-299.863281c0-23.472657 19.101563-42.574219 42.585938-42.574219 23.46875 0 42.574219 19.101562 42.574219 42.574219v32.175781h-85.160157zm-16.859375 61.425781h118.886719v13.007812h-118.886719zm-351.082031 618.285156c-53.492187 0-97.015625-43.527344-97.015625-97.011718 0-52.023438 44.109375-97.019532 97.015625-97.019532 53.113281 0 97.015625 45.164063 97.015625 97.019532 0 53.484374-43.527344 97.011718-97.015625 97.011718zm-120.617187-132.328125c-.429688 1.4375-1.378907 2.664063-1.75 4.128907h-98.421876c-16.746093 0-30.367187-13.632813-30.367187-30.371094v-82.042969h502.3125v112.414063h-128.785156c-.375-1.464844-1.332031-2.691407-1.761719-4.136719-36.058594-122.691407-206.304688-118.820313-241.226562.007812zm588.34375 132.328125c-53.496094 0-97.015626-43.527344-97.015626-97.011718 0-52.46875 44.457032-97.019532 97.015626-97.019532 53.808593 0 97.015624 45.597656 97.015624 97.019532 0 53.484374-43.53125 97.011718-97.015624 97.011718zm221.039062-158.578125c0 16.746094-13.621094 30.367188-30.363281 30.367188h-68.308594c-.371094-1.457031-1.328125-2.683594-1.757813-4.132813-16.457031-55.972656-67.792968-90.9375-120.609374-90.9375-52.164063 0-103.789063 33.730469-120.609376 90.9375-.425781 1.449219-1.382812 2.675782-1.757812 4.132813h-64.953125v-112.414063h408.359375zm0 0"/></svg>