<svg height="1065pt" viewBox="-33 -80 1065.0001 1065" width="1065pt" xmlns="http://www.w3.org/2000/svg"><path d="m950.105469 334.367188c-25.539063 0-46.3125 20.773437-46.3125 46.3125v27.789062h-546.996094c-8.078125 0-14.628906 6.546875-14.628906 14.625v28.277344h-61.925781c-3.269532-45.46875-21.105469-86.570313-49.226563-119.121094v-263.09375h87.109375v28.660156h-45.183594c-8.605468 0-15.359375 7.410156-14.5625 15.976563l10.320313 110.996093c1.636719 17.632813 16.222656 30.925782 33.925781 30.925782h15.484375v81.878906c0 8.078125 6.558594 14.625 14.625 14.625 8.089844 0 14.625-6.546875 14.625-14.625v-81.878906h15.5c17.703125 0 32.289063-13.292969 33.925781-30.925782l10.320313-110.996093c.378906-4.09375-.980469-8.164063-3.753907-11.199219-2.769531-3.039062-6.695312-4.777344-10.808593-4.777344h-45.183594v-28.660156h29.257813c20.429687 0 37.046874-16.621094 37.046874-37.050781 0-20.429688-16.617187-37.050781-37.046874-37.050781h-65.328126c-8.074218 0-14.625 6.546874-14.625 14.625 0 8.085937 6.550782 14.625 14.625 14.625h65.328126c4.300781 0 7.796874 3.496093 7.796874 7.800781 0 4.308593-3.496093 7.800781-7.796874 7.800781h-160.226563c-8.078125 0-14.625 6.546875-14.625 14.625v248.660156c-1.921875-1.488281-15.417969-10.847656-15.601563-10.953125v-255.582031c0-6.8125 5.539063-12.351562 12.347657-12.351562h45.828125c8.074218 0 14.625-6.539063 14.625-14.625 0-8.078126-6.550782-14.625-14.625-14.625h-45.828125c-22.941407 0-41.597657 18.667968-41.597657 41.601562v240.304688c-20.535156-8.824219-42.996093-13.542969-66.300781-15.214844v-147.136719c0-25.535156-20.777343-46.308594-46.316406-46.308594s-46.316406 20.777344-46.316406 46.308594v309.199219c0 8.082031 6.546875 14.625 14.628906 14.625 8.078125 0 14.625-6.542969 14.625-14.625v-309.199219c0-9.410156 7.652344-17.058594 17.0625-17.058594 9.40625 0 17.0625 7.648438 17.0625 17.058594v757.003906h-34.125v-375.390625c0-8.082031-6.546875-14.625-14.625-14.625-8.082031 0-14.628906 6.542969-14.628906 14.625v390.015625c0 8.085938 6.546875 14.625 14.628906 14.625h63.378906c8.078125 0 14.625-6.539062 14.625-14.625v-152.109375h66.300781v152.109375c0 8.085938 6.546876 14.625 14.625 14.625h44.851563c8.082031 0 14.625-6.539062 14.625-14.625v-152.109375h111.152344v36.078125c0 8.085938 6.550781 14.625 14.628906 14.625h273.011719c8.078125 0 14.625-6.539062 14.625-14.625 0-8.082031-6.546875-14.625-14.625-14.625h-258.386719v-317.859375h532.371094v317.859375h-205.734375c-8.082032 0-14.625 6.542969-14.625 14.625 0 8.085938 6.542968 14.625 14.625 14.625h205.734375v101.40625c0 8.085938 6.542969 14.625 14.625 14.625h63.375c8.082031 0 14.625-6.539062 14.625-14.625v-505.558593c0-25.539063-20.773438-46.3125-46.3125-46.3125zm-582.441407-112.28125c-.234374 2.5-2.300781 4.382812-4.804687 4.382812h-60.234375c-2.503906 0-4.566406-1.882812-4.804688-4.382812l-8.824218-95.019532h87.496094zm-115.800781 229.285156h-161.25v-161.253906c84.265625 6.945312 154.183594 75.535156 161.25 161.253906zm-50.097656 420.242187h-15.601563v-137.484375h15.601563zm-111.152344-166.734375v-224.257812h251.554688v224.257812zm876.554688 166.734375h-34.125v-490.933593c0-9.40625 7.65625-17.0625 17.0625-17.0625 9.410156 0 17.0625 7.65625 17.0625 17.0625zm0 0"/></svg>