<svg height="1065pt" viewBox="-34 -33 1065 1065.0001" width="1065pt" xmlns="http://www.w3.org/2000/svg"><path d="m869.792969 313.003906c-103.269531 0-162.664063 118.449219-98.660157 201.230469-11.214843 15.203125-7.683593 26.382813-8.359374 31.070313 0 22.042968 17.941406 39.976562 39.976562 39.976562h52.417969v246.84375c0 74.460938-60.582031 135.042969-135.042969 135.042969h-372.160156c-74.453125 0-135.042969-60.582031-135.042969-135.042969v-276.171875h130.210937c11.945313 0 22.414063-4.601563 31.484376-11.027344h20.203124v170.402344c0 63.054687 51.308594 114.363281 114.363282 114.363281h77.375c63.058594 0 114.359375-51.308594 114.359375-114.363281v-418.011719h52.414062c22.046875 0 39.976563-17.925781 39.976563-39.976562v-7.796875c0-12.664063-6.285156-23.46875-15.503906-30.808594 8.164062-17.027344 12.859374-37.386719 15.109374-49.785156 1.433594-7.953125-3.839843-15.5625-11.785156-17-7.960937-1.445313-15.5625 3.839843-17.007812 11.785156-3.394532 18.820313-8.589844 35.277344-14.316406 45.832031h-127.035157c-10.707031-19.617187-17.894531-56.765625-17.894531-81.746094 0-55.460937 36.53125-100.585937 81.417969-100.585937 36.109375 0 68.289062 29.988281 78.253906 72.917969 1.824219 7.875 9.6875 12.769531 17.546875 10.945312 7.867188-1.824218 12.765625-9.6875 10.941406-17.554687-13.050781-56.257813-56.949218-95.5625-106.742187-95.5625-61.027344 0-110.667969 58.246093-110.667969 129.839843 0 23.9375 6.484375 63.332032 19.6875 90.554688-9.503906 7.3125-16.035156 18.273438-16.035156 31.167969v7.796875c0 22.050781 17.929687 39.976562 39.976562 39.976562h52.410156v418.011719c0 46.929687-38.179687 85.109375-85.105468 85.109375h-77.375c-46.929688 0-85.117188-38.179688-85.117188-85.109375v-170.402344h24.5625c55.605469 0 100.851563-45.253906 100.851563-100.863281v-334.191406c0-55.609375-45.246094-100.855469-100.851563-100.855469h-74.015625c-9.066406-6.433594-19.535156-11.035156-31.480469-11.035156h-134.65625c-8.082031 0-14.625 6.554687-14.625 14.628906s6.542969 14.625 14.625 14.625h134.65625c15.734376 0 26.355469 13.917969 26.355469 26.359375-.824219 493.023438 2.359375 448.09375-3.3125 458.835938-5.261719 9.914062-14.253906 14.273437-23.042969 14.273437h-244.410156c-39.476562 0-71.605468-32.125-71.605468-71.613281v-356.246094c0-39.488281 32.128906-71.609375 71.605468-71.609375h37.597656c8.078126 0 14.625-6.550781 14.625-14.625s-6.546874-14.628906-14.625-14.628906h-37.597656c-55.609375 0-100.855468 45.25-100.855468 100.863281v356.257812c0 55.613282 45.246093 100.851563 100.867187 100.851563h84.953125v276.171875c0 90.597656 73.691406 164.292969 164.292969 164.292969h372.144531c90.601562 0 164.292969-73.695313 164.292969-164.292969v-246.84375h52.410156c22.046875 0 39.976563-17.933594 39.976563-39.976562-.679688-4.8125 2.863281-15.867188-8.355469-31.070313 64.09375-82.878906 4.421875-201.230469-98.65625-201.230469zm-261.257813-55.664062v-7.796875c0-5.910157 4.804688-10.726563 10.71875-10.726563h134.074219c5.914063 0 10.71875 4.816406 10.71875 10.726563v7.796875c0 5.914062-4.804687 10.726562-10.71875 10.726562h-134.074219c-5.914062 0-10.71875-4.8125-10.71875-10.726562zm-159.90625-219.074219c39.476563 0 71.601563 32.117187 71.601563 71.605469v334.191406c0 39.488281-32.125 71.605469-71.601563 71.605469h-52.070312c1.433594-4.945313 2.179687-10.105469 2.179687-15.320313-.769531-468.140625 1.929688-447.882812-2.179687-462.082031zm421.164063 303.992187c80.851562 0 124.746093 94.039063 74.707031 156.015626-7.097656-1.390626-3.480469-.492188-141.75-.742188-2.570312 0-5.148438.25-7.671875.742188-49.972656-61.902344-6.199219-156.015626 74.714844-156.015626zm77.761719 203.046876c0 5.914062-4.816407 10.726562-10.726563 10.726562h-134.078125c-5.910156 0-10.71875-4.8125-10.71875-10.726562v-7.796876c0-5.925781 4.808594-10.726562 10.71875-10.726562h134.078125c5.910156 0 10.726563 4.800781 10.726563 10.726562zm0 0"/><path d="m869.792969 444.84375c8.074219 0 14.625-6.558594 14.625-14.625v-46.121094c0-8.078125-6.550781-14.625-14.625-14.625-8.082031 0-14.625 6.546875-14.625 14.625v46.121094c0 8.066406 6.542969 14.625 14.625 14.625zm0 0"/></svg>