<svg height="1065pt" viewBox="-81 -33 1065 1065.0001" width="1065pt" xmlns="http://www.w3.org/2000/svg"><path d="m857.21875 215.324219h-20.175781v-61.542969c0-8.074219-6.546875-14.625-14.625-14.625-8.074219 0-14.625 6.550781-14.625 14.625v61.542969h-20.171875c-22.546875 0-40.890625 18.347656-40.890625 40.898437v57.78125c0 8.070313 6.539062 14.628906 14.625 14.628906 8.074219 0 14.628906-6.558593 14.628906-14.628906v-57.78125c0-6.425781 5.210937-11.648437 11.636719-11.648437h69.597656c6.414062 0 11.640625 5.222656 11.640625 11.648437v206.839844c0 6.410156-5.226563 11.640625-11.640625 11.640625h-69.597656c-6.425782 0-11.636719-5.230469-11.636719-11.640625v-86.027344c0-8.078125-6.554687-14.625-14.628906-14.625-8.085938 0-14.625 6.546875-14.625 14.625v86.027344c0 22.546875 18.34375 40.890625 40.890625 40.890625h16.886718v295.484375c0 92.480469-75.25 167.730469-167.730468 167.730469h-178.347656c-92.492188 0-167.738282-75.25-167.738282-167.730469v-160.695312h67.796875c31.292969 0 56.75-25.457032 56.75-56.75v-25.554688c77.5625-5.792969 98.59375-47.691406 102.105469-83.277344l7.480469-75.835937c0-.019531.007812-.042969.007812-.070313l6.816407-69.050781c0-.011719 0-.015625 0-.027344l6.820312-69.066406c0-.011719 0-.023437 0-.039063l13.632812-138.171874c0-.007813 0-.007813 0-.011719l4.820313-48.8125c1.871094-18.917969-4.386719-37.84375-17.140625-51.933594-12.765625-14.078125-30.984375-22.160156-49.992188-22.160156h-427.4375c-19.003906 0-37.226562 8.078125-49.996093 22.160156-12.757813 14.09375-19.003907 33.015625-17.132813 51.933594l39.582032 401.085937c3.5 35.585938 24.53125 77.480469 102.101562 83.277344v25.554688c0 31.292968 25.453125 56.75 56.75 56.75h67.785156v160.691406c0 108.617187 88.371094 196.984375 196.988282 196.984375h178.347656c108.621094 0 196.984375-88.359375 196.984375-196.984375v-295.480469h23.457031c22.546875 0 40.890625-18.355469 40.890625-40.902344v-206.839843c0-22.542969-18.34375-40.886719-40.890625-40.886719zm-793.3125 254.96875-33.183594-336.269531h99.9375c8.082032 0 14.625-6.546876 14.625-14.625 0-8.082032-6.542968-14.625-14.625-14.625h-102.824218l-3.511719-35.574219c-1.074219-10.875 2.378906-21.3125 9.71875-29.414063 7.328125-8.097656 17.382812-12.550781 28.308593-12.550781h427.4375c10.925782 0 20.984376 4.453125 28.3125 12.550781 7.335938 8.101563 10.78125 18.539063 9.710938 29.414063l-3.507812 35.574219h-310.914063c-8.074219 0-14.625 6.542968-14.625 14.625 0 8.078124 6.550781 14.625 14.625 14.625h308.027344l-3.929688 39.84375h-51.316406c-8.078125 0-14.625 6.554687-14.625 14.625 0 8.085937 6.546875 14.625 14.625 14.625h48.425781l-3.9375 39.855468h-102.238281c-8.085937 0-14.625 6.542969-14.625 14.625 0 8.082032 6.539063 14.625 14.625 14.625h99.351563l-3.929688 39.851563h-36c-8.082031 0-14.625 6.546875-14.625 14.625 0 8.070312 6.542969 14.625 14.625 14.625h33.117188l-3.929688 39.847656h-88.609375c-8.085937 0-14.625 6.550781-14.625 14.625s6.539063 14.628906 14.625 14.628906h85.722656l-5.90625 59.867188c-2.445312 24.71875-14.609375 57.589843-91.820312 57.589843h-240.699219c-77.207031 0-89.375-32.871093-91.8125-57.589843zm102.25 111.699219v-24.859376h219.828125v24.859376c0 15.15625-12.335937 27.496093-27.496094 27.496093h-164.84375c-15.160156 0-27.488281-12.339843-27.488281-27.496093zm0 0"/></svg>