<svg height="1063pt" viewBox="-33 -35 1063.7476 1063" width="1063pt" xmlns="http://www.w3.org/2000/svg"><path d="m469.871094 665.910156-75.464844 75.457032c-22.789062 22.789062-30.964844 55.824218-21.359375 86.210937 20.761719 65.585937-26.203125 134.683594-98.304687 135.628906-69.886719.871094-117.820313-62.59375-103.324219-127.046875 2.324219-10.378906-6.960938-19.671875-17.351563-17.347656-64.757812 14.554688-127.976562-33.769531-127.058594-103.335938.960938-72.097656 70.03125-119.066406 135.632813-98.304687 30.386719 9.617187 63.425781 1.429687 86.210937-21.355469l349.960938-349.960937c22.78125-22.789063 30.972656-55.824219 21.355469-86.210938-18.007813-56.933593 15.132812-118.820312 75.21875-132.8125 7.804687-1.828125 12.660156-9.632812 10.839843-17.4375-1.816406-7.808593-9.613281-12.65625-17.425781-10.835937-75.890625 17.683594-119.640625 96.097656-96.308593 169.84375 6.332031 20.011718.894531 41.828125-14.210938 56.925781l-349.957031 349.957031c-15.097657 15.097656-36.902344 20.539063-56.925781 14.203125-84.488282-26.730469-172.207032 34.335938-173.40625 125.613281-1.074219 80.910157 66.527343 140.285157 142.113281 135.019532-5.230469 74.703125 52.917969 142.132812 133.132812 142.132812 92.585938 0 154.316407-88.683594 127.492188-173.433594-6.332031-20.007812-.894531-41.824218 14.207031-56.929687l75.453125-75.453125c5.675781-5.667969 5.675781-14.859375 0-20.527344-5.660156-5.671875-14.851563-5.671875-20.519531 0zm0 0"/><path d="m853.117188 137.105469c4.101562-58.484375-30.4375-111.890625-83.480469-132.757813-7.464844-2.925781-15.882813.742188-18.816407 8.199219-2.945312 7.464844.734376 15.886719 8.191407 18.820313 46.742187 18.375 74.269531 68.6875 62.800781 119.699218-2.328125 10.363282 6.933594 19.675782 17.339844 17.339844 35.34375-7.933594 71.648437 2.605469 97.140625 28.207031 40.746093 40.917969 39.8125 109.683594-2.027344 149.523438-27.570313 26.265625-67.304687 35.429687-103.6875 23.914062-30.382813-9.613281-63.421875-1.429687-86.210937 21.355469l-221.597657 221.601562c-9.175781 9.175782-2.550781 24.78125 10.265625 24.78125 11.46875 0 .507813 3.167969 231.855469-225.851562 15.105469-15.097656 36.917969-20.539062 56.929687-14.203125 84.53125 26.738281 172.210938-34.378906 173.410157-125.613281 1.070312-80.734375-66.371094-140.324219-142.113281-135.015625zm0 0"/></svg>