<svg height="1063pt" viewBox="-45 -33 1063 1063.7477" width="1063pt" xmlns="http://www.w3.org/2000/svg"><path d="m733.40625 259.683594c7.3125-3.402344 10.5-12.089844 7.09375-19.40625-17.9375-38.613282-65.0625-58.542969-107.519531-37.25-29.96875-47.761719-91.265625-67.304688-143.695313-42.9375-7.320312 3.398437-10.492187 12.082031-7.105468 19.402344 3.410156 7.316406 12.101562 10.480468 19.414062 7.09375 39.6875-18.453126 85.609375-2.441407 107.386719 34.507812-20.335938 22.984375-26.511719 56.675781-12.773438 86.242188 2.480469 5.328124 7.75 8.457031 13.261719 8.457031 10.554688 0 17.769531-11.023438 13.238281-20.773438-11.699219-25.171875-.742187-55.164062 24.429688-66.859375 25.171875-11.699218 55.171875-.738281 66.867187 24.433594 3.402344 7.320312 12.085938 10.480469 19.402344 7.089844zm0 0"/><path d="m338.425781 312.566406c7.332031 3.363282 15.996094.140625 19.363281-7.191406 3.363282-7.335938.152344-16.007812-7.1875-19.375-41.546874-19.046875-93.121093-4.699219-116.476562 40.949219-25.851562-7.867188-54.457031-7.042969-80.832031 5.203125-7.324219 3.402344-10.492188 12.085937-7.09375 19.414062 3.402343 7.316406 12.089843 10.484375 19.402343 7.089844 42.230469-19.621094 92.535157-1.234375 112.15625 40.988281 2.46875 5.324219 7.746094 8.453125 13.253907 8.453125 10.558593 0 17.773437-11.011718 13.242187-20.773437-9.703125-20.867188-25.035156-37.304688-43.296875-48.570313 16.460938-30.027344 50.144531-38.71875 77.46875-26.1875zm0 0"/><path d="m592.265625 433.964844c-6.554687 4.710937-8.058594 13.839844-3.347656 20.390625 4.699219 6.550781 13.832031 8.058593 20.378906 3.347656 27.09375-19.425781 64.753906-13.253906 84.195313 13.835937 2.851562 3.980469 7.332031 6.089844 11.882812 6.089844 11.703125-.003906 18.859375-13.371094 11.855469-23.128906-28.859375-40.210938-84.753907-49.394531-124.964844-20.535156zm0 0"/><path d="m469.808594 358.699219c-5.410156 32.898437-36.402344 55.148437-69.316406 49.746093-7.96875-1.3125-15.476563 4.085938-16.785157 12.050782-1.304687 7.957031 4.085938 15.476562 12.042969 16.789062 4.917969.804688 9.832031 1.199219 14.714844 1.199219 42.355468 0 80.859375-30.523437 88.171875-75.050781 1.308593-7.960938-4.085938-15.480469-12.042969-16.78125-7.960938-1.324219-15.476562 4.085937-16.785156 12.046875zm0 0"/><path d="m939.851562 339.4375c7.046876-46.589844-23.398437-97.339844-68.714843-115.4375 1.632812-17.003906-2.277344-34.96875-11.476563-51.851562-3.855468-7.085938-12.730468-9.703126-19.824218-5.835938-7.078126 3.863281-9.695313 12.726562-5.832032 19.8125 7.9375 14.574219 10.265625 30.503906 6.382813 43.71875-2.367188 8.035156 2.503906 16.378906 10.609375 18.320312 40.21875 9.652344 68.816406 56.453126 58.550781 93.523438-1.707031 6.195312.824219 12.785156 6.253906 16.230469 26.167969 16.628906 35.078125 61.246093 14.945313 97.222656-6.335938-14.710937-17.09375-32.777344-36.703125-49.828125-6.085938-5.296875-15.3125-4.65625-20.613281 1.433594-5.289063 6.085937-4.648438 15.308594 1.441406 20.609375 18.90625 16.441406 31.195312 36.394531 36.023437 60.933593.140625.71875-.15625 1.429688.078125 2.132813 18.242188 53.207031-35.371094 118.359375-81 97.820313-.910156-.410157-1.828125.132812-2.765625-.078126-10.140625-6.222656-21.296875-10.515624-33.605469-10.515624h-72.132812c-8.070312 0-14.609375 6.53125-14.609375 14.605468 0 8.0625 6.539063 14.605469 14.609375 14.605469h72.117188c23.722656 0 41.117187 22.34375 35.261718 45.359375-.195312.75-1.214844 6.359375-5.347656 28.546875-7.4375 28.363281-33.019531 48.125-62.371094 48.125h-92.625c-29.355468 0-54.933594-19.761719-62.371094-48.125-4.132812-22.1875-5.144531-27.796875-5.332031-28.546875-5.863281-22.988281 11.496094-45.359375 35.242188-45.359375h22.824219c8.078124 0 14.609374-6.542969 14.609374-14.605469 0-8.074218-6.53125-14.605468-14.609374-14.605468h-22.824219c-42.691407 0-73.859375 40.03125-63.6875 81.289062 3.964843 21.242188 5.164062 27.878906 5.355469 28.597656 10.585937 41.550782 47.921874 70.570313 90.792968 70.570313h83.578125l38.15625 175.34375c1.734375 7.972656-.203125 16.171875-5.308593 22.519531-14.414063 17.882812-43.726563 10.589844-47.347657-12.859375-8.1875-52.925781-57.011719-101.601563-163.269531-162.75-71.972656-41.414063-93.679688-101.167969-85-152.617187 26.636719 12.183593 22.164062 24.816406 36.015625 24.816406 11.679687 0 18.867187-13.359375 11.851563-23.117188-12.226563-17.042968-29.769532-27.175781-48.527344-32.515625-1.410156-1.363281-2.28125-3.203125-4.234375-3.929687-3.8125-1.40625-7.824219-1.089844-11.238281.496094-20.90625-2.074219-42.585938 2.226562-60.957032 15.414062-6.566406 4.699219-8.0625 13.828125-3.351562 20.386719 4.703125 6.546875 13.832031 8.050781 20.382812 3.34375 9.535156-6.847657 20.414063-9.417969 31.347656-10.097657-1.789062 10.875-2.421874 25.722657-.882812 42.339844-112.644531 22.015625-180.0625-10.085937-222.808594-106.867187-3.523437-14.644531-6.871094-38.496094-3.644531-48.496094 2.472656-7.679687-1.75-15.914063-9.417969-18.398437-7.683594-2.476563-15.914062 1.746093-18.394531 9.425781-4.707031 14.59375-2.320313 35.472656.253906 50.171875-27.582031 2.074218-48.171875-12.789063-52.039062-23.050782-1.472657-3.925781-4.570313-7.03125-8.492188-8.511718-8.265625-3.125-11.910156 1.734375-20.234375 4.042968-41.671875 11.613282-82.953125-43.027343-71.042968-93.421874 3.566406-15.09375-14.460938-15.09375-24.007813-49.40625-10.195313-36.648438 4.464844-72.917969 32.710937-80.835938 8.261719-2.324219 12.777344-11.261719 9.695313-19.304688-17.265625-44.996093 12.546875-101.722656 53.277344-103.339843 7.347656-.289063 13.335937-5.996094 13.980469-13.3125 3.9375-44.621094 50.175781-82.273438 88.382812-71.308594 6.335938 1.816406 13.109375-.832031 16.53125-6.476563 18.335938-30.277343 60.546875-45.851562 93.226562-34.609374-5.480468 8.289062-10.375 19.175781-11.203124 30.9375-3.054688.65625-6.367188 1.0625-9.082032 1.953124-21.582031 7.074219-36.042968 21.136719-36.65625 21.726563-5.75 5.664063-5.820312 14.910156-.164062 20.660156 5.65625 5.765625 14.90625 5.835938 20.65625.175781 1.601562-1.578124 39.726562-38.199218 78.558594 0 2.851562 2.800782 6.546874 4.1875 10.242187 4.1875 12.984375 0 19.566406-15.847656 10.25-25.023437-15.113281-14.851563-30.300781-21.855469-44.328125-24.488281 2.0625-9.976563 11.015625-21.121094 14.550781-24.625.210938-.210938.121094-.535156.3125-.75 36.699219-39.695313 95.792969-35.730469 117.605469-4.808594 2.414062 3.414062 6.175781 5.640625 10.316406 6.097656 4.160156.449219 8.3125-.878906 11.417969-3.675781 33.882813-30.609375 98.652344-21.023437 117.632813 17.921875 3.058593 6.292969 10.167968 9.523438 16.921874 7.710938 39.070313-10.484376 86.308594 15.4375 95.867188 52.800781 1.800781 7.027343 8.476562 11.699219 15.671875 10.910156 11.976563-1.253906 24.75.925781 36.992187 6.292969 7.375 3.246094 15.996094-.113282 19.246094-7.492188 3.238282-7.398437-.117187-16.011718-7.5-19.261718-12.972656-5.695313-26.5625-8.765626-39.886718-9.074219-17.855469-43.527344-69.160157-71.636719-116.875-64.675781-30.085938-43.910157-99.101563-56.007813-145.851563-25.835938-37.40625-35.386719-104.949219-32.582031-144.792969 4.941406-43.097656-21.160156-101.738281-5.660156-132.179687 34.167969-49.101563-6.75-101.75 32.984375-113.207031 87.289063-50.285157 10.824218-84.320313 71.582031-71.382813 127.710937-49.730469 26.421875-58.277344 104.570313-16.878906 153.839844-11.195313 71.125 49.375 138.226562 109.984375 120.222656 16.21875 20.199219 50.777344 34.019531 80.9375 29.109375 51.683594 107.527344 135.359375 135.644531 249.941406 113.535156 9.984375 34.824219 34.914062 77.476563 94.933594 112.019532 96.429687 55.5 142.371094 99.257812 148.960937 141.890624 4.273438 27.574219 27.550781 47.589844 55.359375 47.589844 35.773438 0 62.328125-33.042968 54.734375-67.921875l-37.546875-172.519531c38.929688-8.691406 65.488282-39.605469 70.878906-68.113281 2.816407-25.222657 12.65625-37.238281 1.199219-66.589844 59.269531-4.964844 101.457031-71.03125 87.890625-129.929687 39.617188-42.242188 40.207032-115.367188-1.371094-150.648438zm0 0"/></svg>