<svg height="1065pt" viewBox="-33 -33 1065.0015 1065" width="1065pt" xmlns="http://www.w3.org/2000/svg"><path d="m258.808594-2.054688h-4.90625c-141.117188 0-255.921875 114.804688-255.921875 255.925782v486.546875c0 141.113281 114.804687 255.925781 255.921875 255.925781h4.90625c141.113281 0 255.925781-114.8125 255.925781-255.925781v-486.546875c-.007813-141.121094-114.8125-255.925782-255.925781-255.925782zm226.671875 484.578126h-230.59375c-8.074219 0-14.625 6.546874-14.625 14.625 0 8.070312 6.550781 14.625 14.625 14.625h230.59375v228.644531c0 124.980469-101.683594 226.671875-226.671875 226.671875h-4.90625c-124.984375 0-226.667969-101.691406-226.667969-226.671875v-228.644531h152.808594c8.070312 0 14.625-6.554688 14.625-14.625 0-8.078126-6.554688-14.625-14.625-14.625h-152.808594v-228.652344c0-124.984375 101.683594-226.675782 226.667969-226.675782h4.90625c124.988281 0 226.671875 101.691407 226.671875 226.675782zm0 0"/><path d="m931.886719 457.394531c86.035156-86.042969 86.050781-225.324219 0-311.382812-86.054688-86.046875-225.332031-86.066407-311.394531 0-86.050782 86.046875-86.054688 225.332031 0 311.382812 86.042968 86.050781 225.320312 86.0625 311.394531 0zm-300.664063-279.972656 134.628906 134.625c5.703126 5.703125 14.964844 5.703125 20.675782 0 5.714844-5.714844 5.714844-14.976563 0-20.679687l-134.625-134.625c74.855468-64.382813 188.019531-61.332032 259.292968 9.945312 71.222657 71.226562 74.378907 184.394531 9.957032 259.292969l-90.023438-90.011719c-5.710937-5.71875-14.96875-5.71875-20.6875 0-5.707031 5.707031-5.707031 14.964844 0 20.679688l90.023438 90.015624c-74.863282 64.386719-188.027344 61.3125-259.289063-9.953124-71.21875-71.21875-74.375-184.378907-9.953125-259.289063zm0 0"/><path d="m931.886719 598.078125c-86.054688-86.03125-225.332031-86.054687-311.394531 0-86.042969 86.050781-86.054688 225.332031 0 311.390625 86.042968 86.046875 225.324218 86.0625 311.394531 0 5.703125-5.710938 5.703125-14.972656 0-20.679688-5.714844-5.707031-14.984375-5.714843-20.691407 0-71.238281 71.242188-184.410156 74.351563-259.289062 9.953126l90.023438-90.023438 179.210937-179.207031c50.75 59 60.867187 142.582031 24.433594 212.488281-3.734375 7.15625-.953125 15.992188 6.210937 19.722656 7.164063 3.730469 16 .957032 19.734375-6.207031 43.867188-84.1875 29.203125-188.578125-39.632812-257.4375zm-290.710938 20.691406c71.214844-71.222656 184.378907-74.363281 259.289063-9.949219l-269.242188 269.238282c-64.386718-74.863282-61.3125-188.027344 9.953125-259.289063zm0 0"/></svg>