<svg height="1065pt" viewBox="-33 -144 1065.0001 1065" width="1065pt" xmlns="http://www.w3.org/2000/svg"><path d="m981.792969 402.394531h-61.21875c88.574219-184.222656-12.015625-367.40625-178.359375-404.792969-7.882813-1.769531-15.703125 3.183594-17.46875 11.0625-1.777344 7.878907 3.171875 15.707032 11.058594 17.476563 151.484374 34.0625 243.191406 205.710937 152.3125 376.253906h-54.25l-50.5625-101.644531c-5.835938-11.730469-23-10.421875-27.007813 2.019531l-46.671875 144.671875-52.375-119.480468c-3.242188-7.40625-11.867188-10.769532-19.273438-7.53125-7.390624 3.25-10.761718 11.875-7.511718 19.273437l67.84375 154.789063c5.394531 12.289062 23.203125 11.40625 27.320312-1.390626l47.476563-147.179687 38.609375 77.613281c2.480468 4.96875 7.546875 8.113282 13.101562 8.113282h45.53125c-93.191406 141.574218-294.949218 249.539062-373.148437 303.691406-124.730469-80.8125-290.117188-177.558594-373.144531-303.691406h70.886718c5.601563 0 10.699219-3.199219 13.15625-8.234376l62.460938-128.496093 78.246094 229.621093c4.574218 13.429688 23.828124 13.082032 27.863281-.574218l61.898437-209.390625 55.816406 93.824219c6.183594 10.402343 21.59375 9.183593 26.121094-1.976563l66.921875-164.894531 19.988281 45.582031c3.242188 7.402344 11.863282 10.761719 19.261719 7.527344 7.394531-3.246094 10.757813-11.871094 7.523438-19.265625l-33.890625-77.335938c-5.25-11.960937-22.140625-11.476562-26.957032.378906l-68.886718 169.734376-57.875-97.292969c-6.5-10.925781-22.980469-8.882813-26.589844 3.335937l-58.339844 197.386719-74.878906-219.734375c-4.1875-12.3125-21.277344-13.425781-26.996094-1.679688l-73.988281 152.230469h-79.511719c-102.785156-192.886719 27.953125-382.152343 205.59375-382.152343 66.617188 0 128.683594 26.527343 174.75 74.679687 5.757813 6.023437 15.386719 6.023437 21.140625 0 40.191407-42.003906 94.0625-68.140625 151.6875-73.589844 8.046875-.757812 13.953125-7.894531 13.191407-15.941406-.761719-8.035156-7.902344-13.941406-15.9375-13.183594-59.703126 5.65625-115.789063 31.070313-159.503907 72.027344-50.375-47.339844-115.617187-73.242187-185.328125-73.242187-192.414062 0-339.480468 200.460937-238.050781 411.402343h-61.21875c-8.074219 0-14.628906 6.546875-14.628906 14.625s6.554687 14.628907 14.628906 14.628907h77.136719c84.15625 141.367187 261.910156 244.238281 399.523437 333.394531 4.824219 3.128906 11.039063 3.128906 15.863281 0 137.421876-89.035157 315.34375-191.988281 399.523438-333.394531h77.136719c8.074219 0 14.625-6.550782 14.625-14.628907s-6.550781-14.625-14.625-14.625zm0 0"/></svg>