<svg height="1063pt" viewBox="-33 -33 1063 1063.7501" width="1063pt" xmlns="http://www.w3.org/2000/svg"><path d="m637.296875 262.605469c104.90625-43.035157 217.515625-70.609375 334.707031-81.957031 2.875-.285157 5.882813-.425782 8.941406-.425782 8.066407-.015625 14.601563-6.566406 14.582032-14.625-.003906-8.0625-6.542969-14.59375-14.605469-14.59375-61.964844 1.507813-204.097656 26.601563-329.089844 74.410156 24.460938-91.597656 92.738281-172.289062 135.582031-200.761718 6.714844-4.460938 8.546876-13.53125 4.074219-20.253906-4.464843-6.71875-13.523437-8.539063-20.242187-4.078126-62.753906 41.714844-137.335938 147.398438-153.898438 246.351563-1.886718 11.277344 9.367188 20.269531 19.949219 15.933594zm0 0"/><path d="m161.878906 701.464844c22.332032-6.359375 37.578125-29.007813 56.851563-38.746094 5.742187-2.90625 13.617187-4.613281 21.964843-6.425781 41.789063-9.074219 51.484376-19.277344 66.734376-53.578125 10.132812-22.789063 12.367187-25.128906 28.851562-38.429688 33.4375-26.996094 37.097656-40.472656 35.863281-76.511718-.890625-26.015626.175781-29.175782 10.640625-48.746094 6.355469-11.878906 13.328125-25.382813 14.625-41.121094 8.917969-6.53125 17.609375-13.484375 26.679688-19.734375 4.367187-3.007813 6.765625-8.140625 6.257812-13.421875-11.691406-121.664062 12.425782-243.984375 83.789063-343.753906 4.695312-6.570313 3.1875-15.6875-3.378907-20.382813-6.5625-4.695312-15.683593-3.183593-20.378906 3.382813-72.847656 101.828125-100.5 227.21875-89.878906 354.992187-169.089844 118.277344-305.605469 279.722657-400.4609375 454.792969-3.8437505 7.09375-1.2109375 15.953125 5.8867185 19.808594 7.109375 3.847656 15.964844 1.179687 19.792969-5.890625 24.136719-44.539063 51.121094-87.496094 80.074219-129.027344 18.757812 1.671875 20.105469 13.046875 56.085937 2.792969zm26.253906-109.863282c51.152344-59.65625 106.949219-113.488281 166.285157-161.195312-9.816407 18.777344-12.539063 27.527344-11.472657 58.367188.976563 28.289062.066407 32.53125-25.015624 52.769531-19.785157 15.964843-24.957032 21.789062-37.191407 49.300781-11.898437 26.761719-14.753906 30.054688-46.246093 36.894531-25.199219 5.476563-33.171876 8.484375-58.09375 30.03125-8.148438 7.042969-15.847657 13.699219-22.523438 15.59375-16.777344 4.785157-19.28125 3.320313-28.46875-.199219 20.296875-27.699218 40.425781-55.566406 62.726562-81.5625zm0 0"/><path d="m209.605469 746.410156c0 14.515625-11.765625 26.292969-26.292969 26.292969-14.523438 0-26.300781-11.777344-26.300781-26.292969 0-14.527344 11.777343-26.296875 26.300781-26.296875 14.527344 0 26.292969 11.769531 26.292969 26.296875zm0 0"/><path d="m576.613281 130.785156c0 14.527344-11.769531 26.300782-26.296875 26.300782-14.523437 0-26.292968-11.773438-26.292968-26.300782 0-14.519531 11.769531-26.292968 26.292968-26.292968 14.527344 0 26.296875 11.773437 26.296875 26.292968zm0 0"/><path d="m693.628906 380.417969c0 14.523437-11.773437 26.289062-26.292968 26.289062-14.527344 0-26.296876-11.765625-26.296876-26.289062 0-14.523438 11.769532-26.296875 26.296876-26.296875 14.519531 0 26.292968 11.773437 26.292968 26.296875zm0 0"/><path d="m523.199219 330.324219c0 14.511719-11.777344 26.292969-26.296875 26.292969-14.519532 0-26.289063-11.78125-26.289063-26.292969 0-14.527344 11.769531-26.300781 26.289063-26.300781 14.519531 0 26.296875 11.773437 26.296875 26.300781zm0 0"/><path d="m450.15625 533.730469c0 14.527343-11.769531 26.300781-26.292969 26.300781-14.527343 0-26.296875-11.773438-26.296875-26.300781 0-14.511719 11.769532-26.289063 26.296875-26.289063 14.523438 0 26.292969 11.777344 26.292969 26.289063zm0 0"/><path d="m897.65625 260.410156c0 14.511719-11.769531 26.289063-26.296875 26.289063-14.519531 0-26.292969-11.777344-26.292969-26.289063 0-14.527344 11.773438-26.300781 26.292969-26.300781 14.527344 0 26.296875 11.773437 26.296875 26.300781zm0 0"/><path d="m84.796875 927.941406c0 14.523438-11.769531 26.292969-26.289063 26.292969-14.523437 0-26.292968-11.769531-26.292968-26.292969 0-14.527344 11.769531-26.296875 26.292968-26.296875 14.519532 0 26.289063 11.769531 26.289063 26.296875zm0 0"/><path d="m124.308594 798.996094c0 14.515625-11.773438 26.300781-26.292969 26.300781s-26.300781-11.785156-26.300781-26.300781 11.78125-26.292969 26.300781-26.292969 26.292969 11.777344 26.292969 26.292969zm0 0"/><path d="m176.894531 880.796875c0 14.523437-11.769531 26.296875-26.289062 26.296875-14.523438 0-26.296875-11.773438-26.296875-26.296875 0-14.515625 11.773437-26.289063 26.296875-26.289063 14.519531 0 26.289062 11.773438 26.289062 26.289063zm0 0"/><path d="m698.242188 437.378906c-98.703126 39.070313-182.019532 91.097656-263.226563 164.847656-20.023437.722657-38.964844-3.105468-56.867187 4.828126-24.882813 11.03125-36.410157 36.953124-50.4375 47.574218-6.394532 4.84375-14.484376 8.441406-23.050782 12.246094-34.15625 15.1875-44.460937 24.785156-53.578125 66.746094-4.558593 20.960937-5.675781 24.472656-23.578125 45.191406-8.8125 10.195312-17.921875 20.734375-21.59375 33.621094-11.5625 40.585937 4.285156 37.632812 3.195313 63.25-.03125.957031.78125 1.585937.917969 2.492187-23.125 39.140625-40.175782 72.839844-50.984376 96.226563-3.382812 7.328125-.191406 16.003906 7.132813 19.390625 7.34375 3.398437 16.011719.15625 19.390625-7.136719 24.15625-52.304688 78.390625-155.785156 170.101562-261.257812 112.457032-129.332032 218.125-207.34375 353.320313-260.851563 7.503906-2.960937 11.179687-11.457031 8.210937-18.957031-2.972656-7.503906-11.464843-11.179688-18.953124-8.210938zm-466.226563 405.160156c-1.46875-4.25-1.804687-8.777343 1.988281-22.097656 1.902344-6.675781 8.566406-14.378906 15.597656-22.523437 21.496094-24.855469 24.539063-32.84375 30.03125-58.09375 6.847657-31.515625 10.199219-34.375 36.902344-46.246094 27.601563-12.273437 33.429688-17.542969 49.296875-37.191406 16.671875-20.660157 22.351563-24.558594 38.488281-25.128907-66.289062 65.171876-120.757812 130.703126-172.304687 211.28125zm0 0"/><path d="m979.378906 365.890625c-77.265625 8.238281-152.074218 24.714844-222.347656 48.960937-18.019531 6.226563-9.015625 34.011719 9.535156 27.625 68.191406-23.539062 140.835938-39.53125 215.902344-47.53125 8.035156-.859374 13.839844-8.054687 12.984375-16.074218-.859375-8.027344-8.074219-13.839844-16.074219-12.980469zm0 0"/></svg>