<svg height="1064pt" viewBox="-33 -33 1064 1064.9997" width="1064pt" xmlns="http://www.w3.org/2000/svg"><path d="m977.15625 17.492188c-24.851562-24.84375-64.992188-26.125-91.382812-2.914063l-101.332032 89.144531c-6.046875 5.324219-6.640625 14.546875-1.316406 20.59375 5.3125 6.035156 14.539062 6.636719 20.578125 1.304688l101.335937-89.144532c14.867188-13.078124 37.488282-12.351562 51.488282 1.644532 14.011718 14.007812 14.734375 36.625 1.652344 51.492187l-282.1875 320.769531-91.71875-91.710937 163.941406-144.230469c6.039062-5.3125 6.636718-14.53125 1.316406-20.578125-5.320312-6.050781-14.542969-6.636719-20.578125-1.316406l-165.347656 145.464844-55.582031-55.59375c-14.414063-14.414063-37.757813-14.414063-52.167969 0l-31.242188 31.246093c-10.226562 10.21875-14.273437 26.027344-7.277343 41.316407-220.71875-26.476563-429.691407 169.703125-418.550782 394.101562 1.960938 39.40625 18.648438 76.722657 47 105.078125l134.710938 134.703125c45.855468 45.859375 101.472656 52.875 166.226562 44.507813 7.992188-1.039063 13.628906-8.351563 12.597656-16.335938-1.035156-7.988281-8.335937-13.636718-16.335937-12.601562-55.296875 7.15625-102.5625 3.101562-141.859375-36.195313l-134.707031-134.699219c-23.230469-23.226562-36.902344-53.734374-38.492188-85.894531-10.921875-219.789062 208.9375-409.632812 420.980469-357.515625 23.1875 23.191406 172.335938 172.335938 195.617188 195.617188 39.925781 162.433594-63.691407 338.210937-225.214844 399.488281-7.523438 2.855469-11.320313 11.273437-8.460938 18.800781 2.855469 7.539063 11.277344 11.328125 18.804688 8.46875 161.300781-61.183594 270.085937-228.246094 250.003906-395.265625 15.699219 7.164063 31.390625 2.746094 41.335938-7.1875l31.242187-31.246093c14.382813-14.386719 14.382813-37.789063 0-52.171876l-55.582031-55.585937 283.425781-322.164063c23.214844-26.382812 21.925781-66.53125-2.921875-91.390624zm-245.546875 500.679687c-31.898437 30.855469-31.09375 33.507813-36.699219 33.507813-5.515625 0-5.714844-3.476563-26.921875-23.714844-237.210937-237.203125-225.015625-223.238282-225.015625-228.210938 0-5.605468 2.617188-4.773437 33.507813-36.710937 3.015625-3.015625 7.894531-3.015625 10.910156 0l244.21875 244.214843c3.015625 3.015626 3.015625 7.898438 0 10.914063zm0 0"/></svg>