<svg height="1063pt" viewBox="-228 -33 1063 1063.7476" width="1063pt" xmlns="http://www.w3.org/2000/svg"><path d="m535.816406-1.324219c-37.195312 6.515625-75.074218 10.59375-112.703125 12.789063-10.773437-9.925782-25.339843-15.515625-40.847656-12.785156-112.472656 19.695312-226.519531 19.695312-338.96875 0-42.265625-7.484376-73.296875 40.277343-48.273437 75.929687 15.960937 22.734375 37.09375 20.835937 80.433593 26.410156v261.132813c0 8.074218 6.546875 14.613281 14.605469 14.613281 8.066406 0 14.613281-6.539063 14.613281-14.613281v-55.507813h216.191407c-1.144532 184.148438 3.195312 168.324219-5.441407 196.074219-37.429687 119.847656-210.75 88.636719-210.75-32.027344v-29.980468c0-8.070313-6.546875-14.605469-14.613281-14.605469-8.058594 0-14.605469 6.535156-14.605469 14.605469v29.980468c0 60.242188 39.214844 113.78125 97.875 131.550782v308.84375h-.109375c-6.234375 0-11.78125 3.960937-13.8125 9.855468l-18.886718 54.855469c-3.253907 9.484375 3.800781 19.363281 13.820312 19.363281h116.855469c10.023437 0 17.070312-9.878906 13.820312-19.363281l-18.886719-54.855469c-2.03125-5.894531-7.582031-9.855468-13.808593-9.855468h-.113281v-308.84375c13.019531-3.945313 25.589843-9.894532 37.332031-17.832032 11.757812 7.9375 24.324219 13.886719 37.34375 17.832032v308.839843h-.113281c-6.238282 0-11.78125 3.964844-13.8125 9.859375l-18.882813 54.855469c-3.265625 9.484375 3.792969 19.363281 13.816406 19.363281h116.855469c10.027344 0 17.070312-9.886718 13.820312-19.363281l-18.886718-54.855469c-3.496094-10.152344-13.726563-9.789062-13.921875-9.859375v-150.945312c0-8.066407-6.546875-14.613281-14.609375-14.613281-8.070313 0-14.613282 6.546874-14.613282 14.613281v150.945312h-20.4375v-303.464843c.386719.027343 20.050782.027343 20.4375 0v81.75c0 8.070312 6.542969 14.605468 14.613282 14.605468 8.0625 0 14.609375-6.535156 14.609375-14.605468v-87.125c58.609375-17.761719 97.875-71.246094 97.875-131.550782v-369.6875c42.609375-5.472656 64.410156-3.574218 80.4375-26.394531 24.695312-35.183594-5.402344-83.433594-48.257813-75.933594zm-361 967.273438 8.828125-25.652344h58.257813l8.824218 25.652344zm48.175782-358.332031v303.46875h-20.445313v-303.46875c.386719.027343 20.039063.027343 20.445313 0zm172.460937 332.679687 8.824219 25.652344h-75.910156l8.824218-25.652344zm78.964844-662.859375h-124.328125v-48.703125h124.328125zm-458.714844-234.167969c1.667969-9.585937 9.992187-16.121093 19.117187-16.121093 12.664063 0 155.519532 34.804687 352.480469.300781 16.980469-2.960938 29.25 16.207031 19.304688 30.375-2.988281 4.253906-7.457031 7.101562-12.578125 7.988281-39.441406 6.917969-128.382813 15.800781-181.253906 15.800781-57.675782 0-137.445313-8.121093-181.261719-15.785156-10.59375-1.859375-17.679688-11.949219-15.808594-22.558594zm272.78125 64.734375c10.789063.789063 21.5625.726563 32.382813 1.175782v90.34375h-216.191407v-94.152344c109.242188 11.019531 171.464844 1.746094 183.808594 2.632812zm-183.808594 120.730469h216.191407v48.703125h-216.191407zm208.222657 335.9375c21.519531-22.859375 37.191406-59.644531 37.191406-93.980469v-164.046875h124.328125v164.046875c0 84.609375-91.6875 133.863282-161.519531 93.980469zm161.519531-459.300781v94.152344h-124.328125v-88.808594c40.617187.613281 90.742187-1.945313 124.328125-5.34375zm73.152343-39.558594c-37.582031 6.597656-81.761718 9.992188-119.839843 12.234375 4.394531-5.195313 8.199219-11.324219 10.3125-20.410156.453125-1.980469.085937-4.0625.296875-6.089844.390625-3.832031 1.101562-7.621094.570312-11.515625 34.085938-2.464844 68.296875-6.6875 101.933594-12.585938 10.589844-1.859374 20.703125 5.253907 22.558594 15.824219 1.859375 10.609375-5.222656 20.6875-15.832032 22.542969zm0 0"/></svg>