<svg height="1065pt" viewBox="-247 -33 1065 1065.0001" width="1065pt" xmlns="http://www.w3.org/2000/svg"><path d="m228.347656 12.609375c0-8.082031-6.554687-14.628906-14.625-14.628906-8.078125 0-14.625 6.546875-14.625 14.628906 0 49.582031-44.082031 76.78125-92.632812 104.316406-48.554688-27.535156-92.625-54.734375-92.625-104.316406 0-8.082031-6.554688-14.628906-14.625-14.628906-8.078125 0-14.628906 6.546875-14.628906 14.628906 0 59.707031 45.492187 93.480469 92.527343 121.144531-48.921875 28.789063-92.527343 64.839844-92.527343 121.15625 0 59.710938 45.492187 93.476563 92.527343 121.148438-47.035156 27.664062-92.519531 61.445312-92.527343 121.136718v.011719c0 59.707031 45.492187 93.476563 92.527343 121.148438-47.035156 27.667969-92.527343 61.445312-92.527343 121.148437 0 21.085938 6.132812 38.652344 15.542968 54.148438 4.304688 5.054687 13.167969 29.453125 76.984375 66.996094-47.035156 27.667968-92.527343 61.4375-92.527343 121.144531 0 8.082031 6.550781 14.625 14.628906 14.625 8.070312 0 14.625-6.542969 14.625-14.625 0-49.582031 44.070312-76.777344 92.625-104.3125 48.550781 27.535156 92.632812 54.730469 92.632812 104.3125 0 8.082031 6.546875 14.625 14.625 14.625 8.070313 0 14.625-6.542969 14.625-14.625 0-59.707031-45.492187-93.476563-92.535156-121.144531 48.910156-28.773438 92.535156-64.832032 92.535156-121.144532 0-59.703125-45.492187-93.480468-92.535156-121.148437 47.042969-27.667969 92.535156-61.441407 92.535156-121.148438 0-13.15625-2.28125-25.417969-6.300781-36.398437-2.78125-7.59375-11.183594-11.476563-18.773437-8.703125-7.578126 2.78125-11.476563 11.179687-8.703126 18.761719 1.363282 3.6875 1.269532 7.855468 2.011719 11.707031h-181.007812c7.828125-40.429688 47.371093-64.996094 90.835937-89.644531 17.074219 9.679687 34.289063 19.636718 48.785156 30.503906 6.480469 4.855468 15.640626 3.503906 20.472657-2.933594 4.84375-6.457031 3.539062-15.628906-2.929688-20.476562-11.476562-8.601563-24.128906-16.375-36.988281-23.921876 47.054688-27.675781 92.597656-61.460937 92.597656-121.191406 0-21.089844-6.140625-38.648437-15.539062-54.148437-4.308594-5.058594-13.683594-29.761719-76.984375-67.007813 47.03125-27.664062 92.523437-61.4375 92.523437-121.144531zm-35.914062 757.164063h-171.933594c-8.8125-20.027344-8.871094-39.609376-.316406-59.6875h172.574218c8.539063 20.039062 8.5 39.644531-.324218 59.6875zm-85.96875 74.042968c-24.667969-13.996094-47.96875-27.996094-65.113282-44.792968h130.230469c-17.152343 16.796874-40.453125 30.796874-65.117187 44.792968zm65.917968-162.980468h-131.839843c17.214843-17.171876 40.851562-31.429688 65.921875-45.640626 25.066406 14.210938 48.707031 28.46875 65.917968 45.640626zm-65.917968-79.3125c-43.496094-24.667969-83.0625-49.238282-90.890625-89.695313h181.785156c-7.828125 40.457031-47.398437 65.027344-90.894531 89.695313zm86.292968-317.207032h-172.582031c-8.253906-19.386718-8.777343-39.011718.324219-59.6875h171.929688c8.460937 19.214844 9.214843 38.816406.328124 59.6875zm-86.292968 74.910156c-25.074219-14.222656-48.722656-28.484374-65.933594-45.660156h131.871094c-17.214844 17.175782-40.859375 31.4375-65.9375 45.660156zm65.117187-163.847656h-130.226562c17.148437-16.78125 40.449219-30.796875 65.109375-44.777344 24.65625 13.980469 47.964844 27.996094 65.117187 44.777344zm0 0"/><path d="m555.414062 250.226562c-2.429687-56.65625-46.277343-89.5625-92.003906-116.464843 47.035156-27.671875 92.53125-61.445313 92.53125-121.152344 0-8.074219-6.554687-14.628906-14.628906-14.628906-8.078125 0-14.625 6.554687-14.625 14.628906 0 49.582031-44.070312 76.78125-92.628906 104.316406-48.546875-27.535156-92.625-54.734375-92.625-104.316406 0-8.074219-6.554688-14.628906-14.628906-14.628906-8.078126 0-14.625 6.554687-14.625 14.628906 0 59.984375 45.90625 93.808594 93.175781 121.550781-10.992188 6.445313-22.277344 12.582032-32.332031 19.746094-11.585938 8.25-5.695313 26.535156 8.496093 26.535156 8.210938 0 3.699219-2.109375 52.570313-29.832031 42.300781 23.992187 81.167968 47.75 90.460937 86.257813h-179.394531c1.03125-4.234376.871094-8.890626 2.664062-12.914063 3.289063-7.378906-.023437-16.027344-7.402343-19.316406-7.378907-3.292969-16.019531.027343-19.308594 7.402343-5.328125 11.921876-7.925781 24.878907-8.472656 38.351563-.035157.417969-.457031.667969-.457031 1.101563 0 .269531.265624.417968.277343.671874-1.46875 59.644532 40.675781 93.550782 92.25 123.894532-47.042969 27.675781-92.527343 61.445312-92.527343 121.148437 0 59.707031 45.484374 93.476563 92.527343 121.148438-50.335937 29.609375-92.527343 63.480469-92.527343 121.148437 0 59.699219 45.484374 93.476563 92.527343 121.144532-47.042969 27.667968-92.527343 61.4375-92.527343 121.144531 0 8.082031 6.546874 14.625 14.625 14.625 8.074218 0 14.628906-6.542969 14.628906-14.625 0-49.582031 44.078125-76.777344 92.625-104.3125 48.558594 27.535156 92.628906 54.730469 92.628906 104.3125 0 8.082031 6.546875 14.625 14.625 14.625 8.074219 0 14.628906-6.542969 14.628906-14.625 0-59.707031-45.496094-93.476563-92.53125-121.144531 49.667969-29.214844 93.234375-63.429688 92.457032-121.820313-.363282-59.261719-45.605469-92.90625-92.457032-120.472656 47.035156-27.667969 92.53125-61.441407 92.53125-121.148438 0-59.703125-45.496094-93.472656-92.53125-121.148437 53.0625-31.210938 92.53125-63.605469 92.53125-124.566406 0-.492188-.484375-.785157-.527344-1.265626zm-35.222656 276.824219h-172.261718c-8.6875-20.050781-8.6875-39.632812 0-59.699219h172.257812c8.679688 20.042969 8.691406 39.632813.003906 59.699219zm-86.132812 316.765625c-43.664063-24.761718-83.332032-49.441406-90.949219-90.179687h181.902344c-7.617188 40.738281-47.289063 65.417969-90.953125 90.179687zm90.832031-119.429687h-181.664063c8.046876-40.167969 47.503907-64.625 90.832032-89.191407 43.324218 24.566407 82.78125 49.023438 90.832031 89.191407zm-90.832031-122.863281c-24.867188-14.097657-48.347656-28.246094-65.519532-45.222657h131.050782c-17.183594 16.976563-40.660156 31.113281-65.53125 45.222657zm65.511718-163.421876h-131.019531c17.179688-16.976562 40.644531-31.101562 65.507813-45.207031 24.863281 14.105469 48.332031 28.242188 65.511718 45.207031zm-65.511718-78.875c-44.675782-25.339843-85.066406-50.640624-91.292969-93.109374h182.597656c-6.246093 42.46875-46.625 67.769531-91.304687 93.109374zm0 0"/></svg>