<svg height="1065pt" viewBox="-33 -53 1065.0001 1065" width="1065pt" xmlns="http://www.w3.org/2000/svg"><path d="m755.105469 267.527344v-124.863282c0-80.488281-65.480469-145.96875-145.964844-145.96875h-223.878906c-80.484375 0-145.964844 65.480469-145.964844 145.96875v124.871094c-135.574219 15.179688-241.316406 130.488282-241.316406 270.039063v347.109375c0 38.820312 31.574219 70.398437 70.394531 70.398437h857.65625c38.816406 0 70.386719-31.578125 70.386719-70.398437v-347.109375c0-139.550781-105.738281-254.859375-241.3125-270.046875zm-486.554688-124.863282c0-64.351562 52.355469-116.71875 116.710938-116.71875h223.878906c64.351563 0 116.714844 52.367188 116.714844 116.71875v123.164063c-5.457031-.023437-30.871094-.003906-43.632813-.019531v-123.144532c0-40.296874-32.789062-73.085937-73.082031-73.085937h-223.878906c-40.292969 0-73.082031 32.789063-73.082031 73.085937v64.003907c0 8.085937 6.554687 14.625 14.625 14.625 8.082031 0 14.625-6.539063 14.625-14.625v-64.003907c0-24.160156 19.667968-43.835937 43.832031-43.835937h223.878906c24.171875 0 43.828125 19.675781 43.828125 43.835937v123.144532c-38.976562.015625-379.472656-.003906-384.417969.019531zm-202.75 783.03125c-21.257812-1.589843-38.566406-19.363281-38.566406-41.570312v-57.085938h151.03125c8.074219 0 14.625-6.554687 14.625-14.625 0-8.078124-6.550781-14.632812-14.625-14.632812h-151.03125v-260.207031c0-133.714844 108.789063-242.515625 242.511719-242.515625h454.914062c133.429688 0 242.507813 108.550781 242.507813 242.515625v260.207031h-716.820313c-8.066406 0-14.625 6.554688-14.625 14.632812 0 8.070313 6.558594 14.625 14.625 14.625h716.820313c-.023438 62.414063.0625 57.175782-.128907 60.21875-1.644531 21.953126-20.136718 38.265626-40.445312 38.546876-.414062.007812-856.996094.128906-860.792969-.109376zm0 0"/><path d="m342.566406 636.945312h82.878906v82.886719c0 8.074219 6.546876 14.625 14.625 14.625h114.261719c8.074219 0 14.625-6.550781 14.625-14.625v-82.886719h82.878907c8.082031 0 14.625-6.546874 14.625-14.625v-114.253906c0-8.078125-6.542969-14.625-14.625-14.625h-82.878907v-82.886718c0-8.074219-6.550781-14.625-14.625-14.625h-114.261719c-8.078124 0-14.625 6.550781-14.625 14.625v82.886718h-82.878906c-8.078125 0-14.625 6.546875-14.625 14.625v114.253906c0 8.078126 6.546875 14.625 14.625 14.625zm14.628906-114.253906h82.875c8.082032 0 14.625-6.550781 14.625-14.625v-82.886718h85.011719v82.886718c0 8.074219 6.546875 14.625 14.625 14.625h82.878907v85.003906h-82.878907c-8.078125 0-14.625 6.550782-14.625 14.625v82.882813h-85.011719v-82.882813c0-8.074218-6.542968-14.625-14.625-14.625h-82.875zm0 0"/></svg>