<svg height="1063pt" viewBox="-249 -33 1063 1063.7504" width="1063pt" xmlns="http://www.w3.org/2000/svg"><path d="m548.796875 830.191406-41.722656-171.210937c-20.667969-84.832031-97.679688-135.929688-171.9375-136.847657v-55.816406c32.617187-17.328125 57.5625-46.527344 69.28125-82.09375h2.203125c37.625 0 69.460937-28.179687 74.039062-65.546875 4.417969-36.042969 7.320313-68.578125 8.835938-99.464843.40625-8.136719-5.863282-15.058594-14-15.460938-8.15625-.402344-15.058594 5.867188-15.46875 14.007812-1.484375 30.152344-4.3125 61.992188-8.652344 97.332032-2.597656 21.128906-19.777344 36.847656-40.574219 38.855468 3.078125-30.222656.3125 18.460938 1.464844-126.308593 0-1.996094-1.398437-3.386719-2.128906-5.132813-.738281-1.777344-.832031-3.871094-2.160157-5.222656-1.320312-1.335938-3.402343-1.433594-5.152343-2.191406-1.75-.757813-3.140625-2.179688-5.164063-2.203125-99.992187-.980469-168.203125-51.917969-168.863281-52.410157-5.941406-4.550781-14.332031-3.929687-19.539063 1.425782-.339843.34375-34.058593 34.714844-76.335937 52.101562-.984375.402344-1.246094 1.496094-2.089844 2.078125-3.105469 2.058594-5.1875 5.148438-5.914062 8.835938-.214844.996093-1.140625 1.660156-1.140625 2.71875v111.792969c0 5.234374 1.003906 10.203124 1.554687 15.289062h-3.542969c-22.398437 0-41.589843-16.726562-44.660156-38.921875-7.058594-50.972656-10.363281-96.765625-10.117187-139.996094.566406-101.019531 101.5625-175.199219 198.5-138.914062 17.453125 6.53125 32.375 16.023437 44.351562 28.191406 5.945313 6.042969 15.632813 5.800781 21.304688-.28125l1.160156-1.230469c19.972656-21.035156 49.445313-28.207031 76.917969-18.714844 27.546875 9.496094 46.371094 33.398438 49.117187 62.359376.414063 4.359374.785157 7.957031 1.101563 11.117187 1.246094 12.160156 1.757812 17.1875 1.753906 34.671875-.003906 8.144531 6.601562 14.757812 14.746094 14.761719h.007812c8.140625 0 14.753906-6.601563 14.753906-14.746094.003907-18.996094-.625-25.242187-1.894531-37.683594-.320312-3.105469-.6875-6.644531-1.085937-10.917969-3.871094-40.621093-30.25-74.128906-68.871094-87.460937-34.492188-11.914063-71.246094-5.101563-98.667969 17.625-12.835937-10.601563-27.699219-19.09375-44.355469-25.324219-116.574218-43.660156-237.65625 45.316406-238.339843 166.367188-.265625 44.664062 3.136719 91.839844 10.390625 144.210937 5.070312 36.71875 36.84375 64.390625 73.890625 64.390625h9.832031c11.734375 35.566406 36.671875 64.757813 69.292969 82.09375v55.816406c-76.800781.949219-151.664063 53.617188-171.941407 136.839844l-6.457031 26.5c-1.929687 7.914063 2.921875 15.894532 10.839844 17.828125 7.917969 1.925781 15.894531-2.921875 17.828125-10.84375l6.453125-26.5c8.980469-36.855469 31.253906-67.234375 60.707031-87.546875l-21.753906 68.285156c-3.714844 11.675782 7.640625 22.546876 19.136719 18.339844l43.765625-16.03125 96.230468 164.210938v152.257812c-70.445312-2.253906-140.9375-23.277344-212.375-64.46875-22.1875-12.796875-33.464843-39.042968-27.421874-63.835937l18.160156-74.558594c1.929687-7.914063-2.925782-15.894531-10.832032-17.828125-7.925781-1.933594-15.898437 2.925781-17.828124 10.84375l-18.167969 74.550781c-9.125 37.460938 7.878906 77.097657 41.347656 96.390625 158.789063 91.542969 319.96875 91.601563 478.832031 0 33.472656-19.292968 50.472656-58.929687 41.355469-96.375zm-141.671875-203.210937-27.078125-9.925781c-6.703125-2.445313-14.199219.246093-17.796875 6.398437l-28.714844 49 39.8125-114.804687c4.390625 1.230468 8.757813 2.460937 12.992188 4.066406zm-101.503906-100.835938c-25.789063 8.832031-50.585938 8.863281-75.199219.128907v-41.5c24.308594 7.441406 50.902344 7.441406 75.199219 0zm-35.664063 43.003907 50.042969 52.238281-49.878906 143.839843-52.535156-143.777343zm73.921875-16.589844-13.007812 37.515625-30.265625-31.582031c7.261719-1.730469 14.542969-4 21.835937-6.863282h10.429688c3.746094 0 7.324218.65625 11.007812.929688zm-190.585937-213.140625v-102.609375c30.230469-14.257813 55.359375-34.289063 68.035156-45.726563 22.761719 14.566407 81.757813 45.363281 161.433594 49.828125v98.507813c0 63.265625-51.476563 114.742187-114.738281 114.742187-63.261719 0-114.730469-51.476562-114.730469-114.742187zm49.882812 212.210937h10.367188c8.039062 3.285156 16.097656 6.140625 24.25 7.933594l-31.367188 31.324219-14.015625-38.347657c3.601563-.265624 7.101563-.910156 10.765625-.910156zm-42.257812 65.425782-27.074219 9.925781 21.472656-67.421875c2.453125-.824219 5.039063-1.25 7.53125-1.9375l37.601563 102.921875-21.730469-37.089844c-3.601562-6.152344-11.09375-8.847656-17.800781-6.398437zm331.792969 283.957031c-69.785157 40.226562-138.65625 61.015625-207.46875 64.117187v-151.914062l96.230468-164.199219 43.765625 16.019531c11.503907 4.21875 22.851563-6.664062 19.136719-18.324218l-20.441406-64.171876c26.40625 20.222657 46.121094 49.132813 54.472656 83.421876l41.722656 171.210937c6.03125 24.789063-5.238281 51.035156-27.417968 63.839844zm0 0"/></svg>