<svg height="1063pt" viewBox="-231 -33 1063 1063.7458" width="1063pt" xmlns="http://www.w3.org/2000/svg"><path d="m78.847656 681.496094c15.203125 32.910156 60.699219 36.507812 80.847656 6.277344l25.871094-38.808594c184.679688-52.808594 217.617188-196.449219 163.832032-384.070313-1.871094-6.511719 2.652343-17.3125 17.289062-8.109375.28125.175782.742188.519532 1.378906 1.140625 97.566406 96.441407 72.296875 233.757813-79.515625 432.152344-4.75 6.203125-3.773437 15.046875 2.210938 20.066406 5.996093 5.039063 14.859375 4.4375 20.140625-1.296875 118.328125-128.65625 222.511718-293.070312 165.914062-458.613281-27.40625-80.175781-102.753906-122.410156-187.761718-122.410156-8.074219.035156-14.582032 6.597656-14.566407 14.660156.035157 8.054687 6.570313 14.5625 14.613281 14.5625 28.324219.851563 51.546876 3.820313 81.382813 16.699219 90.574219 39.082031 107.777344 156.03125 82.464844 251.324218 9.304687-73.347656-12.269531-136.457031-64.351563-187.929687-11.824218-11.671875-32.628906-18.128906-49.628906-8.621094-15.179688 8.484375-22.597656 27.167969-17.65625 44.425781 61.996094 216.269532-10.292969 311.65625-148.71875 349.304688-9.191406 2.5-9.253906 9.300781-37.210938 49.316406-4.160156 6.25-11.808593 9.070313-19.03125 7.035156-10.214843-2.878906-15.429687-14.140624-11.003906-23.800781 17.332032-37.824219 46.617188-86.738281 34.207032-191.425781l76.457031 53.683594c19.613281 13.996094 46.628906 10.683594 61.488281-7.542969 15.953125-19.566406 12.753906-53.066406-9.691406-68.84375l-30.671875-21.300781c-44.539063-32.164063-70.46875-83.558594-69.355469-137.488282.964844-46.589843 13.828125-87.015624 57.195312-110.808593 7.070313-3.878907 9.664063-12.765625 5.777344-19.832031-3.882812-7.078126-12.761718-9.671876-19.832031-5.785157-35.117187 19.273438-59.722656 52.601563-67.527344 91.460938-17.671875 88.027343 15.863281 162.328125 76.75 206.226562 2.523438 1.78125-8.738281-6.078125 30.878907 21.441407 8.289062 6.0625 9.226562 19.84375 3.828124 26.472656-5.070312 6.210937-14.875 7.210937-21.957031 2.152344l-81.867187-57.472657c-18.679688-13.335937-44.3125 2.128907-41.273438 24.898438 20.390625 152.683593-53.257812 172.523437-30.90625 220.859375zm0 0"/><path d="m329.777344 822.773438c-.195313.066406-13.007813-1.015626-15.730469 11.496093l-49.613281 69.378907c-47.570313 66.527343-118.296875 62.226562-118.546875 62.292968-77.222657 0-137.691407-68.238281-127.261719-150.507812 6.640625-52.335938 5.410156-108.828125-3.660156-167.894532-1.226563-7.96875-8.699219-13.445312-16.65625-12.214843-7.980469 1.226562-13.453125 8.675781-12.226563 16.652343 8.660157 56.382813 9.859375 110.140626 3.5625 159.789063-7.308593 57.519531 14.152344 112.863281 57.375 148.035156 28.839844 23.464844 62.101563 35.355469 98.867188 35.355469h.128906c55.691406-.046875 108.855469-27.894531 142.183594-74.515625l53.460937-74.761719c6.898438-9.644531-.003906-23.105468-11.882812-23.105468zm0 0"/><path d="m551.386719 146.871094c-49.988281-110.390625-169.867188-170.144532-284.996094-142.09375-64.832031 15.789062-115.546875 49.03125-156.078125 94.546875-27.878906 31.289062-63.140625 48.578125-104.808594 51.390625-8.050781.550781-14.136718 7.507812-13.59375 15.554687.550782 8.054688 7.546875 14.097657 15.5625 13.597657 48.871094-3.292969 91.976563-24.421876 124.65625-61.117188 124.105469-139.355469 323.125-113.335938 392.644532 40.175781 122.917968 271.472657-148.710938 581.90625-158.902344 602.875-6.960938 9.722657.132812 23.105469 11.875 23.105469 4.550781 0 9.039062-2.132812 11.894531-6.113281 62.894531-87.984375 59.554687-83.277344 59.914063-83.828125 108.574218-167.792969 184.289062-365.996094 101.832031-548.09375zm0 0"/></svg>