<svg height="1065pt" viewBox="-33 -199 1065.0001 1065" width="1065pt" xmlns="http://www.w3.org/2000/svg"><path d="m699.191406 451.78125c0 55.460938 45.128906 100.585938 100.597656 100.585938 55.460938 0 100.589844-45.125 100.589844-100.585938 0-55.476562-45.128906-100.597656-100.589844-100.597656-55.46875 0-100.597656 45.121094-100.597656 100.597656zm171.9375 0c0 39.332031-32 71.335938-71.339844 71.335938-39.339843 0-71.34375-32.003907-71.34375-71.335938 0-39.335938 32.003907-71.347656 71.34375-71.347656 39.339844 0 71.339844 32.011718 71.339844 71.347656zm0 0"/><path d="m762.433594 63.589844h-62.449219c-20.949219 0-38.003906 17.046875-38.003906 38.007812v5.851563c0 20.953125 17.054687 38 38.003906 38h62.449219c20.953125 0 38.003906-17.046875 38.003906-38v-5.851563c0-20.960937-17.050781-38.007812-38.003906-38.007812zm8.753906 43.859375c0 4.824219-3.933594 8.75-8.753906 8.75h-62.449219c-4.820313 0-8.75-3.925781-8.75-8.75v-5.851563c0-4.824218 3.929687-8.753906 8.75-8.753906h62.449219c4.828125 0 8.753906 3.929688 8.753906 8.753906zm0 0"/><path d="m661.980469 201.050781c0 20.953125 17.054687 38 38.003906 38h62.449219c20.953125 0 38.003906-17.046875 38.003906-38v-5.851562c0-20.960938-17.050781-38-38.003906-38h-62.449219c-20.949219 0-38.003906 17.039062-38.003906 38zm29.253906-5.851562c0-4.820313 3.929687-8.75 8.75-8.75h62.449219c4.820312 0 8.753906 3.929687 8.753906 8.75v5.851562c0 4.824219-3.933594 8.75-8.753906 8.75h-62.449219c-4.824219 0-8.75-3.925781-8.75-8.75zm0 0"/><path d="m661.980469 294.652344c0 20.960937 17.054687 38 38.003906 38h62.449219c20.953125 0 38.003906-17.039063 38.003906-38v-5.851563c0-20.953125-17.050781-38-38.003906-38h-62.449219c-20.949219 0-38.003906 17.046875-38.003906 38zm29.253906-5.851563c0-4.820312 3.929687-8.75 8.75-8.75h62.449219c4.820312 0 8.753906 3.929688 8.753906 8.75v5.851563c0 4.828125-3.933594 8.75-8.753906 8.75h-62.449219c-4.824219 0-8.75-3.921875-8.75-8.75zm0 0"/><path d="m901.21875 332.652344c20.058594 0 36.371094-16.3125 36.371094-36.375v-196.300782c0-20.0625-16.3125-36.386718-36.371094-36.386718h-46.203125c-20.054687 0-36.371094 16.324218-36.371094 36.386718v196.300782c0 20.0625 16.316407 36.375 36.371094 36.375zm-53.332031-36.375v-196.300782c0-3.933593 3.195312-7.132812 7.128906-7.132812h46.195313c3.925781 0 7.128906 3.199219 7.128906 7.132812v196.300782c0 3.933594-3.203125 7.125-7.128906 7.125h-46.195313c-3.933594 0-7.128906-3.195313-7.128906-7.125zm0 0"/><path d="m547.257812 140.253906c8.074219 0 14.625-6.546875 14.625-14.625 0-8.085937-6.550781-14.625-14.625-14.625h-50.058593c-8.078125 0-14.625 6.539063-14.625 14.625 0 8.078125 6.546875 14.625 14.625 14.625zm0 0"/><path d="m131.867188 111.003906h-1.34375c-8.074219 0-14.625 6.539063-14.625 14.625 0 8.078125 6.550781 14.625 14.625 14.625h1.34375c8.082031 0 14.625-6.546875 14.625-14.625 0-8.085937-6.542969-14.625-14.625-14.625zm0 0"/><path d="m453.328125 339.714844-24.574219-111.050782c-3.429687-15.507812-25.816406-15.085937-28.664062.539063l-17.636719 96.480469h-31.644531l-22.214844-137.277344c-2.578125-15.988281-25.484375-16.402344-28.765625-.632812l-33.097656 159.625-29.0625-89.742188c-4.089844-12.628906-21.636719-13.710938-27.195313-1.605469l-36.324218 78.96875h-29.125c-8.070313 0-14.625 6.546875-14.625 14.625 0 8.082031 6.554687 14.625 14.625 14.625h38.492187c5.710937 0 10.902344-3.316406 13.285156-8.511719l24.578125-53.445312 34.535156 106.664062c4.601563 14.207032 25.195313 13.128907 28.234376-1.542968l28.226562-136.105469 11.542969 71.320313c1.152343 7.089843 7.269531 12.285156 14.445312 12.285156h56.273438c7.066406 0 13.117187-5.039063 14.386719-11.984375l6.816406-37.269531 18.171875 82.121093c3.003906 13.570313 21.566406 15.664063 27.511719 3.085938l18.195312-38.574219h47.890625c8.082031 0 14.625-6.539062 14.625-14.625 0-8.082031-6.542969-14.625-14.625-14.625h-57.152344c-12.730469 0-14.5625 12.917969-17.128906 16.652344zm0 0"/><path d="m949.160156-12.449219h-294.488281c-8.082031 0-14.625 6.546875-14.625 14.625 0 8.082031 6.542969 14.625 14.625 14.625h294.488281c9.9375 0 18.007813 8.082031 18.007813 18.007813v525.578125c0 9.933593-8.082031 18.003906-18.007813 18.003906h-903.917968c-9.933594 0-18.007813-8.070313-18.007813-18.003906v-525.578125c0-9.929688 8.078125-18.007813 18.007813-18.007813h545.5625c8.082031 0 14.625-6.542969 14.625-14.625 0-8.078125-6.542969-14.625-14.625-14.625h-545.5625c-26.058594 0-47.261719 21.203125-47.261719 47.257813v525.578125c0 26.058593 21.203125 47.261719 47.261719 47.261719h60.96875v32.144531c0 8.078125 6.546874 14.625 14.628906 14.625h175.503906c8.082031 0 14.625-6.546875 14.625-14.625v-32.144531h372.464844v32.144531c0 8.078125 6.542968 14.625 14.625 14.625h175.507812c8.078125 0 14.625-6.546875 14.625-14.625v-32.144531h60.96875c26.058594 0 47.257813-21.203126 47.257813-47.261719v-525.578125c0-26.054688-21.199219-47.257813-47.257813-47.257813zm-667.441406 637.617188h-146.253906v-17.519531h146.253906zm577.222656 0h-146.257812v-17.519531h146.257812zm0 0"/><path d="m79.886719 260.503906c-8.082031 0-14.625 6.546875-14.625 14.625v241.859375c0 8.074219 6.542969 14.625 14.625 14.625h512.867187c8.082032 0 14.625-6.550781 14.625-14.625v-438.769531c0-8.074219-6.542968-14.628906-14.625-14.628906h-512.867187c-8.082031 0-14.625 6.554687-14.625 14.628906v130.605469c0 8.082031 6.542969 14.625 14.625 14.625 8.078125 0 14.625-6.542969 14.625-14.625v-115.980469h483.617187v409.515625h-483.617187v-227.230469c0-8.078125-6.546875-14.625-14.625-14.625zm0 0"/></svg>