<svg height="1063pt" viewBox="-33 -149 1063.7496 1063" width="1063pt" xmlns="http://www.w3.org/2000/svg"><path d="m986.128906 430.039062c-76.808594-31.207031-165.921875 20.050782-215.3125 56.21875 23.238282-75.199218 22.039063-154.058593-.019531-225.429687 61.402344 45.03125 144.835937 84.929687 215.332031 56.300781 7.476563-3.039062 11.078125-11.554687 8.035156-19.035156-3.035156-7.476562-11.554687-11.078125-19.027343-8.035156-93.414063 37.921875-220.757813-79.96875-222.035157-81.164063-1.0625-1-2.535156-.808593-3.78125-1.425781-66.523437-137.191406-211.359374-227.773438-373.699218-215.238281-8.054688.613281-14.066406 7.640625-13.441406 15.6875.613281 8.046875 7.65625 14.070312 15.683593 13.433593 170.929688-13.164062 321.222657 97.886719 366.09375 257.179688-3.472656 4.96875-9.144531 11.964844-17.675781 18.070312-30.757812 21.96875-65.894531 8.707032-99.089844-11-18.648437-41.621093 4.445313-66.703124 5.679688-67.980468 5.675781-5.652344 5.738281-14.835938.121094-20.570313-5.644532-5.761719-14.886719-5.859375-20.65625-.214843-1.316407 1.296874-24.898438 25.488281-21.4375 65.441406-20.363282-12.296875-43.984376-21.058594-91.578126-17.894532-8.050781.53125-14.140624 7.503907-13.605468 15.546876.539062 8.050781 7.488281 14.164062 15.542968 13.597656 64.601563-4.296875 71.082032 14.539062 107.148438 34.882812 49.433594 30.460938 100.773438 43.960938 144.007812 4.089844 10.316407 58.671875 5.433594 77.714844 1.5 107.34375-11.546874 1.597656-44.304687 7.0625-85.492187 23.097656-40.90625 15.929688-76.058594 38.09375-105.664063 64.324219-27.285156-21.796875-22.15625-59.167969-21.847656-61.066406 1.308594-7.933594-4.042968-15.441407-11.984375-16.785157-7.941406-1.34375-15.492187 4.019532-16.839843 11.972657-.40625 2.410156-8.136719 53.472656 29.09375 86.070312-9.796876 10.597657-18.9375 21.648438-26.820313 33.40625-4.496094 6.695313-2.707031 15.769531 3.992187 20.269531 6.695313 4.476563 15.769532 2.714844 20.273438-3.996093 15.640625-23.3125 34.695312-41.671875 54.609375-57.445313-4.5 40.546875 15.84375 73.40625 17.039063 75.269532 4.359374 6.773437 13.355468 8.707031 20.132812 4.375 6.785156-4.328126 8.765625-13.339844 4.46875-20.140626-1.175781-1.855468-27.199219-44.621093-2.0625-86.417968 48.570312-27.414063 95.382812-38.679688 116.855469-42.511719-63.042969 282.882813-424.660157 377.34375-615.25 147.324219 21.351562-7.941406 40.875-27.386719 56.417969-56.707032 5.074218-9.5625-1.84375-21.449218-13.015626-21.449218-6.046874 0-11.203124 3.675781-13.40625 8.90625-14.996093 27.804687-32.957031 43.308594-50.816406 44.011718-24.25-35.46875-36.46875-65.359374-47.59375-105.855468 2.71875.898437 5.46875 1.613281 8.320313 1.613281 27.101562 0 49.0625-42.324219 49.0625-94.535156 0-52.207031-21.960938-94.527344-49.0625-94.527344-2.957031 0-5.820313.707031-8.636719 1.667969 12.570312-46.042969 26.492188-73.03125 48.722656-105.625 40.203125 3.746094 83.601563 84.40625 83.070313 198.417968-.152344 32.960938-3.933594 65.652344-10.933594 94.558594-1.890625 7.839844 2.917969 15.738282 10.769531 17.625 7.835938 1.90625 15.734375-2.90625 17.625-10.757812 7.632813-31.507813 11.589844-65.589844 11.757813-101.289063.273437-58.160156-10.484375-113.574219-30.292969-156.023437-16.835938-36.085938-38.902344-59.074219-63.378906-67.792969 45.453125-55.382813 107.140625-97.617187 179.761718-117.261719 7.789063-2.117187 12.394532-10.140625 10.289063-17.921875-2.109375-7.792969-10.144531-12.386719-17.917969-10.289062-87.0625 23.566406-159.738281 76.84375-209.824218 146.605469-.550782.566406-1.5.558593-1.964844 1.21875-6.136719 8.617187-10.851563 17.953124-16.210938 26.96875-6.972656 11.75-12.636718 17.5-28.089844 57.710937-.648437 1.695313-1.546874 3.28125-2.179687 4.988281-65.019531 49.128906-65.296875 213.425782-.328125 263.140625 56.917969 154.851563 202.695312 251.089844 358.746094 251.089844 151.300781 0 281.96875-88.519531 343.96875-216.300781 1.261718-.625 2.757812-.5 3.835937-1.515625 1.269531-1.195313 128.429688-119.175781 222.023438-81.160157 7.480469 3.042969 15.992187-.558593 19.027343-8.035156 3.042969-7.480468-.558593-15.996094-8.035156-19.027344zm0 0"/><path d="m552.804688 377.144531c30.449218-21.535156 65.925781 12.886719 67.484374 14.429688 2.851563 2.851562 6.582032 4.265625 10.304688 4.265625 12.902344 0 19.566406-15.695313 10.34375-24.933594-18.601562-18.617188-64.480469-46.269531-104.992188-17.617188-6.59375 4.660157-8.160156 13.777344-3.496093 20.367188 4.652343 6.585938 13.773437 8.148438 20.355469 3.488281zm0 0"/><path d="m556.984375 141.375c48.324219 3.375 74.289063 33.59375 75.472656 35 5.128907 6.199219 14.300781 7.078125 20.519531 1.972656 6.226563-5.117187 7.136719-14.328125 2.015626-20.5625-1.386719-1.6875-34.570313-41.273437-95.976563-45.554687-46.808594-3.261719-67.675781-39.085938-68.496094-40.535157-3.914062-7.066406-12.800781-9.628906-19.851562-5.71875-7.058594 3.910157-9.617188 12.800782-5.710938 19.855469 1.152344 2.085938 28.988281 51.144531 92.027344 55.542969zm0 0"/><path d="m400.871094 674.582031c-.496094 8.066407 5.625 14.988281 13.683594 15.484375 5.75.363282 11.28125.527344 16.601562.527344 100.546875 0 125.714844-60.25 126.789062-62.945312 2.984376-7.503907-.648437-16.074219-8.140624-19.058594-7.488282-2.964844-15.964844.601562-18.945313 8.09375-.871094 2.046875-22.386719 49.902344-114.511719 44.222656-8.070312-.519531-14.980468 5.628906-15.476562 13.675781zm0 0"/></svg>