<svg height="1063pt" viewBox="-33 -150 1063.7528 1063" width="1063pt" xmlns="http://www.w3.org/2000/svg"><path d="m597.816406 491.582031c8.074219 0 14.605469-6.542969 14.605469-14.605469v-170.757812c0-8.074219-6.53125-14.609375-14.605469-14.609375h-101.28125c-8.070312 0-14.613281 6.535156-14.613281 14.609375v170.757812c0 8.0625 6.542969 14.605469 14.613281 14.605469zm-86.679687-170.757812h72.070312v141.539062h-72.070312zm0 0"/><path d="m967.359375 682.757812-45.476563 41.257813h-50.246093v-19.574219c0-50.027344-34.441407-74.1875-40.1875-82.359375h58.203125c58.171875 0 105.511718-47.332031 105.511718-105.507812 0-5.867188-3.515624-11.152344-8.902343-13.445313l-15.820313-6.703125c-5.46875-153.113281-130.890625-276.226562-285.3125-276.226562h-18.753906c-7.625-8.949219-18.574219-14.9375-31.214844-14.9375h-84.410156v-18.191407h21.097656c8.074219 0 14.605469-6.546874 14.605469-14.605468v-48.054688c0-8.0625-6.53125-14.609375-14.605469-14.609375h-3.078125v-8.902343c295.605469 20.527343 277.933594 19.476562 281.886719 19.476562 54.710938 0 81.996094-67.441406 41.730469-105.265625-12.320313-11.574219-29.027344-17.550781-45.929688-16.367187l-71.105469 4.957031c-8.050781.554687-14.121093 7.539062-13.558593 15.585937.554687 8.046875 7.511719 14.117188 15.59375 13.550782l71.101562-4.945313c29.507813-2.078125 45.539063 34.34375 23.894531 54.683594-6.40625 6.019531-15.09375 9.097656-23.894531 8.511719l-276.582031-19.25v-24.695313l130.855469-9.105469c8.050781-.558594 14.117187-7.539062 13.554687-15.589844-.566406-8.042968-7.546875-14.136718-15.585937-13.5625l-140.777344 9.8125c-22.195313-36.78125-71.785156-37.023437-94.234375-.214843l-283.5-19.738281c-16.875-1.203126-33.609375 4.789062-45.929688 16.367187-40.058593 37.628906-13.234374 105.265625 41.730469 105.265625 3.953125 0-13.589843 1.039062 278.75-19.261719v8.6875h-3.089843c-8.0625 0-14.609376 6.542969-14.609376 14.609375v48.039063c0 8.074219 6.546876 14.613281 14.609376 14.613281h21.105468v18.199219h-332.027344l-25.84375-75.8125c-2.019531-5.917969-7.582031-9.894531-13.832031-9.894531h-90.570312c-8.683594 0-15.425781 7.527343-14.535157 16.117187l24.714844 237.632813c.773438 7.441406 7.050782 13.101562 14.53125 13.101562h65.859375c5.660157 0 10.820313-3.277344 13.222657-8.398438l33.066406-70.378906h240.582031c9.898437 0 17.953125 8.054688 17.953125 17.957032 1.085938 124.773437-2.644531 135.472656 3.964844 165.3125 1.753906 7.875 9.554687 12.84375 17.425781 11.101562 7.878906-1.753906 12.847656-9.554688 11.101563-17.425781-5.574219-25.164063-2.363282-35.582031-3.269532-158.988281 0-26.007813-21.167968-47.175782-47.175781-47.175782h-249.863281c-5.660156 0-10.816406 3.269532-13.222656 8.394532l-33.0625 70.378906h-43.414063l-21.675781-208.410156h63.917968l25.84375 75.804687c2.011719 5.921875 7.574219 9.902344 13.828126 9.902344h502.855468c6.800782 0 12.328125 5.515625 12.328125 12.328125v26.304687c0 74.539063 46.574219 137.84375 108.710938 164.1875l209.164062 88.699219c-4.652343 37.632812-36.828125 66.871094-75.699219 66.871094h-314.246093c-42.492188 0-82.03125-19.167969-108.476563-52.578125-5.007812-6.328125-14.1875-7.398438-20.519531-2.390625-6.328125 5.007812-7.402344 14.191406-2.390625 20.519531 31.511719 39.808594 78.4375 62.660156 128.976562 63.386719l-13.851562 14.921875c-33.933594 36.546875-25.265625 77.667969-26.59375 87.285156h-48.359375l-47.347656-42.957031c-5.984375-5.421875-15.222657-4.980469-20.640625 1.003906-5.421875 5.972656-4.976563 15.214844 1.007812 20.632812 51.839844 45.390626 51.488282 50.535157 61.34375 50.535157 472.28125-1.398438 450.835938 3.40625 458.769532-3.789063l49.65625-45.039062c5.976562-5.417969 6.425781-14.65625 1-20.636719-5.417969-5.976563-14.648438-6.421875-20.632813-1.007813zm-787.171875-591.671874c-29.425781 1.976562-45.71875-34.171876-23.894531-54.683594 6.324219-5.9375 14.964843-9.121094 23.894531-8.511719l276.582031 19.25v24.695313zm305.796875-44.097657c0-14.765625 12.011719-26.777343 26.785156-26.777343 14.765625 0 26.777344 12.011718 26.777344 26.777343v62.8125h-53.5625zm-17.695313 92.035157h88.949219v18.824218h-88.949219zm35.71875 66.238281v-18.199219h17.523438v18.199219zm172.691407 44.140625h8.429687c133.882813 0 242.917969 103.226562 254.789063 234.066406l-148.945313-63.152344v-92.695312c0-27.019532-21.992187-49.007813-49.019531-49.007813-27.03125 0-49.019531 21.988281-49.019531 49.007813v9.769531c-22.253906-46.023437-14.660156-71.945313-16.234375-87.988281zm73.679687 150.492187c-25.105468-14.941406-25.167968-18.269531-28.222656-21.269531v-51.003906c0-10.914063 8.878906-19.792969 19.796875-19.792969 10.914063 0 19.800781 8.878906 19.800781 19.792969v79.222656c-4.066406-1.957031-7.539062-4.667969-11.375-6.949219zm-169.8125 256.71875 32.058594-34.53125h178.957031l32.0625 34.53125c25.03125 26.957031 17.488281 56.929688 18.777344 67.402344h-280.640625c1.332031-10.847656-6.042969-40.679687 18.785156-67.402344zm0 0"/></svg>