<svg height="1064pt" viewBox="-33 -33 1064 1064.9966" width="1064pt" xmlns="http://www.w3.org/2000/svg"><path d="m928.367188 593.972656-410.050782-410.042968 95.476563-95.46875c39.074219-39.074219 91.03125-60.59375 146.300781-60.59375 182.636719 0 277.058594 222.445312 146.296875 353.203124l-64.984375 64.980469c-9.230469 9.234375-2.570312 24.941407 10.335938 24.941407 10.824218 0 9.09375-5.179688 75.320312-69.257813 44.589844-44.597656 69.152344-103.898437 69.152344-166.972656 0-130.496094-105.605469-236.125-236.121094-236.125-63.074219 0-122.371094 24.554687-166.972656 69.15625l-95.464844 95.472656-96.773438-96.773437c-91.347656-91.347657-239.980468-91.347657-331.328124 0l-2.601563 2.613281c-91.347656 91.34375-91.347656 239.972656 0 331.324219l96.769531 96.769531-94.828125 94.828125c-92.066406 92.0625-92.066406 241.867187 0 333.933594 92.066407 92.0625 241.863281 92.0625 333.933594 0l94.828125-94.828126 96.769531 96.773438c91.351563 91.34375 239.976563 91.34375 331.320313 0l2.613281-2.605469c91.347656-91.347656 91.347656-239.980469.007813-331.328125zm-546.199219 311.320313c-80.671875 80.675781-211.9375 80.675781-292.605469 0-80.675781-80.664063-80.675781-211.929688 0-292.601563l94.824219-94.824218 292.613281 292.597656zm525.535156-.664063-2.613281 2.617188c-79.953125 79.949218-210.046875 79.949218-290 0l-527.476563-527.484375c-79.953125-79.953125-79.953125-210.039063 0-289.992188 1.527344-1.007812 54.816407-62.570312 147.605469-62.570312 52.515625 0 105.023438 19.988281 145 59.964843l527.472656 527.472657c79.964844 79.949219 79.964844 210.039062.011719 289.992187zm0 0"/><path d="m710.875 516.097656-235.683594-235.683594c-5.703125-5.707031-14.960937-5.707031-20.664062 0l-173.660156 173.652344c-5.703126 5.707032-5.703126 14.960938 0 20.660156l39.082031 39.078126c5.703125 5.710937 14.960937 5.710937 20.664062 0 5.707031-5.703126 5.707031-14.953126 0-20.65625l-28.738281-28.753907 152.980469-152.988281 215.027343 215.027344-152.988281 152.980468-137.164062-137.148437c-5.703125-5.714844-14.960938-5.714844-20.667969 0-5.699219 5.703125-5.699219 14.953125 0 20.65625l147.503906 147.488281c5.703125 5.71875 14.960938 5.71875 20.65625 0l173.652344-173.648437c5.703125-5.707031 5.703125-14.960938 0-20.664063zm0 0"/><path d="m189.902344 342.4375c-5.703125-5.714844-14.960938-5.714844-20.660156 0-5.710938 5.703125-5.710938 14.945312 0 20.660156l10.175781 10.183594c5.710937 5.707031 14.964843 5.707031 20.667969 0 5.707031-5.707031 5.707031-14.957031 0-20.660156zm0 0"/><path d="m183.070312 250.855469-10.191406-10.179688c-5.707031-5.71875-14.957031-5.71875-20.660156 0-5.703125 5.703125-5.703125 14.953125 0 20.65625 8.097656 6.984375 11.25 14.472657 20.523438 14.472657 12.894531 0 19.5625-15.71875 10.328124-24.949219zm0 0"/><path d="m271.984375 161.949219-10.191406-10.1875c-5.710938-5.714844-14.960938-5.714844-20.667969 0-5.699219 5.707031-5.699219 14.957031 0 20.65625 8.101562 6.988281 11.253906 14.476562 20.527344 14.476562 12.898437 0 19.5625-15.714843 10.332031-24.945312zm0 0"/><path d="m286.914062 265.792969-10.1875-10.191407c-5.707031-5.703124-14.960937-5.703124-20.667968 0-5.703125 5.707032-5.703125 14.964844 0 20.667969 8.101562 6.976563 11.25 14.464844 20.527344 14.464844 3.730468 0 7.472656-1.425781 10.328124-4.28125 5.710938-5.703125 5.710938-14.953125 0-20.660156zm0 0"/><path d="m363.410156 203.910156c12.902344 0 19.5625-15.707031 10.328125-24.941406l-10.183593-10.191406c-5.710938-5.703125-14.957032-5.703125-20.660157 0-5.707031 5.710937-5.707031 14.957031 0 20.660156 8.09375 6.988281 11.242188 14.472656 20.515625 14.472656zm0 0"/><path d="m642.238281 794.769531c-5.710937-5.710937-14.957031-5.710937-20.660156 0-5.707031 5.707031-5.707031 14.960938 0 20.664063l10.183594 10.179687c5.707031 5.71875 14.957031 5.71875 20.664062 0 5.707031-5.699219 5.707031-14.953125 0-20.65625zm0 0"/><path d="m744.003906 811.789062c-5.71875-5.710937-14.960937-5.710937-20.667968 0-5.703126 5.710938-5.703126 14.953126 0 20.65625l10.1875 10.195313c5.703124 5.703125 14.960937 5.703125 20.664062 0 5.699219-5.714844 5.699219-14.957031 0-20.660156zm0 0"/><path d="m832.910156 722.875c-5.710937-5.703125-14.957031-5.703125-20.660156 0-5.710938 5.710938-5.710938 14.964844 0 20.664062l10.183594 10.195313c5.699218 5.703125 14.957031 5.703125 20.664062 0 5.703125-5.707031 5.703125-14.964844 0-20.667969zm0 0"/><path d="m739.257812 718.136719-10.191406-10.199219c-5.710937-5.699219-14.960937-5.699219-20.667968 0-5.707032 5.707031-5.707032 14.964844 0 20.667969 8.097656 6.980469 11.253906 14.46875 20.523437 14.46875 12.902344 0 19.5625-15.71875 10.335937-24.9375zm0 0"/><path d="m826.085938 631.304688-10.199219-10.183594c-5.699219-5.710938-14.953125-5.710938-20.65625 0-5.707031 5.703125-5.707031 14.960937 0 20.65625 8.097656 6.988281 11.246093 14.472656 20.507812 14.472656 12.910157 0 19.578125-15.710938 10.347657-24.945312zm0 0"/></svg>