<svg height="1066.6666pt" viewBox="-33 -33 1066.6666 1066.6666" width="1066.6666pt" xmlns="http://www.w3.org/2000/svg"><path d="m386.652344 535.421875c8.085937 0 14.648437-6.5625 14.648437-14.648437v-157.558594c0-8.085938-6.5625-14.648438-14.648437-14.648438h-79.429688c-8.089844 0-14.648437 6.5625-14.648437 14.648438v157.558594c0 8.085937 6.558593 14.648437 14.648437 14.648437zm-64.78125-157.558594h50.132812v128.261719h-50.132812zm0 0"/><path d="m458.273438 535.421875h79.425781c8.082031 0 14.648437-6.5625 14.648437-14.648437v-157.558594c0-8.085938-6.566406-14.648438-14.648437-14.648438h-79.425781c-8.097657 0-14.648438 6.5625-14.648438 14.648438v157.558594c0 8.085937 6.550781 14.648437 14.648438 14.648437zm14.648437-157.558594h50.128906v128.261719h-50.128906zm0 0"/><path d="m183.34375 762.265625c8.085938 0 14.648438-6.546875 14.648438-14.648437v-157.542969c0-8.097657-6.5625-14.648438-14.648438-14.648438h-79.433594c-8.085937 0-14.648437 6.550781-14.648437 14.648438v157.542969c0 8.101562 6.5625 14.648437 14.648437 14.648437zm-64.785156-157.542969h50.136718v128.246094h-50.136718zm0 0"/><path d="m812.617188 762.265625h79.429687c8.085937 0 14.648437-6.546875 14.648437-14.648437v-157.542969c0-8.097657-6.5625-14.648438-14.648437-14.648438h-79.429687c-8.089844 0-14.648438 6.550781-14.648438 14.648438v157.542969c0 8.101562 6.558594 14.648437 14.648438 14.648437zm14.648437-157.542969h50.132813v128.246094h-50.132813zm0 0"/><path d="m609.308594 535.421875h79.433594c8.085937 0 14.648437-6.5625 14.648437-14.648437v-157.558594c0-8.085938-6.5625-14.648438-14.648437-14.648438h-79.433594c-8.085938 0-14.648438 6.5625-14.648438 14.648438v157.558594c0 8.085937 6.5625 14.648437 14.648438 14.648437zm14.648437-157.558594h50.136719v128.261719h-50.136719zm0 0"/><path d="m483.332031 154.390625c0 8.089844 6.5625 14.648437 14.648438 14.648437 8.085937 0 14.648437-6.558593 14.648437-14.648437v-30.273437h30.273438c8.085937 0 14.648437-6.558594 14.648437-14.648438s-6.5625-14.648438-14.648437-14.648438h-30.273438v-30.273437c0-8.089844-6.5625-14.648437-14.648437-14.648437-8.085938 0-14.648438 6.558593-14.648438 14.648437v30.273437h-30.273437c-8.085938 0-14.648438 6.558594-14.648438 14.648438s6.5625 14.648438 14.648438 14.648438h30.273437zm0 0"/><path d="m983.332031 424.394531c8.085938 0 14.648438-6.5625 14.648438-14.648437v-52.734375c0-8.085938-6.5625-14.648438-14.648438-14.648438h-88.867187c-8.085938 0-14.648438 6.5625-14.648438 14.648438 0 8.085937 6.5625 14.648437 14.648438 14.648437h74.21875v23.4375c-24.78125 0-200.996094 0-211.542969 0v-23.4375h64.398437c8.101563 0 14.648438-6.5625 14.648438-14.648437 0-8.085938-6.546875-14.648438-14.648438-14.648438h-64.398437v-68.675781h22.484375c8.09375 0 14.648438-6.546875 14.648438-14.648438v-52.734374c0-8.082032-6.554688-14.648438-14.648438-14.648438h-130.667969v-179.027344c0-8.085937-6.554687-14.648437-14.648437-14.648437h-272.65625c-8.09375 0-14.648438 6.5625-14.648438 14.648437v179.042969h-130.671875c-8.09375 0-14.648437 6.550781-14.648437 14.648437v52.71875c0 8.101563 6.554687 14.648438 14.648437 14.648438h22.488281v68.675781h-226.191406c-8.085937 0-14.648437 6.5625-14.648437 14.648438v52.734375c0 8.085937 6.5625 14.648437 14.648437 14.648437h6.507813v96.378907c0 8.085937 6.558593 14.648437 14.648437 14.648437s14.648438-6.5625 14.648438-14.648437v-96.378907h190.386718v488.917969h-190.386718v-319.8125c0-8.09375-6.558594-14.648438-14.648438-14.648438s-14.648437 6.554688-14.648437 14.648438v319.800781h-6.507813c-8.085937 0-14.648437 6.558594-14.648437 14.648438v55.382812c0 8.085938 6.5625 14.648438 14.648437 14.648438h970.703125c8.085938 0 14.648438-6.5625 14.648438-14.648438v-55.382812c0-8.089844-6.5625-14.648438-14.648438-14.648438h-6.503906v-488.90625zm-752.351562-203.425781h227.65625c8.085937 0 14.648437-6.5625 14.648437-14.648438 0-8.097656-6.5625-14.648437-14.648437-14.648437h-82.335938v-164.394531h243.359375v164.394531h-78.0625c-8.089844 0-14.648437 6.550781-14.648437 14.648437 0 8.085938 6.558593 14.648438 14.648437 14.648438h223.378906v23.421875h-533.996093zm-203.703125 150.691406h211.542968v23.4375h-211.542968zm240.839844-97.972656h459.726562v639.613281h-84.355469v-231.726562c0-8.085938-6.5625-14.648438-14.648437-14.648438h-261.71875c-8.085938 0-14.648438 6.5625-14.648438 14.648438v231.726562h-84.355468zm113.652343 639.613281v-217.078125h101.5625v217.078125zm130.859375-217.078125h101.5625v217.078125h-101.5625zm456.054688 272.460938h-941.40625v-26.085938h941.40625zm-21.152344-55.382813h-190.390625v-488.90625h190.375v488.90625zm0 0"/></svg>