<svg height="1065pt" viewBox="-155 -33 1065 1065.0001" width="1065pt" xmlns="http://www.w3.org/2000/svg"><path d="m745.222656 293.824219c3.910156-39.589844-27.214844-74.078125-67.128906-74.078125h-199.089844v-33.132813c0-8.070312-6.550781-14.625-14.625-14.625-8.085937 0-14.625 6.554688-14.625 14.625v33.132813h-199.101562c-39.933594 0-71.039063 34.515625-67.136719 74.078125 1.496094 15.167969 15.378906 155.804687 17.8125 180.457031.796875 8.039062 7.953125 13.898438 15.988281 13.117188 8.035156-.792969 13.910156-7.941407 13.121094-15.984376l-4.597656-46.539062h477.066406l-3.941406 39.851562h-102.242188c-8.082031 0-14.625 6.546876-14.625 14.625 0 8.074219 6.542969 14.625 14.625 14.625h99.359375l-3.9375 39.851563h-36c-8.074219 0-14.625 6.546875-14.625 14.625 0 8.082031 6.550781 14.625 14.625 14.625h33.109375l-3.925781 39.855469h-88.605469c-8.082031 0-14.625 6.542968-14.625 14.625 0 8.070312 6.542969 14.625 14.625 14.625h85.714844l-5.898438 59.851562c-2.449218 24.730469-14.613281 57.605469-91.820312 57.605469h-240.691406c-77.210938 0-89.386719-32.875-91.824219-57.605469l-16.257813-164.820312c-.792968-8.035156-7.96875-13.902344-15.988281-13.121094-8.046875.789062-13.917969 7.957031-13.128906 15.992188l16.269531 164.835937c3.503906 35.566406 24.546875 77.476563 102.105469 83.265625v25.554688c0 31.296874 25.460937 56.757812 56.753906 56.757812h67.796875v121.292969c0 8.074219 6.539063 14.625 14.625 14.625 8.074219 0 14.625-6.550781 14.625-14.625v-121.292969h67.78125c31.296875 0 56.753906-25.460938 56.753906-56.757812v-25.554688c77.570313-5.789062 98.597657-47.699219 102.113282-83.265625 22.292968-225.90625 16.171875-163.96875 39.570312-401.097656zm-170.933594 509.917969c0 15.167968-12.332031 27.507812-27.503906 27.507812h-164.828125c-15.167969 0-27.5-12.339844-27.5-27.507812v-24.851563h219.832031zm-351.335937-408.121094-10.332031-104.667969c-2.195313-22.332031 15.25-41.957031 38.03125-41.957031h427.441406c22.429688 0 40.257812 19.28125 38.027344 41.957031l-3.515625 35.570313h-56.460938c-8.074219 0-14.625 6.554687-14.625 14.625 0 8.082031 6.550781 14.625 14.625 14.625h53.578125l-3.933594 39.847656zm0 0"/><path d="m445.019531 145.34375v-1.902344c0-11.804687 10.75-21.539062 23.566407-18.917968 8.773437 1.800781 15.140624 9.90625 15.140624 19.410156 0 29.519531 26.921876 52.171875 56.796876 46.15625 21.695312-4.382813 37.460937-23.914063 37.460937-46.4375v-.210938c0-57.695312-43.234375-105.4375-98.980469-112.644531v-18.1875c0-8.074219-6.550781-14.628906-14.625-14.628906-8.085937 0-14.625 6.554687-14.625 14.628906v18.167969c-39.613281 5.097656-73.664062 30.59375-89.613281 67.445312h-219.589844c-82.851562 0-150.265625 67.402344-150.265625 150.261719v189.238281c0 8.074219 6.542969 14.625 14.625 14.625 8.085938 0 14.625-6.550781 14.625-14.625v-189.238281c0-66.71875 54.285156-121.003906 121.015625-121.003906h229.671875c6.332032 0 11.949219-4.074219 13.910156-10.101563 11.355469-34.867187 43.601563-58.296875 80.234376-58.296875 46.519531 0 84.367187 37.84375 84.367187 84.359375v.210938c0 8.660156-5.890625 16.128906-14.003906 17.761718-11.867188 2.410157-21.753907-6.507812-21.753907-17.617187 0-41.507813-47.695312-63.8125-79.296874-38.023437-19.71875 16.089843-17.78125 39-17.910157 39.585937 0 9.851563-8.023437 17.867187-17.875 17.867187h-257.34375c-47.015625 0-85.253906 38.246094-85.253906 85.257813v718.683594h-35.761719v-474.84375c0-8.070313-6.539062-14.625-14.625-14.625-8.082031 0-14.625 6.554687-14.625 14.625v489.46875c0 8.074219 6.542969 14.625 14.625 14.625h65.011719c8.070313 0 14.625-6.550781 14.625-14.625v-733.308594c0-30.882813 25.117187-56.007813 56.003906-56.007813h257.34375c25.988281 0 47.125-21.132812 47.125-47.132812zm0 0"/></svg>