<svg height="1064pt" viewBox="-33 -33 1064 1064.582" width="1064pt" xmlns="http://www.w3.org/2000/svg"><path d="m992.03125 211.710938c5.710938-5.714844 5.710938-14.972657 0-20.679688l-188.761719-188.761719c-5.707031-5.71875-14.980469-5.71875-20.675781 0l-26.972656 26.960938c-5.710938 5.710937-5.710938 14.96875 0 20.683593l22.269531 22.277344-22.460937 22.460938c-5.714844 5.710937-5.714844 14.976562 0 20.6875 5.710937 5.71875 14.96875 5.71875 20.679687 0l22.472656-22.472656 102.847657 102.851562-102.847657 102.851562-102.851562-102.851562 28.375-28.371094c5.714843-5.714844 5.714843-14.984375 0-20.6875-5.710938-5.71875-14.96875-5.71875-20.683594 0l-28.382813 28.375c-58.351562-56.371094-57.597656-62.15625-68.214843-62.15625-10.390625 0-12.628907 8.273438-43.519531 37.46875-5.710938 5.714844-5.710938 14.972656 0 20.679688l32.339843 32.347656c-312.65625 312.648438-307.363281 307.085938-308.726562 309.144531-41.347657 45.699219-62.964844 105.753907-60.136719 167.445313l-37.128906 37.121094c-8.5625 8.566406-13.28125 19.949218-13.28125 32.058593 0 20.847657 14.3125 32.941407 14.652344 33.441407l-188.460938 188.472656c-5.722656 5.710937-5.722656 14.96875 0 20.679687 5.714844 5.714844 14.972656 5.714844 20.679688 0l188.476562-188.46875 1.375 1.375c17.714844 17.714844 46.394531 17.730469 64.113281 0l37.148438-37.140625c66.910156 3.0625 130.203125-22.488281 175.902343-68.179687l187.238282-187.242188c5.710937-5.710937 5.710937-14.96875 0-20.683593-5.710938-5.71875-14.980469-5.71875-20.679688 0l-67.695312 67.691406c-12.484375-2.109375-46.917969-13.328125-73.578125-72.949219-23.953125-53.558594-52.996094-77.230469-73.609375-87.6875l11.441406-11.429687 71.417969 71.417968c5.710937 5.710938 14.96875 5.710938 20.679687 0 5.714844-5.714844 5.714844-14.972656 0-20.6875l-71.421875-71.421875 30.722657-30.726562 32.707031 32.71875c5.710937 5.707031 14.976562 5.707031 20.6875 0 5.707031-5.71875 5.707031-14.984375 0-20.695313l-32.714844-32.699218 30.726563-30.730469 32.703124 32.707031c5.710938 5.71875 14.980469 5.71875 20.691407 0 5.714843-5.714844 5.714843-14.972656 0-20.679688l-32.703125-32.707031 39.445312-39.453125 153.914063 153.910156-53.492188 53.5c-5.714843 5.714844-5.714843 14.972657 0 20.679688 5.710938 5.710938 14.980469 5.710938 20.691407 0l53.492187-53.503906c31.152344 29.308594 32.320313 36.636718 42.695313 36.636718 3.734374 0 7.480468-1.433593 10.335937-4.285156 30.445313-32.21875 37.472656-33.226562 37.472656-43.535156 0-10.621094-5.207031-9.261719-62.164062-68.21875l102.847656-102.847656c20.425781 18.785156 22.566406 26.558594 32.625 26.558594 3.738281 0 7.480469-1.421876 10.339844-4.277344zm-746.878906 576.96875c-10.925782 0-13.746094-8.710938-34.816406-28.160157-6.285157-6.289062-6.285157-16.464843 0-22.742187l23.371093-23.382813c8.730469 20.890625 25.3125 37.46875 46.199219 46.195313-21.214844 19.570312-23.835938 28.089844-34.753906 28.089844zm243.691406-290.601563c23.851562 53.347656 54.5 75.378906 76.835938 84.453125l-96.109376 96.113281c-42.308593 42.308594-100.804687 63.902344-160.453124 59.257813-28.347657-2.203125-50.515626-24.378906-52.714844-52.710938-4.050782-51.835937 11.738281-102.777344 43.695312-143.007812 72.226563 70.0625 69.9375 74.765625 80.816406 74.765625 12.917969 0 19.578126-15.730469 10.34375-24.96875l-71.425781-71.425781 30.71875-30.722657c31.382813 29.523438 32.660157 36.992188 43.050781 36.992188 12.917969 0 19.585938-15.734375 10.34375-24.972657l-32.707031-32.699218 30.722657-30.726563c31.378906 29.53125 32.65625 36.996094 43.046874 36.996094 12.917969 0 19.582032-15.738281 10.34375-24.972656l-25.464843-25.460938c15.019531 7.9375 38.382812 27.085938 58.957031 73.089844zm344.765625-98.105469-239.289063-239.289062 12.503907-12.5 239.285156 239.285156zm121.125-192.320312-168.085937-168.078125 6.28125-6.285157 168.082031 168.085938zm0 0"/></svg>