<svg height="1063pt" viewBox="-74 -33 1063 1063.7515" width="1063pt" xmlns="http://www.w3.org/2000/svg"><path d="m576.890625 19.148438c-84.167969 37.332031-165.996094 37.332031-250.167969 0-58.820312-26.089844-126.722656-27.570313-186.289062-4.066407-119.382813 47.101563-186.121094 185.742188-116.519532 295.578125 18.726563 29.539063 33.328126 66.339844 43.402344 109.355469 1.859375 7.953125 9.816406 12.890625 17.777344 11.03125 7.957031-1.859375 12.898438-9.816406 11.03125-17.777344-10.824219-46.246093-26.710938-86.101562-47.207031-118.445312-89.40625-141.089844 88.601562-327.226563 265.808593-248.621094 92.246094 40.914063 181.925782 40.914063 274.164063 0 155.445313-68.929687 324.671875 64.433594 287.472656 228.949219-18.71875 82.816406-25.109375 178.515625-19.515625 292.570312 5.78125 118.03125-59.347656 226.40625-165.925781 276.082032-11.058594 5.167968-7.046875 8.148437-37.226563 98.992187-4.089843 7.800781-10.578124 22.84375-19.195312 22.84375-4.859375-.125-5.664062.210937-10.140625-7.921875-13.308594-24.21875-15.230469-43.128906-24.847656-76.398438-12.378907-46.617187 9.371093-96.949218 54.003906-117.738281 72.765625-33.921875 118.972656-108.617187 114.910156-191.53125-5.988281-122.171875 1.074219-225.667969 21.585938-316.429687 20.96875-92.707032-75.542969-168.285156-165.234375-128.5-114.769532 50.910156-231.171875 50.910156-345.945313 0-98.707031-43.789063-196.441406 55.167968-155.144531 120.316406 20.738281 32.726562 37.253906 69.824219 49.75 111.898438.035156.121093.042969.242187.082031.351562 40.0625 135.253906 32.199219 303.636719 18.375 443.984375-2.398437 24.300781-24.09375 42.132813-48.386719 39.71875-24.292968-2.394531-42.101562-24.109375-39.707031-48.394531 8.773438-89.121094 17.214844-205.054688 4.503907-311.3125-.972657-8.109375-8.34375-13.890625-16.449219-12.929688-8.113281.96875-13.902344 8.332032-12.941407 16.445313 12.382813 103.414062 4.054688 217.273437-4.574218 304.902343-3.984375 40.53125 25.746094 76.746094 66.265625 80.746094 40.53125 3.992188 76.746093-25.742187 80.738281-66.265625 4.515625-45.828125 7.671875-88.015625 9.5-127.292969 28.417969 13.042969 78.636719 19.753907 109.589844 22.957032 44.53125 4.613281 97.609375 6.980468 150.921875 6.980468 35.140625 0 70.402343-1.023437 103.363281-3.125 31.820312-2.019531 72.195312-5.777343 103.230469-12.460937-21.582031 25.101563-41.824219 35.425781-60.792969 44.980469-54.246094 27.367187-82.109375 90.574218-66.25 150.300781 9.304688 31.886719 11.828125 54.492187 27.523438 83.050781 6.011718 10.953125 14.160156 22.679688 34.683593 23.25 23.886719.792969 36.226563-17.457031 46.675781-38.445312 3.082032-6.429688-2.464843 8.371094 28.605469-88.515625 114.585938-55.808594 184.289063-173.730469 178.007813-301.984375-5.460938-111.34375.699218-204.4375 18.824218-284.605469 42.535157-188.105469-150.617187-341.347656-328.335937-262.523437zm140.101563 379.46875c9.246093-5.644532 17.527343-12.722657 24.523437-20.925782-1.113281 12.695313-2.015625 25.625-2.738281 38.777344-6.394532-6.910156-13.71875-12.933594-21.785156-17.851562zm-570.320313-199.699219c8.382813-19.742188 23.644531-35.34375 43.269531-44.410157-45.28125 46.960938-35.261718 123.398438 20.398438 157.3125-6.070313 3.695313-11.777344 8.019532-16.996094 12.921876-33.960938-96.457032-60.191406-93.90625-46.671875-125.824219zm420.632813 479.035156c-87.445313 3.964844-183.113282.808594-249.683594-8.222656-71.121094-9.652344-83.816406-22.375-85.496094-24.53125 1.226562-44.695313.738281-90.96875-2.824219-136.5625 34.015625-18.117188 39.371094-.09375 220.136719.296875 80.519531.933594 194.859375-4.910156 205.726562-10.191406 14.671876-7.144532 8.570313-29.4375-7.777343-28.039063-66.367188 5.925781-132.605469 8.789063-198.246094 8.636719-100.558594-1.191406-180.878906-8.683594-186.089844-8.683594-13.941406 0-27.265625-3.925781-38.835937-11.390625-4.765625-36.460937-11.550782-70.253906-20.429688-101.550781 13.144532-18.976563 34.765625-30.679688 57.964844-31.109375 68.832031 12.886719 137.414062 20.140625 206.355469 19.859375 75.203125.085937 150.433593-10.667969 184.648437-20.449219 18-5.128906 11.574219-32.878906-7.285156-28.660156-196.375 43.898437-364.980469-.351563-382.417969-.351563-39.714843 0-72.019531-32.316406-72.019531-72.023437 0-39.714844 32.304688-72.027344 72.019531-72.027344.246094 0 .5-.027344.753907-.03125 1.011718.40625 2.023437.804687 3.023437 1.261719 76.949219 34.117187 154.574219 46.839844 232.011719 38.179687-17.355469 15.132813-39.664063 26.75-64.644532 27.132813-49.882812-1.1875-101.386718-4.261719-154.199218-9.25-8.140625-.742188-15.355469 5.203125-16.132813 13.339844-.765625 8.140624 5.203125 15.359374 13.335938 16.128906 104.046875 9.824218 210.558593 13.050781 313.207031 6.5625 8.152344-.519532 14.34375-7.546875 13.839844-15.707032-.523438-8.152343-7.476563-14.355468-15.707032-13.828124-24.949218 1.570312-50.484374 2.578124-76.546874 3.035156 13.519531-10.621094 24.832031-23.011719 33.417968-35.199219 30.53125-6.8125 61-16.933594 91.375-30.410156 67.417969-29.914063 139.980469 25.871093 124.367188 94.925781-1.542969 6.835938-2.996094 13.765625-4.390625 20.742188-16.003907-35.15625-51.4375-59.660157-92.519531-59.660157-8.171876 0-14.792969 6.625-14.792969 14.796875 0 8.175782 6.621093 14.804688 14.792969 14.804688 39.714843 0 72.03125 32.308594 72.03125 72.019531 0 39.714844-32.316407 72.019531-72.03125 72.019531-.433594 0-.882813.023438-1.316407.058594-18.511719 1.660156-179.867187 38.988281-381.453125.222656-7.011718-1.347656-14.132812 2.441406-16.710937 9.320313-3.230469 8.644531 2.121093 17.972656 10.96875 19.710937 62.109375 12.265625 126.453125 18.324219 192.554687 18.191406.542969 0 1.078125.019532 1.617188.019532 64.859375 0 130.21875-5.972656 195.621094-17.910156 39.128906.683593 70.75 32.726562 70.75 72.011718 0 39.710938-32.316407 72.019532-72.023438 72.019532-14.523438 0-152.613281 39.859374-383.140625.214843-8.058594-1.390625-15.707031 4.027344-17.09375 12.078125-1.382813 8.046875 4.027344 15.703125 12.078125 17.085938 69.660156 11.984375 136.433594 17.96875 201.246094 17.96875 64.429687 0 126.941406-5.917969 188.378906-17.761719 28.480469-.410156 54.144531-12.605469 72.367188-31.90625 1.023437 26.28125 4.175781 57.910156-14.679688 98.882813-8.507812 7.367187-55.902344 19.382812-156.101562 23.929687zm0 0"/></svg>