<svg height="1065pt" viewBox="-33 -152 1065 1065" width="1065pt" xmlns="http://www.w3.org/2000/svg"><path d="m379.21875 298.289062c35.992188-12.09375 62.539062-50.144531 62.539062-95.621093v-19.039063c0-8.078125-6.550781-14.625-14.625-14.625-8.082031 0-14.628906 6.546875-14.628906 14.625v19.039063c0 39.007812-25.652344 70.738281-57.191406 70.738281h-20.296875c-1.476563-3.480469-2.542969-7.160156-4.527344-10.386719-5.914062-9.578125-6.046875-21.035156-.351562-29.890625 91.410156-142.089844-57.835938-293.011718-193.308594-226.363281-7.253906 3.5625-10.238281 12.328125-6.667969 19.578125 3.558594 7.25 12.332032 10.238281 19.578125 6.660156 108.394531-53.304687 231.703125 66.636719 155.8125 184.292969-11.851562 18.414063-11.832031 41.824219.039063 61.082031 9.449218 15.3125 9.523437 35.890625.011718 51.335938-11.269531 18.273437-12.878906 41.746094 1.410157 63.335937 18.566406 28.242188 25.242187 63.484375 18.324219 96.707031-22.4375 107.710938-163.484376 133.660157-224.039063 42.832032-97.378906-146.054688-100.078125-306.753906-.050781-457.007813 4.476562-6.730469 2.65625-15.808593-4.0625-20.28125-6.726563-4.480469-15.808594-2.652343-20.28125 4.070313-103.535156 155.507812-106.929688 328.984375.058594 489.445312 74.820312 112.226563 249.292968 79.996094 277.003906-53.085937 8.234375-39.5625 1.523437-81.441407-23.671875-120.519531-5.800781-8.976563-5.730469-20.535157.199219-30.148438 3.78125-6.140625 6.644531-12.796875 8.570312-19.769531h18.074219c49.78125 0 90.273437 40.496093 90.273437 90.28125v322.179687c0 8.078125 6.546875 14.625 14.628906 14.625 8.074219 0 14.625-6.546875 14.625-14.625v-322.179687c0-58.347657-42.082031-106.886719-97.445312-117.285157zm0 0"/><path d="m917.5 59.371094c-4.480469-6.722656-13.558594-8.550782-20.28125-4.070313s-8.546875 13.550781-4.066406 20.28125c97.476562 146.417969 99.882812 307.125-.050782 457.007813-23.109374 34.660156-61.804687 55.355468-103.53125 55.355468-97.027343 0-158.65625-107.386718-100.898437-196.859374 11.980469-18.546876 12.035156-42.0625.128906-61.371094-9.460937-15.351563-9.488281-35.929688.007813-51.335938 11.875-19.257812 11.894531-42.667968.039062-61.09375-75.273437-116.625 46.394532-238.097656 155.8125-184.28125 7.25 3.578125 16.019532.574219 19.578125-6.660156 3.574219-7.25.585938-16.015625-6.664062-19.578125-135.433594-66.617187-284.777344 84.269531-193.324219 226.351563 5.707031 8.867187 5.574219 20.324218-.339844 29.902343-1.984375 3.226563-3.046875 6.90625-4.523437 10.386719h-20.304688c-31.539062 0-57.191406-31.730469-57.191406-70.738281v-19.039063c0-8.078125-6.539063-14.625-14.625-14.625-8.078125 0-14.628906 6.546875-14.628906 14.625v19.039063c0 45.476562 26.554687 83.527343 62.542969 95.621093-55.363282 10.398438-97.441407 58.9375-97.441407 117.285157v322.179687c0 8.078125 6.546875 14.625 14.625 14.625 8.082031 0 14.625-6.546875 14.625-14.625v-322.179687c0-49.777344 40.492188-90.28125 90.273438-90.28125h18.074219c1.929687 6.972656 4.789062 13.640625 8.570312 19.769531 5.777344 9.367188 6.539062 20.59375-.957031 31.929688-66.53125 101.195312 1.804687 240.207031 126.621093 240.207031 51.527344 0 99.328126-25.566407 127.871094-68.378907 103.640625-155.457031 106.933594-328.914062.058594-489.449218zm0 0"/></svg>