<svg height="1063pt" viewBox="-33 -63 1063.7524 1063" width="1063pt" xmlns="http://www.w3.org/2000/svg"><path d="m975.777344 124.9375-109.164063-109.167969c-25.847656-25.84375-67.910156-25.851562-93.753906 0l-172.355469 172.351563c-5.695312 5.699218-5.695312 14.941406 0 20.640625 5.703125 5.699219 14.949219 5.699219 20.644532 0l40.109374-40.117188 161.636719 161.636719-209.632812 209.636719c-14.464844 14.46875-38.003907 14.472656-52.472657 0-30.867187-30.871094-72.101562-72.101563-109.164062-109.167969-14.460938-14.46875-14.460938-38 0-52.464844l121.933594-121.929687c5.699218-5.703125 5.699218-14.945313 0-20.644531-5.699219-5.695313-14.945313-5.695313-20.640625 0l-121.933594 121.9375c-25.167969 25.160156-25.378906 65.480468-1.519531 91.457031l-287.191406 287.195312c-5.703126 5.699219-5.703126 14.941407 0 20.636719 5.695312 5.703125 14.941406 5.703125 20.636718 0l286.808594-286.8125 66.34375 66.339844-86.109375 86.097656c-16.917969 16.925781-26.378906 35.859375-27.351563 54.773438-8.980468 174.589843-327.019531 263.613281-372.34375 212.246093l83.371094-83.355469c5.695313-5.699218 5.695313-14.945312 0-20.640624-5.707031-5.699219-14.953125-5.699219-20.648437 0l-90.808594 90.804687c-3.691406 3.6875-5.121094 9.0625-3.785156 14.105469 11.171875 41.613281 70.039062 45.328125 113.097656 40.78125 132.515625-14.007813 313.039063-111.921875 320.265625-252.441406 1.367188-26.621094 24.472656-39.007813 104.945312-121.726563 1.664063 1.132813 18.125 22.839844 50.332032 22.839844 16.972656 0 33.945312-6.457031 46.875-19.382813l341.875-341.886718c25.847656-25.847657 25.847656-67.894532 0-93.742188zm-293.871094 23.070312 22.890625-22.882812 161.628906 161.628906-22.886719 22.890625zm273.234375 50.042969-68.074219 68.0625-161.632812-161.636719 68.070312-68.0625c14.496094-14.503906 37.96875-14.507812 52.46875 0l109.167969 109.167969c14.464844 14.460938 14.457031 37.996094 0 52.46875zm0 0"/></svg>