<svg height="1065pt" viewBox="-33 -136 1065.0001 1065" width="1065pt" xmlns="http://www.w3.org/2000/svg"><path d="m897.417969 140.71875c-8.074219 0-14.625 6.546875-14.625 14.625 0 8.082031 6.550781 14.625 14.625 14.625 38.460937 0 69.75 31.289062 69.75 69.75 0 24.589844-13.160157 47.625-34.355469 60.105469l-265.558594 156.382812c-19.019531 11.207031-43.023437-2.488281-43.023437-24.59375v-190.597656c0-39.175781 31.863281-71.046875 71.035156-71.046875h136.6875c8.089844 0 14.625-6.542969 14.625-14.625 0-8.078125-6.535156-14.625-14.625-14.625h-55.609375l24.511719-115.273438c1.675781-7.90625-3.367188-15.667968-11.265625-17.351562-7.910156-1.6875-15.667969 3.367188-17.355469 11.269531l-25.796875 121.355469h-49.84375l27.960938-131.503906c1.671874-7.898438-3.371094-15.660156-11.265626-17.34375-7.90625-1.699219-15.660156 3.367187-17.347656 11.265625l-30.3125 142.558593c-4.863281 1.519532-9.566406 3.28125-14.097656 5.484376h-114.878906c-1.253906-.800782-2.371094-1.769532-3.683594-2.488282l-30.949219-145.554687c-1.675781-7.910157-9.4375-12.960938-17.347656-11.265625-7.894531 1.675781-12.941406 9.445312-11.261719 17.34375l27.960938 131.503906h-49.84375l-25.800782-121.355469c-1.683593-7.90625-9.445312-12.957031-17.351562-11.269531-7.894531 1.675781-12.941406 9.445312-11.261719 17.351562l24.511719 115.273438h-214.320312c-115.417969 0-209.324219 93.898438-209.324219 209.320312v182.015626c0 70.261718 64.363281 123.003906 133.304687 109.09375l19.75-3.984376c7.914063-1.605468 13.039063-9.316406 11.433594-17.234374-1.59375-7.910157-9.300781-13.050782-17.226562-11.441407l-19.742188 3.988281c-50.757812 10.238282-98.265625-28.546874-98.265625-80.421874v-182.015626c0-99.296874 80.773437-180.070312 180.070313-180.070312h297.082031c17.808593 0 32.304687 14.496094 32.304687 32.304688v292.171874c0 13.3125-6.597656 25.054688-16.476562 32.992188-14.554688 11.609375 17.71875.796875-299.914063 65.90625-7.917969 1.589844-13.039062 9.300781-11.4375 17.226562 1.589844 7.914063 9.300781 13.039063 17.21875 11.441407l223.980469-45.203125c3.789062 49.074218-.46875 106.828125-24.46875 138.265625-4.898438 6.421875-3.65625 15.601562 2.757812 20.5 6.421876 4.894531 15.601563 3.667969 20.5-2.761719 35.070313-45.957031 33.667969-124.351562 30.566407-161.925781 23.945312-5.410157 33.601562-5.175781 47.710937-12.519531 6.8125 67.382812 1.730469 149.972656-39.523437 204.027343-4.898438 6.421875-3.664063 15.601563 2.757812 20.503907 6.40625 4.890624 15.589844 3.671874 20.496094-2.761719 49.59375-64.972657 54.9375-167.167969 42.566406-246.808594.109375-.164063.195313-.351563.292969-.511719 20.789062-18.144531 45.652344-45.132812 86.9375-45.132812h.046875c.816406 0 8.652344 1.824218 12.078125 1.824218 10.078125 0 20.160156-2.707031 29.308594-8.097656l265.566406-156.382812c30.082031-17.71875 48.761719-50.402344 48.761719-85.308594 0-54.582031-44.414063-99-99-99zm-292.015625 323.4375c-14.589844 4.589844-27.46875 11.980469-39.460938 20.628906-1.78125-294.5 3.863282-282.765625-4.417968-304.355468h54.351562c-12.914062 16.894531-20.894531 37.722656-20.894531 60.574218v190.609375c0 12.046875 3.921875 23.125 10.421875 32.542969zm0 0"/></svg>