<svg height="1063pt" viewBox="-33 -99 1063.7498 1063" width="1063pt" xmlns="http://www.w3.org/2000/svg"><path d="m748.476562 829.78125h-52.28125c-33.273437 0-64.019531-13.484375-86.558593-37.972656-21.5625-23.425782-32.933594-52.988282-30.664063-89.675782l9.109375-143.1875c5.292969 3.183594 10.753907 5.613282 16.132813 8.386719 11.90625 6.125 24.398437 12.535157 44.753906 18.5625 1.375 28.929688 14.234375 71.636719 57.550781 81.632813 19.1875 4.421875 25.203125-24.230469 6.585938-28.53125-24.671875-5.6875-31.960938-29.644532-34.074219-46.363282 20.453125 3.34375 36.835938 3.367188 37.035156 3.371094 8.09375 0 14.644532-6.550781 14.644532-14.632812 0-8.082032-6.550782-14.632813-14.644532-14.632813l-.40625-.011719c-66.273437-.886718-129.0625-35.003906-176.636718-85.253906-23.554688-24.875-63.480469-24.875-87.039063 0-86.039063 90.886719-174.136719 84.621094-177.050781 85.265625-8.082032 0-14.636719 6.550781-14.636719 14.636719 0 8.078125 6.554687 14.640625 14.636719 14.640625.46875-.035156 15.277344.175781 35.964844-3.105469-2.152344 16.691406-9.507813 40.433594-34.035157 46.085938-18.617187 4.300781-12.617187 32.957031 6.582031 28.53125 43.175782-9.957032 56.066407-52.40625 57.523438-81.328125 12.089844-3.523438 23.960938-8.085938 35.660156-13.507813.195313-.078125 24.902344-12.890625 28.25-14.945312 10.75 168.359375 8.976563 141.597656 9.242188 144.664062 5.652344 68.25-47.972656 127.359375-117.253906 127.359375h-46.523438c-8.085938 0-14.644531 6.566407-14.644531 14.640625 0 8.09375 6.558593 14.644532 14.644531 14.644532h46.523438c85.746093 0 153.4375-73.363282 146.433593-158.917969l-10.363281-162.367188c13.78125-10.753906 27.316406-22.445312 40.300781-36.171875 5.824219-6.148437 13.730469-9.53125 22.269531-9.53125 21.207032 0 19.375 12.773438 64.476563 47.425782l-10.226563 160.644531c-3.339843 40.773437 10.632813 81.40625 38.34375 111.5 27.734376 30.136719 67.132813 47.417969 108.09375 47.417969h52.28125c8.085938 0 14.636719-6.550782 14.636719-14.644532 0-8.074218-6.550781-14.628906-14.636719-14.628906zm0 0"/><path d="m994.214844 796.042969c-30.570313-228.308594-59.445313-443.949219-201.164063-537.867188-18.773437-12.445312-40.691406-19.023437-63.382812-19.023437-58.367188 0-148.613281 44.316406-153.691407 105.539062l-3.230468 39.011719c-10.691406-15.5-18.6875-26.875-18.6875-45.671875v-329.191406c0-8.089844-6.554688-14.640625-14.640625-14.640625-8.082031 0-14.636719 6.550781-14.636719 14.640625v329.191406c0 16.101562 4.445312 31.816406 12.851562 45.457031 10.246094 16.636719 25.59375 37.066407 35.574219 48.492188 22.5 25.746093 43.671875 41.835937 65.179688 53.90625 1.019531.574219 1.980469 1.46875 3.015625 2.019531.589844.414062 3.808594 1.964844 4.964844 2.257812 20.738281 10.363282 47.378906 18.015626 70.296874 18.015626 2.15625 0 3.707032-1.433594 5.566407-2.289063 1.5625-.707031 3.46875-.714844 4.671875-1.917969 9.222656-9.050781 2.980468-24.894531-10.050782-25.066406-7.011718-.097656-13.894531-1.589844-20.804687-2.851562 13.40625-9.375 26.992187-24.503907 33.691406-49.285157 2.109375-7.808593-2.507812-15.839843-10.308593-17.957031-7.808594-2.101562-15.839844 2.511719-17.953126 10.3125-9.679687 35.804688-38.597656 41.589844-46.488281 42.550781-21.191406-11.410156-39.773437-27.019531-55.644531-44.484375l5.820312-70.085937c3.523438-42.664063 78.980469-78.679688 124.503907-78.679688 16.917969 0 33.25 4.894531 47.207031 14.152344 130.628906 86.578125 158.652344 295.820313 188.316406 517.347656l.488282 3.601563c.898437 6.722656-1.066407 13.230468-5.527344 18.320312-4.472656 5.121094-10.667969 7.933594-17.457032 7.933594h-129.804687c-8.09375 0-14.644531 6.554688-14.644531 14.636719 0 8.085937 6.550781 14.640625 14.644531 14.640625h129.804687c15.136719 0 29.523438-6.535156 39.488282-17.925782 9.960937-11.386718 14.515625-26.503906 12.519531-41.492187zm0 0"/><path d="m216.195312 282.578125c13.960938-9.257813 30.277344-14.152344 47.210938-14.152344 45.515625 0 120.964844 36.015625 124.503906 78.679688l5.625 67.886719c-5.078125 5.675781-10.296875 10.261718-15.46875 15.179687-12.585937 11.953125-7.117187 9.09375-30.109375 24.019531-3.847656 2.496094-7.625 5.628906-11.519531 7.738282-5.871094-.53125-37.785156-5.21875-47.953125-42.804688-2.109375-7.800781-10.144531-12.410156-17.949219-10.3125-7.804687 2.117188-12.425781 10.148438-10.3125 17.957031 6.714844 24.820313 20.328125 39.960938 33.757813 49.34375-6.597657 1.136719-13.148438 2.699219-19.824219 2.792969-12.96875.171875-19.3125 15.992188-10.042969 25.074219.914063.898437 2.40625.8125 3.53125 1.445312 2.3125 1.308594 4.128907 2.796875 6.910157 2.753907 21.402343-.289063 56.179687-9.917969 74.324218-19.53125 44.324219-23.484376 80.871094-66.71875 104.527344-105.144532 8.386719-13.628906 12.816406-29.332031 12.816406-45.410156v-329.253906c0-8.089844-6.554687-14.640625-14.632812-14.640625-8.089844 0-14.640625 6.550781-14.640625 14.640625v329.253906c0 23.601562-13.207031 36.042969-16.972657 41.609375l-2.894531-35.011719c-5.074219-61.222656-95.316406-105.539062-153.683593-105.539062-22.699219 0-44.617188 6.574218-63.390626 19.023437-150.433593 99.707031-175.496093 346.269531-201.640624 541.476563-4.207032 31.429687 20.296874 59.40625 51.996093 59.40625h116.046875c8.085938 0 14.636719-6.554688 14.636719-14.640625 0-8.082031-6.550781-14.636719-14.636719-14.636719h-116.046875c-6.773437 0-12.980469-2.8125-17.445312-7.917969-8.5-9.710937-4.988281-20.296875-5.050781-21.941406 29.664062-221.527344 57.6875-430.769531 188.328124-517.34375zm0 0"/></svg>