<svg height="1065pt" viewBox="-33 -76 1065.0031 1065" width="1065pt" xmlns="http://www.w3.org/2000/svg"><path d="m359.71875 549.960938h-60.070312v-60.066407c0-8.285156-6.710938-14.996093-15-14.996093-8.28125 0-14.992188 6.710937-14.992188 14.996093v60.066407h-60.066406c-8.285156 0-15 6.714843-15 14.992187 0 8.285156 6.714844 15.007813 15 15.007813h60.066406v60.066406c0 8.285156 6.710938 14.996094 14.992188 14.996094 8.289062 0 15-6.710938 15-14.996094v-60.066406h60.070312c8.28125 0 14.996094-6.722657 14.996094-15.007813 0-8.277344-6.714844-14.992187-14.996094-14.992187zm0 0"/><path d="m463.019531 564.953125c0-98.34375-80.011719-178.355469-178.371093-178.355469-98.351563 0-178.363282 80.011719-178.363282 178.355469 0 98.355469 80.011719 178.371094 178.363282 178.371094 98.359374 0 178.371093-80.015625 178.371093-178.371094zm-178.371093 148.386719c-81.8125 0-148.371094-66.558594-148.371094-148.371094 0-81.828125 66.558594-148.378906 148.371094-148.378906 81.820312 0 148.382812 66.550781 148.382812 148.378906 0 81.8125-66.5625 148.371094-148.382812 148.371094zm0 0"/><path d="m875.027344 248.695312c-7.984375-2.210937-16.25 2.46875-18.457032 10.453126-2.21875 7.984374 2.460938 16.238281 10.445313 18.453124 58.535156 16.21875 99.40625 70.003907 99.40625 130.785157v122.574219h-156.960937c-11.390626-8.734376-10.023438-7.234376-22.441407-14.460938-19.753906-11.511719-19.121093-10.707031-36.480469-16.738281-20.671874-7.191407-21.890624-7.039063-39.769531-9.519531-5.324219-.738282-10.414062-2.183594-15.851562-2.507813v-79.347656c0-65.96875 47.09375-122.171875 111.960937-133.628907 8.160156-1.445312 13.609375-9.21875 12.164063-17.378906-1.4375-8.152344-9.222657-13.59375-17.375-12.160156-79.230469 14-136.746094 82.632812-136.746094 163.175781v80.691407c-34.160156 2.824218-66 13.335937-93.59375 30.601562v-219.304688c0-42.996093-34.976563-77.976562-77.984375-77.976562h-44.851562v-28.625h46.878906c8.28125 0 14.992187-6.71875 14.992187-14.996094v-168.578125c0-8.285156-6.710937-14.996093-14.992187-14.996093h-421.425782c-8.289062 0-15 6.710937-15 14.996093v29.289063c0 8.28125 6.710938 15 15 15 8.28125 0 14.992188-6.71875 14.992188-15v-14.292969h73.070312v138.582031h-73.070312v-47.449218c0-8.289063-6.710938-15-14.992188-15-8.289062 0-15 6.710937-15 15v62.449218c0 8.277344 6.710938 14.992188 15 14.992188h46.867188v28.628906h-44.851562c-42.992188 0-77.980469 34.980469-77.980469 77.976562v529.152344c0 43 34.988281 77.980469 77.980469 77.980469h247.921874c8.277344 0 14.996094-6.710937 14.996094-14.996094 0-8.28125-6.71875-14.992187-14.996094-14.992187h-247.921874c-26.453126 0-47.984376-21.527344-47.984376-47.992188v-529.152344c0-26.457031 21.53125-47.988281 47.984376-47.988281 5.730468 0 303.105468.011719 417.382812 0 26.457031 0 47.988281 21.53125 47.988281 47.988281v241.121094c-1.40625 1.269532-2.386719 2.875-3.753906 4.179688-5.640625 5.371094-10.550781 11.363281-15.570313 17.332031-12.484374 14.859375-11.316406 11.738281-24.234374 35.761719-6.671876 12.453125-8.707032 11.714844-17.394532 43.265625-.398437 1.433593-8.367187 20.171875-8.367187 55.386719 0 28.082031 5.601562 55.9375 16.800781 82.171874 2.03125 4.769532 5.042969 9.042969 7.417969 13.648438 14.359375 27.710938 12.492187 22.527344 24.8125 37.421875 4.625 5.582031 8.925781 11.417969 14.09375 16.488281.707031.691406 1.195312 1.550782 1.910156 2.246094-7.644531 16.894531-24.585937 28.109375-43.703125 28.109375h-101.039062c-8.273438 0-14.996094 6.714844-14.996094 15.003906 0 8.285157 6.722656 14.996094 14.996094 14.996094h101.039062c28.507812 0 53.46875-15.707031 67.089844-39.480469 83.167968 59.503906 193.332031 50.605469 266.242187-18.894531 93.097657 2.46875 169.746094-72.925781 169.746094-165.613281v-275.132813c0-74.222656-49.921875-139.890625-121.394531-159.699219zm-394.648438-84.910156h-73.082031v-138.582031h73.082031zm-180.730468 0v-138.582031h77.660156v138.582031zm-107.652344-138.582031h77.660156v138.582031h-77.660156zm-41.195313 168.574219h267.703125v28.625h-267.703125zm531.304688 323.5625c44.238281 0 84.273437 16.652344 115.664062 43.21875l-252.542969 252.535156c-101.667968-120.109375-10.492187-295.753906 136.878907-295.753906zm-115.664063 316.960937 252.535156-252.53125c102.132813 120.667969 10.019532 295.757813-136.871093 295.757813-44.242188 0-84.277344-16.652344-115.664063-43.226563zm288.34375-17.160156c22.253906-31.96875 37.40625-77.515625 37.40625-119.710937 0-35.871094-8.015625-54.265626-8.105468-54.601563-8.082032-29.773437-8.476563-26.316406-15.363282-39.84375-8.222656-16.164063-9.90625-21.117187-27.910156-42.027344h125.605469v122.574219c0 66.621094-48.230469 122.1875-111.632813 133.609375zm0 0"/></svg>