<svg height="1065pt" viewBox="-219 -33 1065 1065.0032" width="1065pt" xmlns="http://www.w3.org/2000/svg"><path d="m536.363281 247.546875h-58.882812v-35.148437h53.339843c8.078126 0 14.628907-6.542969 14.628907-14.625v-92.585938c0-8.074219-6.550781-14.625-14.628907-14.625-8.078124 0-14.625 6.550781-14.625 14.625v77.96875h-83.960937v-155.921875h83.960937v17.550781c0 8.074219 6.546876 14.625 14.625 14.625 8.078126 0 14.628907-6.550781 14.628907-14.625v-32.175781c0-8.074219-6.550781-14.628906-14.628907-14.628906h-462.925781c-8.078125 0-14.625 6.554687-14.625 14.628906v185.164063c0 8.082031 6.546875 14.625 14.625 14.625h53.332031v35.148437h-58.867187c-41.933594 0-76.054687 34.113281-76.054687 76.046875v596.777344c0 41.933594 34.121093 76.050781 76.054687 76.050781h474.003906c41.925781 0 76.046875-34.117187 76.046875-76.050781v-596.777344c-.007812-41.933594-34.121094-76.046875-76.046875-76.046875zm-133.382812-64.398437h-89v-155.914063h89zm-207.257813 0v-155.914063h89.003906v155.914063zm-113.203125-155.914063h83.96875v155.914063h-83.96875zm67.957031 185.164063h297.753907v35.148437h-297.753907zm432.675782 707.96875c0 25.808593-20.996094 46.804687-46.789063 46.804687h-474.003906c-25.808594 0-46.804687-20.996094-46.804687-46.804687v-596.773438c0-25.804688 20.996093-46.796875 46.804687-46.796875h474.003906c25.792969 0 46.789063 20.992187 46.789063 46.796875zm0 0"/><path d="m235.320312 636.609375h49.40625v49.414063c0 8.074218 6.546876 14.625 14.628907 14.625 8.085937 0 14.625-6.550782 14.625-14.625v-49.414063h49.414062c8.078125 0 14.625-6.546875 14.625-14.625s-6.546875-14.625-14.625-14.625h-49.414062v-49.421875c0-8.070312-6.539063-14.625-14.625-14.625-8.082031 0-14.628907 6.554688-14.628907 14.625v49.421875h-49.40625c-8.085937 0-14.625 6.546875-14.625 14.625s6.546876 14.625 14.625 14.625zm0 0"/><path d="m299.355469 775.972656c84.910156 0 153.996093-69.078125 153.996093-153.988281 0-84.917969-69.085937-153.996094-153.996093-153.996094-84.90625 0-154 69.078125-154 153.996094 0 84.910156 69.09375 153.988281 154 153.988281zm0-278.734375c68.785156 0 124.742187 55.960938 124.742187 124.746094s-55.957031 124.738281-124.742187 124.738281c-68.785157 0-124.746094-55.953125-124.746094-124.738281s55.960937-124.746094 124.746094-124.746094zm0 0"/><path d="m503.738281 354.914062h-268.417969c-8.085937 0-14.625 6.546876-14.625 14.625 0 8.082032 6.539063 14.625 14.625 14.625h253.792969v475.632813h-379.515625v-475.632813h50.386719c8.085937 0 14.625-6.542968 14.625-14.625 0-8.078124-6.539063-14.625-14.625-14.625h-65.011719c-8.085937 0-14.625 6.546876-14.625 14.625v504.882813c0 8.078125 6.539063 14.628906 14.625 14.628906h408.765625c8.082031 0 14.628907-6.550781 14.628907-14.628906v-504.882813c0-8.078124-6.546876-14.625-14.628907-14.625zm0 0"/></svg>