<svg height="1065pt" viewBox="-133 -33 1065 1065.0001" width="1065pt" xmlns="http://www.w3.org/2000/svg"><path d="m406 734.984375c-30.644531 0-55.566406 24.933594-55.566406 55.574219 0 30.636718 24.921875 55.5625 55.566406 55.5625 30.636719 0 55.5625-24.925782 55.5625-55.5625 0-30.640625-24.925781-55.574219-55.5625-55.574219zm0 81.886719c-14.515625 0-26.320312-11.804688-26.320312-26.3125 0-14.519532 11.804687-26.320313 26.320312-26.320313s26.320312 11.800781 26.320312 26.320313c0 14.507812-11.804687 26.3125-26.320312 26.3125zm0 0"/><path d="m757.429688 895.550781c-2.207032-5.5625-7.59375-9.21875-13.589844-9.21875h-103.910156c-2.101563-33.480469-11.125-64.8125-25.820313-93.082031 78.871094-61.945312 130.097656-153.132812 140.605469-252.53125.855468-8.027344-4.972656-15.226562-13.003906-16.070312-8.042969-.859376-15.234376 4.96875-16.074219 13.007812-9.523438 89.980469-55.03125 172.953125-125.605469 229.96875-3.3125-4.816406-7.691406-8.746094-11.328125-13.296875-5.867187-7.273437-11.480469-14.726563-18.128906-21.261719-.796875-.765625-1.34375-1.757812-2.148438-2.515625 143.976563-115.191406 149.03125-334.574219 3.972657-454.636719l14.332031-14.335937c5.71875-5.710937 5.71875-14.972656 0-20.675781l-7.292969-7.300782 8-7.996093c31.441406 20.238281 75.21875 66.675781 102.324219 119.304687 20.832031 40.425782 33.589843 86.078125 36.890625 132.023438.582031 8.140625 7.6875 14.132812 15.636718 13.53125 8.058594-.574219 14.109376-7.578125 13.53125-15.632813-7.773437-108.007812-61.457031-205.578125-147.371093-270.242187l31.726562-31.726563c15.757813 7.828125 31.476563 3.792969 41.683594-6.414062l12.859375-12.859375c14.160156-14.152344 14.160156-37.1875 0-51.347656l-93.660156-93.640626c-14.15625-14.160156-37.1875-14.160156-51.347656 0l-12.859376 12.859376c-13.335937 13.339843-13.628906 34.316406-1.835937 48.570312l-59.582031 59.574219-13.023438-13.019531c-5.714844-5.714844-14.96875-5.714844-20.683594 0l-93.183593 93.179687c-5.707031 5.710937-5.707031 14.96875 0 20.6875 5.714843 5.703125 14.96875 5.703125 20.683593 0l82.847657-82.847656c32.894531 32.890625 61.128906 61.128906 103.632812 103.632812l-199.460937 199.464844-103.644532-103.640625 74.390626-74.375c5.703124-5.714844 5.703124-14.964844 0-20.679688-5.722657-5.703124-14.984376-5.703124-20.6875 0l-74.378907 74.378907-3.21875-3.214844c-12.199219-12.199219-32.058593-12.199219-44.253906 0l-24.480469 24.472656c-12.199218 12.199219-12.199218 32.0625 0 44.261719l3.222656 3.214844c-13.410156 15.734375-31.386718 23.960937-31.386718 46.734375 0 9.882812 3.847656 19.199219 10.851562 26.191406 10.996094 9.078125 19.140625 25.867187 41.210938 25.867187 22.804687 0 30.933594-17.925781 46.730468-31.382812l10.175782 10.175781c-13.40625 15.742188-31.382813 23.972657-31.382813 46.730469 0 21.949219 16.746094 30.167969 25.867188 41.222656 7.003906 6.992188 16.304687 10.847656 26.199219 10.847656 22.808593 0 30.933593-17.929687 46.738281-31.386718 2.015625 1.4375 9.027343 12.367187 25.339843 12.367187 8.011719 0 16.035157-3.042969 22.136719-9.148437l24.464844-24.472656c12.203125-12.199219 12.203125-32.054688 0-44.257813l-3.210937-3.222656 174.257812-174.253907c62.136719 50.425782 98.394531 123.742188 98.394531 204.269532 0 82.582031-39.265625 160.242187-105.050781 210.183594-91.019531-66.789063-211.652344-60.222657-295.269531 15.035156-20.03125-12.101563-37.703125-27.015625-53.738281-43.789063h66.207031c19.890625 0 36.066406-16.175781 36.066406-36.0625v-22.101562c0-19.882813-16.175781-36.0625-36.066406-36.0625h-233.957031c-19.890626 0-36.078126 16.179687-36.078126 36.0625v22.101562c0 19.886719 16.1875 36.0625 36.078126 36.0625h33.800781c24.210937 45.878907 69.085937 96.007813 125.894531 131.894531-8.867188 22.375-13.824219 46.507813-15.402344 71.609376h-103.914062c-5.992188 0-11.375 3.65625-13.585938 9.226562l-32.089844 80.835938c-3.808593 9.582031 3.261719 20.019531 13.585938 20.019531h80.730469c8.085937 0 14.625-6.542969 14.625-14.625 0-8.078125-6.539063-14.625-14.625-14.625h-59.195313l20.488282-51.585938h655.828124l20.484376 51.585938h-569.195313c-8.074219 0-14.613281 6.546875-14.613281 14.625 0 8.082031 6.539062 14.625 14.613281 14.625h590.726563c10.316406 0 17.410156-10.417969 13.589843-20.019531zm-568.042969-433.167969c-3.042969 3.042969-7.996094 3.042969-11.023438 0l-15.023437-15.019531c-3.042969-3.039062-3.042969-7.996093-.003906-11.035156l20.535156-20.523437 26.054687 26.039062zm77.589843 77.589844c-3.039062 3.046875-7.988281 3.046875-11.027343 0l-15.027344-15.019531c-3.039063-3.046875-3.039063-7.988281 0-11.03125l20.539063-20.53125 26.050781 26.046875zm92.480469-41.792968-24.46875 24.46875c-2.820312 2.832031 4.660157 6.210937-154.332031-151.433594-.800781-.796875-.800781-2.101563 0-2.894532 24.671875-24.355468 25.199219-26.644531 27.367188-24.472656l13.558593 13.558594c145.667969 145.664062 140.144531 138.519531 137.875 140.773438zm198.074219-456.039063 12.859375-12.859375c2.753906-2.757812 7.238281-2.757812 9.992187 0l93.648438 93.648438c2.746094 2.75 2.746094 7.226562 0 9.988281l-12.859375 12.859375c-2.75 2.75-7.230469 2.75-9.984375 0l-93.65625-93.652344c-2.746094-2.757812-2.746094-7.230469 0-9.984375zm-2.304688 49.035156 62.636719 62.644531-59.109375 59.109376-62.640625-62.644532zm-534.292968 555.585938v-22.097657c0-3.761718 3.066406-6.828124 6.824218-6.828124h233.964844c3.761719 0 6.824219 3.066406 6.824219 6.828124v22.097657c0 3.761719-3.0625 6.820312-6.824219 6.820312h-233.964844c-3.757812 0-6.824218-3.058593-6.824218-6.820312zm178.328125 141.515625c-41.921875-27.195313-77.449219-63.246094-103.90625-105.449219h59.582031c20.320312 25.765625 44.453125 47.65625 71.976562 65.296875-2.898437 3.402344-4.875 7.453125-7.574218 11-4.90625 6.449219-9.503906 13.007812-13.738282 19.945312-1.941406 3.1875-4.558593 5.925782-6.339843 9.207032zm1.078125 98.054687c7.351562-104.417969 96.742187-191.554687 205.652344-191.554687 111.15625 0 198.492187 89.554687 205.664062 191.554687zm0 0"/></svg>