<svg height="1065pt" viewBox="-91 -33 1065 1065.0006" width="1065pt" xmlns="http://www.w3.org/2000/svg"><path d="m353.605469 819.949219c-31.699219 27.777343-88.082031 28.246093-88.660157 28.246093h-92.203124c-30.996094 0-56.21875-25.226562-56.21875-56.21875v-112.28125c0-5.929687-3.585938-11.277343-9.078126-13.527343l-67.007812-27.453125c-15.042969-6.15625-21.542969-24.167969-13.386719-38.605469 56.816407-102.714844 58.363281-98.398437 57.058594-107.222656-.066406-.464844-6.863281-46.960938-6.863281-70.457031 0-54.917969 12.003906-107.652344 35.6875-156.726563 3.507812-7.273437.453125-16.019531-6.824219-19.523437-7.277344-3.515626-16.019531-.464844-19.523437 6.8125-25.605469 53.070312-38.585938 110.078124-38.585938 169.4375 0 21.046874 4.640625 56.609374 6.464844 69.71875l-52.878906 93.574218c-16.695313 29.546875-3.734376 67.152344 27.765624 80.070313l57.921876 23.726562v102.457031c0 47.132813 38.347656 85.46875 85.46875 85.46875h77.605468v104.347657c0 8.070312 6.550782 14.625 14.625 14.625 8.078125 0 14.628906-6.554688 14.628906-14.625v-105.203125c22-2.015625 64.140626-9.109375 93.289063-34.640625 6.070313-5.324219 6.679687-14.566407 1.351563-20.644531-5.324219-6.074219-14.5625-6.683594-20.636719-1.355469zm0 0"/><path d="m871.453125 192.320312-26.800781-19.472656c-6.527344-4.75-15.671875-3.300781-20.421875 3.230469s-3.300781 15.683594 3.226562 20.425781l3.816407 2.773438-70.679688 23.582031-119.222656 39.773437 83.640625-73.046874c7.335937-6.410157 6.457031-18.074219-1.726563-23.324219l-64.355468-41.300781 149.058593-72.585938c-53.578125 73.773438-58.59375 72.492188-56.988281 83.152344 1.4375 9.628906 9.753906 11.328125 23.285156 22.332031 6.550782 4.75 15.6875 3.300781 20.433594-3.230469 4.746094-6.527344 3.304688-15.683594-3.226562-20.421875l-5.421876-3.953125 81.726563-108.789062c9.167969-12.21875-4.34375-28.636719-18.101563-21.929688l-198.0625 96.445313c-174.664062-114.234375-403.96875-70.933594-526.441406 93.355469-4.824218 6.480468-3.480468 15.640624 2.984375 20.464843 6.476563 4.828125 15.652344 3.488281 20.472657-2.984375 116.503906-156.304687 322.699218-184.121094 472.613281-95.941406-.324219.210938-.246094.722656-.546875.945312-6.363282 4.742188-6.253906 10.726563-6.1875 10.539063.042968.195313-.765625 8.371094 6.699218 13.160156l69.878907 44.847657-123.894531 108.203124c-7.246094 6.332032-7.167969 19.148438 3.679687 24.050782 9.699219 4.460937.421875 2.328125 187.363281-58.148438 77.855469 148.242188 44.6875 335.8125-90.652344 447.085938-30.726562 25.242187-48.335937 62.8125-48.335937 103.0625v177.15625c0 8.085937 6.542969 14.625 14.625 14.625 8.070313 0 14.621094-6.539063 14.621094-14.625v-177.15625c0-31.460938 13.726562-60.796875 37.65625-80.46875 138.726562-114.050782 185.292969-310.472656 99.476562-478.820313l81.84375-27.308593c5.191407-1.726563 8.988281-6.226563 9.824219-11.636719.828125-5.414063-1.425781-10.839844-5.859375-14.066407zm0 0"/><path d="m589.253906 332.511719c-21.351562-1.882813-45.628906-10.289063-43.867187-58.996094.289062-8.078125-6.019531-14.855469-14.097657-15.148437-7.988281-.257813-14.84375 6.015624-15.140624 14.089843-1.917969 53.339844 23.125 85.011719 70.53125 89.195313 7.929687.71875 15.140624-5.160156 15.851562-13.289063.71875-8.042969-5.234375-15.144531-13.277344-15.851562zm0 0"/></svg>