<svg height="1063pt" viewBox="-178 -33 1063 1063.7519" width="1063pt" xmlns="http://www.w3.org/2000/svg"><path d="m238.207031 911.871094c-49.894531-90.964844-134.070312-64.386719-137.628906-63.199219-7.644531 2.519531-15.910156-1.601563-18.46875-9.222656-2.546875-7.628907 1.519531-15.882813 9.140625-18.46875 1.136719-.378907 28.300781-9.402344 63.054688-4.371094 32.203124 4.65625 77.335937 22.53125 109.519531 81.21875 3.875 7.078125 1.285156 15.945313-5.785157 19.835937-7.0625 3.855469-15.941406 1.304688-19.832031-5.792968zm0 0"/><path d="m428.527344 917.664062c-7.078125-3.886718-9.664063-12.757812-5.785156-19.835937 32.183593-58.6875 77.320312-76.566406 109.511718-81.21875 34.761719-5.03125 61.921875 3.980469 63.0625 4.371094 7.640625 2.585937 11.738282 10.890625 9.140625 18.527343-2.589843 7.636719-10.871093 11.742188-18.519531 9.140626-3.507812-1.164063-87.695312-27.742188-137.574219 63.222656-3.898437 7.097656-12.777343 9.652344-19.835937 5.792968zm0 0"/><path d="m186.941406 940.925781c-8.484375-9.175781-20.464844-15.101562-33.742187-16.679687-210.359375-25.117188-214.804688-294.410156-33.179688-364.9375 12.804688-4.976563 21.753907-16.816406 23.363281-30.925782l11.078126-97.273437c.910156-8.019531 8.144531-13.761719 16.167968-12.867187 8.011719.910156 13.769532 8.152343 12.851563 16.167968l-11.070313 97.277344c-2.84375 24.921875-18.867187 45.933594-41.8125 54.855469-95.007812 36.882812-142.960937 150.601562-91.261718 238.335937 24.035156 40.789063 62.417968 63.804688 117.332031 70.355469 20.160156 2.40625 38.523437 11.59375 51.71875 25.851563 55.207031 59.703124 214.613281 59.664062 269.792969 0 13.183593-14.257813 31.5625-23.445313 51.722656-25.851563 54.910156-6.550781 93.292968-29.566406 117.335937-70.355469 51.746094-87.820312 3.648438-201.484375-91.269531-238.335937-22.953125-8.921875-38.972656-29.933594-41.8125-54.855469l-44.457031-390.269531c-7.15625-62.855469-59.84375-114.511719-127.039063-114.304688-64.328125.273438-118.417968 49.445313-125.808594 114.378907l-24.835937 218.050781c-.914063 8.011719-8.171875 13.746093-16.167969 12.851562-8.011718-.90625-13.769531-8.144531-12.863281-16.167969l24.835937-218.035156c9.171876-80.488281 77.53125-143.039062 161.476563-140.203125 76.382813 2.589844 140.628906 62.824219 149.429687 140.121094l44.457032 390.273437c1.609375 14.109376 10.554687 25.949219 23.359375 30.925782 42.964843 16.679687 77.351562 45.722656 102.171875 86.300781 66.25 108.273437 17.351562 260.40625-135.355469 278.636719-13.273437 1.578125-25.261719 7.503906-33.730469 16.679687-66.878906 72.332031-245.832031 72.304688-312.6875 0zm0 0"/></svg>