<svg height="1063pt" viewBox="-251 -33 1063 1063.7487" width="1063pt" xmlns="http://www.w3.org/2000/svg"><path d="m246.394531 87.296875h4.125v4.121094c0 8.078125 6.546875 14.621093 14.605469 14.621093 8.074219 0 14.621094-6.542968 14.621094-14.621093v-4.121094h4.125c8.058594 0 14.601562-6.542969 14.601562-14.617187 0-8.066407-6.542968-14.605469-14.601562-14.605469h-4.125v-4.125c0-8.074219-6.546875-14.609375-14.621094-14.609375-8.058594 0-14.605469 6.535156-14.605469 14.609375v4.125h-4.125c-8.074219 0-14.613281 6.539062-14.613281 14.605469 0 8.074218 6.539062 14.617187 14.613281 14.617187zm0 0"/><path d="m543.171875 831.769531-16.199219-66.496093c-1.910156-7.839844-9.824218-12.644532-17.65625-10.734376-7.839844 1.90625-12.644531 9.808594-10.734375 17.660157l16.195313 66.488281c5.984375 24.554688-5.183594 50.550781-27.144532 63.21875-149.722656 86.320312-295.285156 86.320312-445 0-21.976562-12.667969-33.140624-38.664062-27.160156-63.21875l41.316406-169.539062c13.070313-53.675782 54.214844-93.832032 105.492188-107.644532l90.191406 156.238282c5.613282 9.71875 19.6875 9.726562 25.308594 0l90.199219-156.238282c51.273437 13.8125 92.410156 53.96875 105.492187 107.644532l8.589844 35.238281c1.914062 7.839843 9.808594 12.636719 17.652344 10.738281 7.839844-1.914062 12.640625-9.816406 10.734375-17.65625l-8.585938-35.246094c-19.269531-79.066406-89.089843-134.507812-170.273437-135.519531v-32.675781h48.457031c54.152344 0 99.140625-40.714844 104.632813-94.707032 3.582031-35.230468 4.996093-109.851562 4.78125-141.71875-.433594-65.128906-33.054688-123.472656-86.441407-159.964843l20.058594-52.355469c2.882813-7.546875-.878906-15.992188-8.414063-18.871094-98.808593-37.875-199.417968-37.90625-299.03125-.09375-3.621093 1.371094-6.550781 4.128906-8.140624 7.667969-1.578126 3.527344-1.699219 7.546875-.328126 11.171875l19.953126 52.5625c-53.3125 36.488281-85.886719 94.8125-86.324219 159.882812-.214844 31.867188 1.203125 106.488282 4.792969 141.71875 5.480468 53.992188 50.472656 94.707032 104.625 94.707032h48.460937v32.675781c-81.183594 1.011719-151.015625 56.453125-170.277344 135.519531l-41.3125 169.546875c-9.035156 37.089844 7.808594 76.339844 40.953125 95.441407 157.324219 90.710937 316.855469 90.710937 474.191406 0 33.140626-19.101563 49.980469-58.351563 40.945313-95.441407zm-152.695313-783.078125-18.570312 48.46875-16.304688 42.542969c-59.378906-19.8125-118.945312-20.570313-181.261718.09375l-34.582032-91.121094c83.574219-28.554687 167.78125-28.554687 250.71875.015625zm-315.832031 347.671875c-3.230469-31.808593-4.871093-102.148437-4.628906-138.570312.351563-53.152344 25.238281-101.707031 67.375-133.003907 15.832031 37.851563 12.546875 43.472657 24.375 46.949219 1.351563.398438 2.558594 1.222657 3.992187 1.222657 1.71875 0 3.476563-.308594 5.179688-.957032 63.617188-24.148437 125.101562-24.175781 187.964844-.085937 3.617187 1.386719 7.636718 1.28125 11.175781-.292969 3.539063-1.585938 6.308594-4.5 7.695313-8.125l14.898437-38.863281c42.261719 31.296875 67.21875 79.90625 67.570313 133.152343.238281 36.425782-1.398438 106.765626-4.632813 138.574219-3.96875 39.015625-36.453125 68.441407-75.5625 68.441407h-36.253906c38.605469-25.597657 64.179687-69.34375 64.179687-119.039063v-110.695313c0-1.046874-2.089844-6.042968-3.171875-7.660156-1.089843-1.621094-4.90625-5.453125-5.886719-5.855468-41.652343-17.132813-75.25-51.257813-75.578124-51.582032-5.15625-5.300781-13.457032-5.894531-19.335938-1.4375-.671875.515625-68.226562 50.960938-167.246094 51.925782-2.003906.019531-3.386718 1.429687-5.113281 2.1875-1.738281.742187-3.800781.839843-5.101563 2.164062-1.324218 1.339844-1.410156 3.410156-2.148437 5.179688-.714844 1.726562-2.109375 3.089843-2.109375 5.085937v41.503906c0 8.070313 6.546875 14.617188 14.621094 14.617188 8.0625 0 14.605468-6.546875 14.605468-14.617188v-28.363281c78.902344-4.417969 137.316407-34.925781 159.851563-49.34375 12.566406 11.328125 37.453125 31.164062 67.382813 45.28125v101.621094c0 62.640625-50.96875 113.617187-113.617188 113.617187-62.644531 0-113.617188-50.976562-113.617188-113.617187 0-8.078125-6.542968-14.621094-14.613281-14.621094-8.066406 0-14.613281 6.542969-14.613281 14.621094 0 49.691406 25.574219 93.429687 64.183594 119.027344h-36.257813c-39.109375 0-71.585937-29.425782-75.5625-68.441407zm126.265625 159.550781h12.363282c8.074218 0 14.617187-6.53125 14.617187-14.609374v-51.589844c24.074219 7.363281 50.394531 7.363281 74.472656 0v51.589844c0 8.0625 6.546875 14.609374 14.617188 14.609374h12.359375c2.636718 0 5.148437.519532 7.746094.660157l-71.960938 124.640625-71.957031-124.640625c2.597656-.140625 5.113281-.660157 7.742187-.660157zm0 0"/></svg>