<svg height="1063pt" viewBox="-193 -33 1063 1063.7507" width="1063pt" xmlns="http://www.w3.org/2000/svg"><path d="m115.414062 264.703125c68.808594 69.441406 187.742188 20.554687 187.742188-77.222656 0-29.597657-11.820312-57.308594-32.679688-78.160157-67.664062-67.582031-186.9375-20.164062-186.9375 78.160157 0 29.878906 12.074219 56.949219 31.503907 76.773437.09375.097656.046875.253906.148437.355469.058594.0625.15625.035156.222656.09375zm32.695313-12.351563 110.117187-110.113281c51.847657 74.066407-36.214843 161.855469-110.117187 110.113281zm89.253906-130.570312-109.714843 109.707031c-49.460938-73.488281 36.230468-159.167969 109.714843-109.707031zm0 0"/><path d="m536.34375 109.320312c-19.078125-19.085937-47.210938-31.652343-77.140625-31.652343-99.617187 0-145.492187 121.742187-77.917969 187.035156 68.796875 69.441406 187.734375 20.554687 187.734375-77.222656 0-29.597657-11.820312-57.308594-32.675781-78.160157zm-33.125 12.460938-109.710938 109.707031c-49.707031-73.851562 36.496094-158.984375 109.710938-109.707031zm-89.253906 130.570312 110.113281-110.113281c51.449219 73.460938-35.628906 162.265625-110.113281 110.113281zm0 0"/><path d="m115.042969 566.222656c.09375.105469.046875.261719.148437.359375.058594.0625.15625.03125.222656.089844 68.808594 69.445313 187.742188 20.5625 187.742188-77.222656 0-30.257813-12.34375-57.851563-32.679688-78.160157-18.820312-18.792968-46.769531-31.648437-77.125-31.648437-96.582031 0-146.46875 117.0625-78.308593 186.582031zm33.066406-11.898437 110.117187-110.109375c51.773438 73.957031-36.214843 161.855468-110.117187 110.109375zm89.253906-130.566407-109.714843 109.703126c-49.648438-73.753907 36.375-159.078126 109.714843-109.703126zm0 0"/><path d="m459.203125 379.640625c-99.289063 0-145.597656 121.636719-77.917969 187.03125 68.796875 69.445313 187.734375 20.5625 187.734375-77.222656 0-60.34375-49.046875-109.808594-109.816406-109.808594zm44.015625 44.117187-109.710938 109.703126c-49.082031-72.921876 35.511719-159.648438 109.710938-109.703126zm-89.253906 130.566407 110.113281-110.109375c51.449219 73.464844-35.628906 162.261718-110.113281 110.109375zm0 0"/><path d="m115.191406 868.554688c70.03125 69.902343 187.972656 19.972656 187.972656-77.125 0-84.054688-91.25-137.449219-164.585937-95.15625-6.996094 4.023437-9.390625 12.964843-5.359375 19.945312 4.027344 6.988281 12.960938 9.386719 19.953125 5.355469 12.183594-7.019531 26.078125-10.738281 40.179687-10.738281 16.601563 0 31.171876 6.25 44.011719 14.886718l-109.71875 109.714844c-13.328125-19.796875-18.257812-39.695312-12.644531-62.917969 1.886719-7.839843-2.9375-15.738281-10.773438-17.625-7.84375-1.90625-15.742187 2.921875-17.628906 10.773438-2.03125 8.398437-3.058594 17.0625-3.058594 25.761719 0 30.027343 12.609376 58.089843 31.652344 77.125zm32.917969-12.25 110.117187-110.113282c51.433594 73.457032-35.636718 162.265625-110.117187 110.113282zm0 0"/><path d="m459.203125 681.613281c-97.800781 0-146.066406 119.039063-78.152344 186.941407.0625.058593.160157.03125.21875.089843 68.8125 69.445313 187.75 20.558594 187.75-77.214843 0-60.351563-49.03125-109.816407-109.816406-109.816407zm44.015625 44.113281-109.710938 109.710938c-49.707031-73.855469 36.496094-158.988281 109.710938-109.710938zm-89.253906 130.578126 110.113281-110.113282c51.859375 74.050782-36.199219 161.863282-110.113281 110.113282zm0 0"/><path d="m649.695312 367.089844c8.074219 0 14.605469-6.546875 14.605469-14.605469v-284.597656c0-38.546875-31.355469-69.90625-69.890625-69.90625h-536.253906c-38.542969 0-69.898438 31.359375-69.898438 69.90625v857.457031c0 38.546875 31.355469 69.902344 69.898438 69.902344h536.253906c38.535156 0 69.890625-31.355469 69.890625-69.902344v-495.597656c0-8.074219-6.53125-14.613282-14.605469-14.613282-8.0625 0-14.609374 6.539063-14.609374 14.613282v495.597656c0 22.4375-18.246094 40.6875-40.675782 40.6875h-536.253906c-22.4375 0-40.683594-18.25-40.683594-40.6875v-857.457031c0-22.441407 18.246094-40.6875 40.683594-40.6875h536.253906c22.429688 0 40.675782 18.246093 40.675782 40.6875v284.597656c0 8.058594 6.546874 14.605469 14.609374 14.605469zm0 0"/></svg>