<svg height="1065pt" viewBox="-200 -33 1065 1065.0032" width="1065pt" xmlns="http://www.w3.org/2000/svg"><path d="m106.234375 723.355469c-32.988281 0-59.816406 26.839843-59.816406 59.816406v83.824219c0 32.988281 26.828125 59.816406 59.816406 59.816406 32.972656 0 59.8125-26.828125 59.8125-59.816406v-83.824219c0-32.976563-26.839844-59.816406-59.8125-59.816406zm30.5625 143.640625c0 16.855468-13.710937 30.566406-30.5625 30.566406-16.855469 0-30.566406-13.710938-30.566406-30.566406v-83.824219c0-16.855469 13.710937-30.566406 30.566406-30.566406 16.851563 0 30.5625 13.710937 30.5625 30.566406zm0 0"/><path d="m228.359375 335.105469c-27.425781 0-49.726563 22.308593-49.726563 49.726562 0 27.421875 22.300782 49.726563 49.726563 49.726563 27.417969 0 49.726563-22.304688 49.726563-49.726563 0-27.417969-22.308594-49.726562-49.726563-49.726562zm0 70.203125c-11.300781 0-20.476563-9.183594-20.476563-20.476563 0-11.296875 9.175782-20.476562 20.476563-20.476562 11.285156 0 20.476563 9.179687 20.476563 20.476562 0 11.292969-9.199219 20.476563-20.476563 20.476563zm0 0"/><path d="m520.769531 909.007812c37.703125 0 68.382813-30.675781 68.382813-68.375 0-37.707031-30.679688-68.371093-68.382813-68.371093-37.699219 0-68.371093 30.664062-68.371093 68.371093 0 37.699219 30.671874 68.375 68.371093 68.375zm0-107.5c21.582031 0 39.132813 17.550782 39.132813 39.125 0 21.574219-17.550782 39.125-39.132813 39.125-21.566406 0-39.121093-17.550781-39.121093-39.125 0-21.574218 17.554687-39.125 39.121093-39.125zm0 0"/><path d="m438.460938 737.925781-119.210938-290.5c6.503906-9.367187 11.792969-19.726562 15.230469-31.035156l75.242187-75.242187c5.714844-5.710938 5.714844-14.972657 0-20.675782-5.710937-5.722656-14.964844-5.722656-20.683594-.015625-82.015624 83.003907-79.929687 77.742188-81.726562 84.542969-3.96875 15.003906-12.621094 27.445312-23.273438 37.664062-8.339843 8.03125-9.128906 9.027344-21.816406 15.011719-3.523437 1.660157-6.921875 3.542969-10.683594 4.695313-13.273437 4.0625-24.539062 5.21875-38.605468 2.707031-8.988282-1.601563-17.199219 5.316406-17.199219 14.394531v398.195313c0 49.34375-40.160156 89.503906-89.5 89.503906-49.355469 0-89.507813-40.160156-89.507813-89.503906v-105.164063c0-66.128906 69.402344-109.09375 128.339844-80.660156 9.71875 4.683594 20.980469-2.425781 20.980469-13.171875-1.125-243.085937 2.800781-236.007813-3.175781-243.511719-50.132813-63.042968 12.015625-153.597656 88.980468-129.738281 4.339844 1.355469 8.710938 2.628906 12.847657 4.722656 5.644531 2.84375 12.46875 1.761719 16.945312-2.707031l171.710938-171.722656c16.601562-16.589844 43.605469-16.605469 60.207031 0 16.605469 16.609375 16.605469 43.617187 0 60.226562l-78.914062 78.902344c-5.707032 5.714844-5.707032 14.980469 0 20.691406 5.722656 5.710938 14.984374 5.710938 20.6875 0l78.914062-78.917968c44.96875-44.972657 13.019531-122.621094-50.789062-122.621094-19.195313 0-37.230469 7.472656-50.796876 21.042968l-158.40625 158.402344v-203.632812c0-39.605469-32.21875-71.828125-71.824218-71.828125-39.609375 0-71.824219 32.222656-71.824219 71.828125v259.320312c-22.875 40.320313-18.347656 86.121094 6.1875 120.046875v208.535157c-9.890625-2.632813-20.109375-3.953126-30.5625-3.953126-65.476563 0-118.757813 53.261719-118.757813 118.746094v105.164063c0 65.480469 53.273438 118.753906 118.757813 118.753906 65.476563 0 118.75-53.273437 118.75-118.753906v-382.054688c8.644531.21875 10.714844-1.464843 17.707031-2.449219l53.820313 131.132813c3.0625 7.46875 11.597656 11.046875 19.082031 7.976563 7.472656-3.0625 11.042969-11.609376 7.980469-19.078126l-51.953125-126.585937c5.730468-2.449219 10.707031-6.199219 15.917968-9.566406.199219-.121094 8.773438-5.058594 9.828126-5.894531l122.15625 297.664062c4.097656 9.996094 17.316406 12.25 24.496093 4.117188 20.367188-23.078126 49.746094-35.722657 80.480469-34.609376 89.550781 3.171876 131.085938 111.398438 69.1875 174.191407-55.605469 56.382812-152.089844 30.863281-172.011719-46.136719-14.859375-57.4375-36.757812-101.300781-69.019531-182.289062-3.058594-7.472657-11.609375-11.050782-19.078125-7.984376-7.472656 3.074219-11.035156 11.609376-7.980469 19.085938 32.191406 80.722656 53.550782 123.605469 67.761719 178.511719 15.015625 58.03125 67.402344 98.566406 127.410156 98.566406 73.492188 0 132.65625-60 131.617188-133.539063-1.539063-109.046874-128.925781-169.089843-213.925781-100.800781zm-278.601563-668.117187c0-23.476563 19.101563-42.574219 42.574219-42.574219 23.480468 0 42.570312 19.097656 42.570312 42.574219v203.59375c-30.203125-4.78125-60.972656 4.238281-82.863281 20.144531-.699219.503906-1.597656.691406-2.285156 1.210937v-224.949218zm0 0"/></svg>