<svg height="1065pt" viewBox="-33 -153 1065.0001 1065" width="1065pt" xmlns="http://www.w3.org/2000/svg"><path d="m981.792969 719.675781h-969.183594c-8.074219 0-14.628906 6.542969-14.628906 14.625 0 8.070313 6.554687 14.625 14.628906 14.625h969.183594c8.074219 0 14.625-6.554687 14.625-14.625 0-8.082031-6.550781-14.625-14.625-14.625zm0 0"/><path d="m257.535156 342.332031c-37.582031 0-42.089844 39-61.222656 39-19.136719 0-23.566406-39-61.230469-39-37.585937 0-42.097656 39-61.238281 39-19.132812 0-23.574219-39-61.234375-39-8.074219 0-14.628906 6.542969-14.628906 14.625 0 8.078125 6.554687 14.625 14.628906 14.625 7.488281 0 11.1875 3.8125 19.109375 13.910157 8.316406 10.589843 19.707031 25.097656 42.125 25.097656 37.585938 0 42.105469-39.007813 61.238281-39.007813 19.121094 0 23.589844 39.007813 61.230469 39.007813 37.578125 0 42.101562-39.007813 61.222656-39.007813 17.285156 0 20.984375 29.484375 49.785156 37.132813 26.136719 155.917968 218.460938 215.394531 328.367188 101.898437 27.636719-28.554687 45.261719-63.933593 51.683594-102.046875 27.703125-7.960937 31.855468-36.984375 48.886718-36.984375 19.132813 0 23.566407 39.007813 61.222657 39.007813 37.582031 0 42.105469-39.007813 61.230469-39.007813 19.132812 0 23.574218 39.007813 61.234374 39.007813 37.59375 0 42.113282-39.007813 61.238282-39.007813 8.082031 0 14.628906-6.546875 14.628906-14.625 0-8.082031-6.546875-14.625-14.628906-14.625-37.585938 0-42.101563 39-61.238282 39-19.136718 0-23.566406-39-61.234374-39-37.574219 0-42.09375 39-61.230469 39-19.128907 0-23.558594-39-61.222657-39-23.761718 0-34.0625 15.449219-46.136718 29.527344-.28125-11.964844-1.578125-23.925781-4.042969-35.550781-3.613281-17.023438 9.363281-33.019532 26.75-33.019532h268.964844c8.074219 0 14.625-6.546874 14.625-14.625 0-8.082031-6.550781-14.625-14.625-14.625h-268.972657c-17.144531 0-33.167968 7.640626-43.964843 20.960938-10.804688 13.324219-14.953125 30.589844-11.394531 47.363281 33.285156 157.207031-159.539063 264.890625-275.300782 150.707031-41.050781-40.503906-56.53125-97.433593-45.195312-150.804687 7.449218-35.039063-19.660156-68.226563-55.800782-68.226563h-268.554687c-8.074219 0-14.628906 6.542969-14.628906 14.625 0 8.078126 6.554687 14.625 14.628906 14.625h268.554687c17.542969 0 30.773438 16.058594 27.191407 32.910157-2.542969 11.953125-3.597657 24.28125-3.832031 36.605469-12.234376-13.773438-22.136719-30.472657-46.988282-30.472657zm0 0"/><path d="m302.988281 569.5c0 13.996094-11.347656 25.351562-25.351562 25.351562-14.007813 0-25.351563-11.355468-25.351563-25.351562 0-14.007812 11.34375-25.351562 25.351563-25.351562 14.003906 0 25.351562 11.34375 25.351562 25.351562zm0 0"/><path d="m94.328125 633.851562c0 13.996094-11.347656 25.351563-25.347656 25.351563-14.007813 0-25.351563-11.355469-25.351563-25.351563 0-14.007812 11.34375-25.351562 25.351563-25.351562 14 0 25.347656 11.34375 25.347656 25.351562zm0 0"/><path d="m158.683594 509.023438c0 13.992187-11.347656 25.347656-25.351563 25.347656-14.007812 0-25.351562-11.355469-25.351562-25.347656 0-14.007813 11.34375-25.351563 25.351562-25.351563 14.003907 0 25.351563 11.34375 25.351563 25.351563zm0 0"/><path d="m742.117188 569.5c0 13.996094-11.34375 25.351562-25.351563 25.351562-14.003906 0-25.347656-11.355468-25.347656-25.351562 0-14.007812 11.34375-25.351562 25.347656-25.351562 14.007813 0 25.351563 11.34375 25.351563 25.351562zm0 0"/><path d="m950.777344 633.851562c0 13.996094-11.347656 25.351563-25.351563 25.351563-14.007812 0-25.351562-11.355469-25.351562-25.351563 0-14.007812 11.34375-25.351562 25.351562-25.351562 14.003907 0 25.351563 11.34375 25.351563 25.351562zm0 0"/><path d="m886.425781 509.023438c0 13.992187-11.347656 25.347656-25.351562 25.347656-14.007813 0-25.351563-11.355469-25.351563-25.347656 0-14.007813 11.34375-25.351563 25.351563-25.351563 14.003906 0 25.351562 11.34375 25.351562 25.351563zm0 0"/><path d="m497.214844 501.175781c103.035156 0 161.695312-120.101562 96.152344-201.175781-17.355469-21.476562-30.230469-45.980469-38.277344-72.847656-2.316406-7.742188-10.472656-12.132813-18.210938-9.820313-7.730468 2.324219-12.128906 10.476563-9.808594 18.203125 24.527344 81.914063 64.46875 83.824219 64.46875 142.066406 0 52.558594-42.882812 95.066407-95.726562 94.3125-76.644531-1.097656-121.222656-90.855468-72.890625-152.449218 27.21875-34.691406 45.09375-74.652344 51.703125-115.578125l22.574219-139.882813 15.308593 94.851563c1.292969 7.96875 8.792969 13.386719 16.773438 12.109375 7.96875-1.285156 13.394531-8.800782 12.105469-16.769532l-23.613281-146.300781c-3.753907-23.277343-37.390626-23.253906-41.144532 0l-30.882812 191.324219c-5.824219 36.058594-21.667969 71.382812-45.832032 102.183594-17.933593 22.855468-27.242187 51.492187-26.210937 80.628906 1.105469 31.652344 14.308594 61.390625 37.160156 83.753906 23.148438 22.664063 53.800781 35.390625 86.351563 35.390625zm0 0"/></svg>