<svg height="1064pt" viewBox="-35 -33 1064 1064.9975" width="1064pt" xmlns="http://www.w3.org/2000/svg"><path d="m581.792969 489.335938c14.132812 5.195312 27.601562 1.09375 36.515625-7.820313l42.246094-42.257813c78.125 33.667969 160.730468 8.390626 221.605468-52.480468 43.941406-43.957032 82.34375-111.742188 100.207032-176.914063 51.328124-187.269531-77.902344-254.253906-254.546876-175.683593-7.359374 3.265624-10.664062 11.882812-7.398437 19.230468 3.273437 7.359375 11.894531 10.664063 19.238281 7.398438 84.964844-37.789063 162.925782-39.140625 198.632813-3.429688 64.230469 64.230469.210937 231.828125-76.753907 308.777344-181.097656 181.109375-442.574218-103.003906-178.902343-274.4375 6.746093-4.386719 8.65625-13.414062 4.269531-20.15625-4.386719-6.753906-13.410156-8.667969-20.164062-4.28125-122.0625 79.371094-145.9375 184.882812-110.25 267.753906l-42.332032 42.335938c-9.675781 9.679687-13.429687 24.589844-6.816406 38.96875-25.753906 24.675781-65.46875 74.070312-97.886719 164.070312-30.390625 84.355469-81.917969 115.1875-160.972656 115.789063-135.683594 0-203.734375 128.78125-226.703125 184.179687-8.921875 21.519532-16.042969 43.722656-20.046875 62.535156-6.488281 30.382813-4.667969 39.855469 12.664063 50.097657 11.558593 6.835937 22.042968-1.042969 30.515624-11.554688 29.765626-36.863281 106.335938-187.890625 221.347657-183.453125 117.710937 4.539063 200.691406-70.167968 241.09375-182.324218 28.085937-77.960938 59.90625-113.246094 74.4375-126.34375zm-11.125-127.257813c16.375 25.769531 36.652343 45.367187 60.726562 61.152344.777344.511719 1.417969 1.273437 2.207031 1.78125-35.890624 34.546875-35.222656 37.535156-39.871093 37.535156-4.632813 0-2.953125-2.050781-58.964844-56.652344-1.425781-1.417969-1.644531-3.09375-1.644531-3.953125 0-4.683594 3.210937-4.199218 37.546875-39.863281zm-303.292969 406.800781c-111.40625-4.214844-186.003906 107.164063-226.074219 167.039063-4.042969 6.023437-8.3125 12.417969-12.152343 17.886719 5.972656-31.855469 28.773437-101.519532 76.402343-156.996094 37.851563-44.089844 84.992188-71.476563 143.328125-71.476563 95.0625 0 154.804688-42.914062 187.996094-135.046875 30.058594-83.417968 65.898438-128.894531 89.359375-151.703125l32.394531 32.40625c-18.914062 18.265625-51.007812 57.964844-78.683594 134.808594-39.242187 108.925781-114.75 166.859375-212.570312 163.082031zm0 0"/><path d="m18.367188 524.449219c12.191406 0 20.351562-14.5625 27.707031-25.542969 18.269531-27.296875 52.265625-78.101562 97.402343-76.367188 27.765626 1.050782 53.972657-6.386718 75.808594-21.535156 6.613282-4.59375 8.253906-13.667968 3.664063-20.277344-4.582031-6.613281-13.660157-8.257812-20.277344-3.660156-16.832031 11.6875-36.378906 17.179688-58.074219 16.347656-42.703125-1.625-75.070312 26.742188-97.992187 54.941407 18.617187-34.542969 48.960937-64.414063 88.175781-63.292969 51.695312 0 85.589844-24.3125 103.605469-74.324219 13.101562-36.355469 28.21875-58.144531 39.53125-70.574219.207031.203126 7.207031 7.207032 6.765625 6.761719-28.171875 31.339844-34.886719 66.625-47.644532 90.242188-3.824218 7.078125-1.179687 15.921875 5.898438 19.742187 7.082031 3.820313 15.925781 1.1875 19.746094-5.898437 14.441406-26.746094 20.730468-62.039063 46.738281-87.8125 1.160156.167969 2.0625 1.339843 3.230469 1.339843 16.007812 0 21.3125-12.949218 36.410156-26.058593 43.160156 16.160156 85.453125 1.789062 117.339844-30.109375 45.796875-45.800782 84.542968-145.550782 39.582031-190.507813-44.921875-44.925781-144.628906-6.285156-190.503906 39.589844-32.078125 32.070313-46.199219 74.488281-30.132813 117.355469-14.933594 17.03125-29.476562 22.148437-24.960937 41.886718-63.5625 63.867188-36.800781 137.988282-125.8125 139.21875-74.226563 0-111.058594 69.472657-123.4375 99.351563-4.765625 11.488281-8.582031 23.375-10.726563 33.488281-2.722656 12.753906-3.15625 21.917969 3.113282 28.183594 3.992187 3.992188 9.203124 7.511719 14.84375 7.511719zm317.730468-446.394531c40.148438-40.152344 121.457032-67.414063 149.28125-39.585938 35.453125 35.449219-18.796875 176.519531-100.226562 177.617188-58.164063.957031-112.34375-74.742188-49.054688-138.03125zm-13.84375 146.023437-9.601562 9.597656-22.476563-22.46875 9.601563-9.601562c6.335937 8.414062 14.042968 16.128906 22.476562 22.472656zm0 0"/><path d="m973.449219 489.707031c-44.929688-44.921875-144.636719-6.277343-190.503907 39.585938-32.082031 32.082031-46.210937 74.492187-30.140624 117.363281-14.941407 17.042969-29.480469 22.132812-24.964844 41.886719-63.574219 63.890625-36.78125 137.984375-125.804688 139.222656-74.234375 0-111.054687 69.472656-123.441406 99.351563-4.761719 11.476562-8.570312 23.371093-10.726562 33.488281-3.402344 15.964843-3.535157 25.484375 9.835937 33.386719 9.25 5.46875 18.125.699218 24.824219-7.597657 15.671875-19.398437 53.671875-94.113281 108.410156-92.007812 28.316406 1.09375 55-6.679688 77.121094-22.460938 6.554687-4.679687 8.070312-13.78125 3.390625-20.324219-4.667969-6.554687-13.773438-8.078124-20.324219-3.402343-17.054688 12.175781-36.984375 17.90625-59.078125 17.066406-42.726563-1.65625-75.058594 26.734375-97.992187 54.945313 18.621093-34.554688 48.964843-64.421876 88.183593-63.300782 51.695313 0 85.589844-24.316406 103.609375-74.328125 13.089844-36.355469 28.21875-58.136719 39.53125-70.574219.195313.210938 7.199219 7.203126 6.761719 6.769532-28.953125 32.195312-34.738281 67.460937-49.003906 92.699218-3.960938 7.007813-1.492188 15.898438 5.511719 19.863282 7.007812 3.953125 15.898437 1.484375 19.855468-5.523438 15.898438-28.144531 21.96875-64.605468 48.375-90.765625 1.15625.15625 2.058594 1.339844 3.230469 1.339844 16 0 21.308594-12.949219 36.417969-26.058594 123.457031 46.230469 218.988281-158.550781 156.921875-220.625zm-183.742188 206.222657-9.59375 9.597656-22.476562-22.480469 9.59375-9.597656c6.21875 8.253906 13.890625 16.011719 22.476562 22.480469zm123.542969-36.320313c-80.660156 80.660156-190.023438-29.382813-109.699219-109.703125 40.277344-40.277344 121.355469-67.519531 149.292969-39.59375 27.730469 27.742188.773438 108.929688-39.59375 149.296875zm0 0"/></svg>