<svg height="1064pt" viewBox="-33 -33 1064.9995 1064" width="1064pt" xmlns="http://www.w3.org/2000/svg"><path d="m777.550781 574.867188c0 34.488281 28.054688 62.539062 62.53125 62.539062 34.484375 0 62.546875-28.050781 62.546875-62.539062 0-34.484376-28.0625-62.539063-62.546875-62.539063-34.476562 0-62.53125 28.054687-62.53125 62.539063zm95.824219 0c0 18.347656-14.9375 33.28125-33.292969 33.28125-18.351562 0-33.277343-14.933594-33.277343-33.28125 0-18.347657 14.925781-33.277344 33.277343-33.277344 18.355469 0 33.292969 14.929687 33.292969 33.277344zm0 0"/><path d="m970.730469 489.660156c-4.453125-6.746094-13.53125-8.585937-20.273438-4.128906-6.734375 4.460938-8.582031 13.535156-4.125 20.269531 53.871094 81.402344-1.445312 195.152344-106.996093 195.152344-109.644532 0-166.640626-135.589844-87.40625-214.832031 42.214843-42.210938 108.929687-48.980469 158.640624-16.089844 6.734376 4.464844 15.816407 2.613281 20.273438-4.121094 4.449219-6.734375 2.609375-15.808594-4.125-20.269531-102.648438-67.9375-240.972656 5.867187-240.972656 129.636719 0 81.550781 62.128906 146.46875 138.960937 154.476562v82.089844c0 85.359375-69.433593 154.800781-154.785156 154.800781h-159.285156c-85.351563 0-154.789063-69.441406-154.789063-154.800781v-54.019531c22.96875-6.40625 39.875-27.503907 39.875-52.492188v-61.164062h38.351563c117.382812 0 216.816406-87.828125 231.308593-204.304688l18.746094-150.648437c3.105469-24.984375-11.152344-47.859375-32.976562-56.988282v-81.75c0-48.398437-39.378906-87.769531-87.773438-87.769531h-33.144531v-22.773437c0-22.925782-18.648437-41.574219-41.570313-41.574219h-19.855468c-43.222656 0-78.382813 35.164063-78.382813 78.386719v1.167968c0 43.21875 35.160157 78.390626 78.382813 78.390626h19.855468c22.921876 0 41.570313-18.65625 41.570313-41.566407v-22.78125h33.144531c32.265625 0 58.507813 26.253907 58.507813 58.519531v78.132813c-23.519531 3.570313-42.847657 22.394531-45.929688 47.140625l-18.742187 150.648438c-7.722656 62.011718-60.652344 108.777343-123.140625 108.777343h-63.332031c-8.078126 0-14.625 6.546875-14.625 14.625 0 8.070313 6.546874 14.625 14.625 14.625h63.332031c77.21875 0 142.640625-57.78125 152.164062-134.40625l18.742188-150.648437c1.722656-13.820313 14.375-23.667969 28.175781-21.9375 13.839844 1.722656 23.652344 14.320312 21.929688 28.164062l-18.738282 150.660156c-12.671875 101.84375-99.632812 178.65625-202.273437 178.65625h-52.976563c-8.085937 0-14.625 6.546876-14.625 14.628907v75.789062c0 13.929688-11.328125 25.25-25.253906 25.25-13.917969 0-25.25-11.320312-25.25-25.25v-75.789062c0-8.082031-6.539062-14.628907-14.625-14.628907h-52.972656c-102.648438 0-189.605469-76.8125-202.277344-178.65625l-18.746094-150.660156c-1.726562-13.808594 8.117188-26.441406 21.9375-28.164062 13.886719-1.722656 26.449219 8.117187 28.164063 21.9375l18.753906 150.648437c9.527344 76.625 74.941406 134.40625 152.152344 134.40625h63.34375c8.074219 0 14.625-6.554687 14.625-14.625 0-8.078125-6.550781-14.625-14.625-14.625h-63.34375c-62.480469 0-115.417969-46.765625-123.132813-108.777343l-18.742187-150.640626c-3.054688-24.605468-21.875-42.878906-44.371094-46.914062v-78.367188c0-32.265624 26.242187-58.519531 58.503906-58.519531h33.144531v22.769531c0 22.921876 18.652344 41.574219 41.570313 41.574219h19.859375c43.21875 0 78.382812-35.167969 78.382812-78.386719v-1.167968c0-43.222656-35.164062-78.386719-78.382812-78.386719h-19.859375c-22.917969 0-41.570313 18.648437-41.570313 41.574219v22.769531h-33.132812c-48.394531 0-87.765625 39.371094-87.765625 87.765625v81.136719c-22.839844 8.789062-37.695313 32.269531-34.542969 57.609375l18.746094 150.648437c14.488281 116.476563 113.925781 204.304688 231.308594 204.304688h38.347656v61.175781c0 24.984375 16.902344 46.074219 39.875 52.492188v54.023437c0 101.476563 82.566406 184.035156 184.042969 184.035156h159.285156c101.476563 0 184.039063-82.558593 184.039063-184.035156v-81.800781c36.636718-2.984375 70.691406-18.648438 96.972656-44.921875 52.007812-52.027344 60.332031-134.222657 19.796875-195.476563zm-469.753907-374.933594c0 6.792969-5.519531 12.324219-12.3125 12.324219h-19.855468c-27.09375 0-49.132813-22.042969-49.132813-49.136719v-1.167968c0-27.089844 22.039063-49.136719 49.132813-49.136719h19.855468c6.792969 0 12.3125 5.53125 12.3125 12.324219zm-317.957031-74.792968c0-6.789063 5.519531-12.308594 12.308594-12.308594h19.863281c27.089844 0 49.128906 22.03125 49.128906 49.121094v1.167968c0 27.09375-22.039062 49.136719-49.128906 49.136719h-19.863281c-6.789063 0-12.308594-5.53125-12.308594-12.3125zm0 0"/></svg>