<svg height="1065pt" viewBox="-216 -33 1065 1065.0001" width="1065pt" xmlns="http://www.w3.org/2000/svg"><path d="m508.613281 160.816406c-6.246093-5.117187-15.457031-4.203125-20.574219 2.058594-5.121093 6.242188-4.199218 15.457031 2.046876 20.578125 77.859374 63.738281 107.398437 170.148437 99.464843 269.761719-27.976562 13.96875-135.507812 62.78125-196 21.078125-47.636719-32.835938-103.464843-34.277344-153.476562-8.953125-4.152344-7.417969-9.347657-14.183594-16.144531-19.417969-39.6875-30.554687-66.65625-101.308594-44.175782-176.71875 34.09375-114.132813 153.160156-160.6875 256.0625-118.25 7.46875 3.082031 16.023438-.472656 19.101563-7.941406 3.082031-7.464844-.472657-16.019531-7.945313-19.097657-91.527344-37.757812-201.386718-15.828124-264.347656 72.820313-.148438-.027344-8.789062-2.015625-11.714844-2.695313-31.675781-7.117187-53.800781-34.78125-53.800781-67.242187v-114.1875c0-8.074219-6.550781-14.628906-14.625-14.628906-8.082031 0-14.625 6.554687-14.625 14.628906v114.1875c0 46.242187 31.503906 85.632813 76.632813 95.78125l1.621093.363281c-2.742187 5.292969-4.054687 11.160156-6.339843 16.636719-2.777344 6.675781-5.546876 13.179687-7.636719 20.054687-.964844 3.164063-2.703125 6.03125-3.527344 9.238282-64.460937-17-109.503906-75.328125-109.503906-142.070313v-114.191406c0-8.074219-6.546875-14.628906-14.625-14.628906-8.074219 0-14.625 6.554687-14.625 14.628906v114.1875c0 79.148437 53.222656 150.890625 134.191406 170.832031-8.964844 76.234375 21.425781 140.207032 62.042969 171.472656 20.132812 15.496094 19.125 54.578126-9.179688 63.5-8.796875 2.773438-17.253906 5.945313-25.160156 9.4375-43.730469 19.328126-73.664062 60.171876-80.355469 108.472657-58.953125 7.144531-104.9375 57.710937-104.9375 118.398437v212.882813c0 8.074219 6.550781 14.625 14.625 14.625 8.070313 0 14.625-6.550781 14.625-14.625v-212.882813c0-49.183594 40.011719-89.5625 89.203125-89.996094 7.746094-.082031 14.089844-6.167968 14.476563-13.898437 2.148437-42.800781 26.746093-79.671875 64.195312-96.222656 6.90625-3.058594 14.351563-5.839844 22.121094-8.285157 18.375-5.804687 33.1875-20.164062 39.621094-38.4375 3.070312-8.695312 3.585937-18.167968 2.867187-27.925781 17.984375-10.410156 71.796875-35.027343 128.753906 4.226563 57.46875 39.625 144.71875 17.648437 208.148438-10.726563-9.386719 54.890625-30.285156 107.972657-62.582031 154.933594-60.363281 87.769531-140.355469 136.515625-244.578125 149.027344-58.328125 7-112.214844-19.640625-139.066406-57.8125-2.808594-3.992188-7.558594-6.535157-13.296876-6.152344h-19.832031c-22.761719 0-41.28125 18.515625-41.28125 41.277344v212.875c0 8.074219 6.550781 14.625 14.625 14.625 8.078125 0 14.625-6.550781 14.625-14.625v-212.882813c0-6.628906 5.394531-12.035156 12.03125-12.035156h13.878907c34.445312 43.5 95.441406 71.746094 161.804687 63.773438 344.136719-41.320313 437.039063-488.050782 227.191406-659.832032zm0 0"/><path d="m311.867188 569.597656c0 10.09375-8.183594 18.28125-18.28125 18.28125-10.089844 0-18.285157-8.1875-18.285157-18.28125 0-10.089844 8.195313-18.28125 18.285157-18.28125 10.097656 0 18.28125 8.191406 18.28125 18.28125zm0 0"/><path d="m462.753906 607.621094c0 10.09375-8.183594 18.285156-18.28125 18.285156-10.089844 0-18.285156-8.191406-18.285156-18.285156 0-10.089844 8.195312-18.277344 18.285156-18.277344 10.097656 0 18.28125 8.1875 18.28125 18.277344zm0 0"/><path d="m297.972656 700.253906c0 10.089844-8.183594 18.28125-18.28125 18.28125-10.089844 0-18.285156-8.191406-18.285156-18.28125 0-10.09375 8.195312-18.285156 18.285156-18.285156 10.097656 0 18.28125 8.191406 18.28125 18.285156zm0 0"/></svg>