<svg height="1065pt" viewBox="-33 -33 1065 1065.0008" width="1065pt" xmlns="http://www.w3.org/2000/svg"><path d="m772.410156 142.660156-358.949218 358.960938c-21.867188 21.855468-21.867188 57.417968 0 79.285156 21.851562 21.851562 57.417968 21.859375 79.277343 0l305.730469-305.738281c5.710938-5.699219 5.710938-14.953125 0-20.65625-5.703125-5.703125-14.945312-5.703125-20.65625 0l-305.726562 305.734375c-10.472657 10.464844-27.503907 10.464844-37.980469 0-10.464844-10.46875-10.464844-27.5 0-37.976563l358.96875-358.953125c16.777343-16.777344 45.832031-4.984375 45.832031 18.980469 0 7.175781-2.792969 13.917969-7.867188 18.988281-5.699218 5.699219-5.699218 14.949219 0 20.652344 21.363282 21.371094 58.71875-41.214844 20.65625-79.277344-21.855468-21.855468-57.417968-21.855468-79.285156 0zm0 0"/><path d="m969.066406 139.128906-113.84375-113.839844c-36.40625-36.414062-95.359375-36.414062-131.765625 0-307.878906 308.25-292.714843 291.871094-310.449219 311.558594-116.453124 129.28125-90.367187 190.671875-183.660156 312.816406-4.890625 6.417969-3.667968 15.582032 2.742188 20.476563 6.410156 4.898437 15.582031 3.675781 20.476562-2.742187 16.925782-22.160157 32.15625-45.492188 45.601563-69.8125 11.785156 48.800781 49.699219 86.777343 98.570312 98.59375-101.582031 56.070312-145.609375 118.648437-214.628906 183.351562l-67.28125-67.285156 88.011719-88.011719c5.699218-5.707031 5.699218-14.949219 0-20.652344-5.707032-5.703125-14.949219-5.703125-20.65625 0l-161.734375 161.722657c-30.003907 30.011718-30.011719 78.582031 0 108.609374 30.007812 30 78.578125 30.011719 108.605469 0l161.71875-161.738281c91.242187-91.222656 177.476562-116.445312 217.011718-133.898437 64.09375-28.292969 121.691406-67.785156 171.566406-117.65625l289.714844-289.722656c36.410156-36.410157 36.414063-95.355469 0-131.769532zm-860.667968 814.113282c-8.992188 8.988281-20.945313 13.941406-33.652344 13.941406-42.597656 0-63.300782-51.5625-33.636719-81.222656l53.0625-53.058594 67.285156 67.28125zm840.007812-702.996094c-302.507812 302.15625-291.816406 292.605468-310.433594 309.375-52.886718 47.640625-107.59375 79.214844-171.574218 103.996094-84.945313 32.929687-168.648438-50.5625-135.65625-135.664063 1.820312-3.875 25.476562-74.855469 83.582031-147.496094l23.890625 23.886719c5.703125 5.707031 14.957031 5.707031 20.65625 0 5.703125-5.703125 5.703125-14.957031 0-20.660156l-25.625-25.613282c15.011718-16.804687 24.667968-25.78125 34.164062-35.421874l26.253906 26.246093c5.703126 5.710938 14.945313 5.710938 20.648438 0 5.707031-5.703125 5.707031-14.945312 0-20.648437l-26.25-26.257813 34.789062-34.789062 26.25 26.257812c5.703126 5.703125 14.949219 5.703125 20.65625 0 5.703126-5.703125 5.703126-14.949219 0-20.65625l-26.246093-26.25 34.785156-34.789062 26.253906 26.246093c5.699219 5.710938 14.953125 5.710938 20.65625 0 5.699219-5.699218 5.699219-14.949218 0-20.65625l-26.257812-26.246093 34.792969-34.792969 26.253906 26.253906c5.707031 5.703125 14.949218 5.703125 20.664062 0 5.699219-5.710937 5.699219-14.957031 0-20.65625l-26.253906-26.253906 34.789062-34.789062 26.246094 26.25c5.710938 5.703124 14.953125 5.703124 20.652344 0 5.707031-5.695313 5.707031-14.953126 0-20.652344l-26.25-26.246094 34.265625-34.269531c23.539063-23.542969 60.699219-24.855469 85.742187-4.277344 4.453126 3.65625-1.375-1.664063 118.554688 118.113281 25 25.007813 25 65.457032 0 90.460938zm0 0"/></svg>