<svg height="1065pt" viewBox="-174 -33 1065 1065.0001" width="1065pt" xmlns="http://www.w3.org/2000/svg"><path d="m606.089844 723.410156c0 12.21875-9.90625 22.125-22.125 22.125s-22.132813-9.90625-22.132813-22.125 9.914063-22.125 22.132813-22.125 22.125 9.90625 22.125 22.125zm0 0"/><path d="m491.714844 883.53125c0 10.667969-8.652344 19.324219-19.328125 19.324219-10.679688 0-19.332031-8.65625-19.332031-19.324219 0-10.683594 8.652343-19.339844 19.332031-19.339844 10.675781 0 19.328125 8.65625 19.328125 19.339844zm0 0"/><path d="m178.097656 693.578125c0 10.683594-8.652344 19.339844-19.332031 19.339844s-19.339844-8.65625-19.339844-19.339844 8.660157-19.335937 19.339844-19.335937 19.332031 8.652343 19.332031 19.335937zm0 0"/><path d="m241.640625 883.53125c0 10.667969-8.648437 19.324219-19.324219 19.324219-10.679687 0-19.332031-8.65625-19.332031-19.324219 0-10.683594 8.652344-19.339844 19.332031-19.339844 10.675782 0 19.324219 8.65625 19.324219 19.339844zm0 0"/><path d="m362.828125 738.308594c0 12.890625-10.449219 23.339844-23.335937 23.339844-12.894532 0-23.34375-10.449219-23.34375-23.339844s10.449218-23.332032 23.34375-23.332032c12.886718 0 23.335937 10.441407 23.335937 23.332032zm0 0"/><path d="m639.761719 502.140625c-40.433594-56.953125-95.972657-100.671875-160.597657-126.429687-9.085937-3.617188-14.957031-12.171876-14.957031-21.800782v-243.796875h20.640625c21.410156 0 38.835938-17.421875 38.835938-38.847656v-34.441406c0-21.417969-17.425782-38.84375-38.835938-38.84375h-77.195312c-8.082032 0-14.625 6.546875-14.625 14.628906 0 8.078125 6.542968 14.625 14.625 14.625h77.195312c5.28125 0 9.585938 4.300781 9.585938 9.589844v34.441406c0 5.292969-4.304688 9.597656-9.585938 9.597656h-275.289062c-5.292969 0-9.585938-4.304687-9.585938-9.597656v-34.441406c0-5.289063 4.292969-9.589844 9.585938-9.589844h126.59375c8.078125 0 14.628906-6.546875 14.628906-14.625 0-8.082031-6.550781-14.628906-14.628906-14.628906h-126.59375c-21.414063 0-38.835938 17.425781-38.835938 38.84375v34.441406c0 21.425781 17.421875 38.847656 38.835938 38.847656h20.640625v120.574219c0 8.078125 6.542969 14.625 14.625 14.625 8.078125 0 14.625-6.546875 14.625-14.625v-120.574219h175.507812v243.796875c0 21.664063 13.101563 40.898438 33.382813 48.96875 86.921875 34.648438 152.390625 103.351563 184.964844 186.925782-14.203126 9.355468-44.304688 27.167968-85.03125 39.066406-74.972657 21.90625-146.90625 13.554687-213.800782-24.804688-98.253906-56.34375-211.613281-58.472656-312.859375-15.972656 32.601563-83.039062 97.519531-150.980469 184.398438-185.398438 20.316406-8.042968 33.4375-27.273437 33.4375-48.996093v-49.554688c0-8.082031-6.546875-14.625-14.625-14.625-8.082031 0-14.625 6.542969-14.625 14.625v49.554688c0 9.648437-5.871094 18.203125-14.960938 21.804687-238.65625 94.546875-302.136719 402.523438-124.054687 584.214844 22.859375 23.324219 54.757812 36.699219 87.53125 36.699219h336.976562c32.808594 0 64.804688-13.472657 87.78125-36.957031 126.675782-129.519532 131.722656-322.894532 36.289063-457.320313zm-57.195313 436.871094c-17.511718 17.886719-41.886718 28.15625-66.875 28.15625h-336.976562c-24.957032 0-49.246094-10.175781-66.636719-27.921875-77.320313-78.882813-113.636719-193.589844-82.863281-313.15625 12.753906-6.765625 46.402344-22.953125 92.199218-31.921875 77.660157-15.195313 151.183594-3.332031 218.503907 35.277343 92.691406 53.148438 180.410156 44.113282 237.667969 27.171876 38.269531-11.320313 67.980468-27.335938 85.480468-38.199219 32.46875 113.339843 3.992188 234.199219-80.5 320.59375zm0 0"/></svg>