<svg height="1064pt" viewBox="-110 -33 1064 1064.9978" width="1064pt" xmlns="http://www.w3.org/2000/svg"><path d="m614.339844 341.613281c-23.074219 47.75-46.046875 86.839844-68.859375 118.441407v-124.46875c0-23.613282 12.863281-45.328126 33.574219-56.679688l86.773437-47.546875c41.996094-23.015625 57.457031-75.910156 34.441406-117.917969l-5.609375-10.238281c-3.875-7.082031-12.765625-9.675781-19.851562-5.800781-7.085938 3.882812-9.683594 12.769531-5.808594 19.855468l5.617188 10.238282c15.265624 27.859375 5.011718 62.953125-22.84375 78.214844l-86.769532 47.546874c-28.28125 15.5-45.875 44.4375-47.960937 76.328126-67.28125-16.964844-135.160157-16.964844-202.433594 0-2.078125-31.890626-19.671875-60.839844-47.953125-76.328126l-86.769531-47.546874c-27.925781-15.300782-38.144531-50.28125-22.847657-78.214844l38.484376-70.242188c16.082031-29.339844 53.644531-38.925781 81.832031-20.679687 9.359375 4.550781 57.195312 46.8125 138.472656 46.8125 81.027344-.003907 129.246094-42.328125 138.472656-46.8125 27.957031-18.101563 65.632813-8.875 81.824219 20.679687 3.886719 7.085938 12.773438 9.691406 19.855469 5.800782 7.082031-3.878907 9.675781-12.769532 5.800781-19.84375-11.558594-21.101563-31.566406-36.589844-54.886719-42.488282-46.964843-11.867187-76.8125 18.359375-85.5 22.304688-64.136719 41.496094-147.007812 41.492187-211.125 0l-17.019531-11.011719c-42.335938-27.394531-99.152344-13.039063-123.375 31.195313l-38.484375 70.230468c-23.074219 42.101563-7.667969 94.851563 34.441406 117.925782l86.765625 47.539062c20.714844 11.351562 33.578125 33.066406 33.578125 56.679688v124.46875c-22.800781-31.582032-45.753906-70.632813-68.808593-118.359376-55.578126-115.007812-230.417969-70.925781-223.578126 56.121094.183594 3.425782.484376 6.894532.882813 10.332032 6.441406 54.972656 14.675781 110.796874 23.8125 161.441406 1.4375 7.945312 9.046875 13.230468 16.992187 11.789062 7.941407-1.429687 13.21875-9.03125 11.789063-16.980468-9.027344-50.0625-17.167969-105.269532-23.542969-159.65625-.332031-2.828126-.574218-5.6875-.726562-8.496094-5.144532-95.394532 126.269531-128.242188 168.027344-41.828125 146.222656 302.605469 303.242187 302.949219 449.648437-.074219 42.089844-87.113281 179.578125-54.054688 167.265625 50.398438-12.589844 107.410156-46.882812 326.371093-97.839844 421.34375-30.210937 56.28125-105.605468 70.949218-155.371094 29.996093-4.769531-3.925781-34.84375-24.578125-39.648437-27.375-69.167969-40.441406-138.691406-39.921875-211.757813 8.457031-1.699218 1.125-23.886718 16.867188-25.386718 18.085938-26.46875 21.636719-57.546875 30.269531-87.53125 24.300781-28.957032-5.757812-53.390625-24.71875-68.796875-53.378906-1.25-2.316406-2.4375-4.691406-3.542969-7.070313-20.4375-43.96875-39.296875-104.804687-56.054688-180.800781-1.738281-7.894531-9.546874-12.882812-17.433593-11.136719-7.882813 1.738282-12.867188 9.546876-11.125 17.429688 17.207031 78.074219 36.75 140.933594 58.085937 186.839844 1.34375 2.878906 2.792969 5.765625 4.308594 8.578125 19.613281 36.5 51.171875 60.726562 88.863281 68.21875 7.878907 1.570312 15.871094 2.34375 23.882813 2.34375 26.878906 0 53.777344-9.160157 77.585937-25.59375v37.589843c0 40.71875 33.136719 73.84375 73.851563 73.84375h111.597656c40.722656 0 73.855469-33.125 73.855469-73.84375v-37.828124c67.484375 46.574218 159.234375 22.820312 194.628906-53.316407 58.660156-126.152343 94.859375-381.824219 97.730469-433.210937 7.15625-127.140625-167.917969-171.679688-223.5-56.601563zm-123.652344 179.410157c-25.347656 20.816406-50.421875 31.34375-74.859375 31.34375-24.445313 0-49.511719-10.527344-74.859375-31.34375-.375-.300782-.75-.734376-1.125-1.046876-6.292969-5.242187-12.609375-11.566406-18.933594-18.066406 63.082032-16.046875 126.753906-16.046875 189.832032 0-6.320313 6.5-12.648438 12.835938-18.933594 18.074219-.378906.308594-.75.738281-1.121094 1.039063zm-175.265625-86.480469c66.699219-17.953125 134.113281-17.953125 200.804687 0v38.691406c-66.738281-16.6875-134.070312-16.6875-200.804687 0zm200.804687-75.25v45.363281c-66.730468-16.691406-134.070312-16.691406-200.804687 0v-45.363281c66.699219-17.953125 134.113281-17.953125 200.804687 0zm0 524.414062c-66.730468-16.683593-134.058593-16.683593-200.804687 0v-19.421875c69.617187-48.070312 133.523437-46.5 200.804687-.023437zm-44.601562 83.457031h-111.597656c-24.589844 0-44.605469-19.996093-44.605469-44.59375v-8.972656c66.699219-17.953125 134.121094-17.953125 200.804687 0v8.972656c0 24.597657-20 44.59375-44.601562 44.59375zm0 0"/></svg>