<svg height="1064pt" viewBox="-99 -33 1064 1064.9994" width="1064pt" xmlns="http://www.w3.org/2000/svg"><path d="m459.933594 41.734375c-20.042969 13.492187-45.941406 13.492187-65.972656 0-43.753907-29.453125-94.875-44.492187-147.871094-43.539063-156.433594 2.84375-277.585938 147.710938-247.160156 305.390626 1.539062 7.929687 9.199218 13.117187 17.136718 11.585937 7.929688-1.527344 13.113282-9.203125 11.585938-17.125-26.878906-139.234375 79.890625-268.074219 218.96875-270.609375 46.925781-.90625 92.253906 12.476562 131.007812 38.558594 29.957032 20.167968 68.679688 20.167968 98.636719 0 150.617187-101.386719 354.03125 8.355468 354.109375 188.652344.015625 54.679687-19.652344 107.53125-55.40625 148.804687-58.5 67.574219-90.71875 152.457031-90.71875 239.027344v158.929687c0 86.476563-66.550781 157.695313-151.136719 165.121094v-200.734375c0-58.535156-47.625-106.164063-106.167969-106.164063-58.539062 0-106.164062 47.628907-106.164062 106.164063v200.734375c-84.578125-7.425781-151.136719-78.644531-151.136719-165.121094v-158.929687c0-86.566407-32.21875-171.453125-90.726562-239.027344-10.136719-11.707031-19.117188-24.515625-26.695313-38.085937-3.9375-7.042969-12.839844-9.566407-19.894531-5.636719-7.050781 3.941406-9.574219 12.847656-5.636719 19.894531 8.539063 15.308594 18.675782 29.761719 30.121094 42.976562 53.902344 62.253907 83.585938 140.34375 83.585938 219.878907v158.929687c0 107.527344 87.480468 195.007813 195.007812 195.007813 8.074219 0 14.625-6.542969 14.625-14.625v-215.996094c0-42.414063 34.496094-76.917969 76.914062-76.917969 42.410157 0 76.921876 34.503906 76.921876 76.917969v215.996094c0 8.082031 6.550781 14.625 14.625 14.625 107.519531 0 195.007812-87.480469 195.007812-195.007813v-158.929687c0-79.542969 29.6875-157.628907 83.585938-219.878907 40.347656-46.601562 62.554687-106.25 62.53125-167.960937-.074219-203.34375-229.519532-327.449219-399.683594-212.90625zm0 0"/></svg>