<svg height="1065pt" viewBox="-95 -33 1065 1065.0032" width="1065pt" xmlns="http://www.w3.org/2000/svg"><path d="m416.707031 414.152344v406.277344c0 8.082031 6.542969 14.625 14.625 14.625 8.074219 0 14.625-6.542969 14.625-14.625v-406.277344c0-8.074219-6.550781-14.625-14.625-14.625-8.082031 0-14.625 6.550781-14.625 14.625zm0 0"/><path d="m591.144531 246.617188h-56.460937c-8.082032 0-14.625 6.550781-14.625 14.625 0 8.074218 6.542968 14.625 14.625 14.625h56.460937c28 0 50.792969-22.78125 50.792969-50.785157v-77.027343c0-28.007813-22.792969-50.796876-50.792969-50.796876h-319.636719c-28 0-50.785156 22.789063-50.785156 50.796876v77.027343c0 28.003907 22.785156 50.785157 50.785156 50.785157h189.074219c8.074219 0 14.625-6.550782 14.625-14.625 0-8.074219-6.550781-14.625-14.625-14.625h-189.074219c-11.878906 0-21.535156-9.660157-21.535156-21.535157v-77.027343c0-11.878907 9.65625-21.546876 21.535156-21.546876h319.636719c11.878907 0 21.542969 9.667969 21.542969 21.546876v77.027343c0 11.875-9.664062 21.535157-21.542969 21.535157zm0 0"/><path d="m794.960938 77.757812h-76.148438c-12.476562-10.488281-50.484375-79.777343-139.484375-79.777343h-296.007813c-89.246093 0-126.96875 69.261719-139.472656 79.777343h-76.144531c-40.617187 0-73.664063 33.046876-73.664063 73.667969v230.722657c0 8.070312 6.550782 14.625 14.625 14.625 8.085938 0 14.625-6.554688 14.625-14.625v-230.722657c0-24.488281 19.921876-44.417969 44.414063-44.417969h82.816406c4.234375 0 8.261719-1.828124 11.042969-5.03125l27.578125-31.773437c23.695313-27.308594 58.019531-42.96875 94.179687-42.96875h296.007813c36.160156 0 70.496094 15.660156 94.1875 42.96875l27.578125 31.773437c2.773438 3.203126 6.8125 5.03125 11.046875 5.03125h82.820313c24.476562 0 44.394531 19.925782 44.394531 44.402344v771.351563c0 24.484375-19.917969 44.410156-44.394531 44.410156h-116.945313v-89.214844c0-8.078125-6.554687-14.632812-14.625-14.632812-8.082031 0-14.628906 6.554687-14.628906 14.632812v89.214844h-434.867188v-89.214844c0-8.078125-6.546875-14.632812-14.625-14.632812-8.082031 0-14.625 6.554687-14.625 14.632812v89.214844h-116.941406c-24.492187 0-44.414063-19.925781-44.414063-44.410156v-457.40625c0-8.089844-6.539062-14.628907-14.625-14.628907-8.074218 0-14.625 6.539063-14.625 14.628907v457.40625c0 40.617187 33.046876 73.660156 73.664063 73.660156h727.257813c40.597656 0 73.644531-33.042969 73.644531-73.660156v-771.335938c0-40.621093-33.046875-73.667969-73.644531-73.667969zm0 0"/></svg>