<svg height="1065pt" viewBox="-33 -42 1065.0001 1065" width="1065pt" xmlns="http://www.w3.org/2000/svg"><path d="m981.789062 841.101562h-68.589843c-6.679688-55.921874-51.140625-100.367187-107.054688-107.050781v-135.503906c0-8.082031-6.554687-14.628906-14.636719-14.628906-8.082031 0-14.628906 6.546875-14.628906 14.628906v47.160156h-247.246094c-36.878906-154.003906-203.132812-248.21875-358.203124-188.84375v-104.175781h413.828124c101.824219 0 185.863282 79.5625 191.339844 181.136719.433594 8.0625 7.269532 14.234375 15.394532 13.820312 8.074218-.433593 14.257812-7.324219 13.820312-15.402343-6.300781-117.085938-103.171875-208.8125-220.519531-208.824219v-69.988281h52.894531v24.101562c0 8.085938 6.546875 14.632812 14.628906 14.632812h136.292969c29.234375 0 53.003906-23.773437 53.003906-53v-.742187c0-29.226563-23.769531-53-53.003906-53h-136.292969c-8.082031 0-14.628906 6.546875-14.628906 14.632813v24.105468h-466.757812v-97.648437c0-4.886719-2.4375-9.449219-6.496094-12.160157l-42.183594-28.222656 13.039062-19.496094c4.421876-6.597656 2.769532-15.503906-3.710937-20.085937-77.617187-54.871094-53.007813-37.683594-58.019531-41.011719-22.359375-14.949218-52.703125-8.9375-67.664063 13.421875-14.929687 22.296875-8.964843 52.550781 13.246094 67.550781 57.320313 38.835938 58.085937 45.085938 68.675781 43.140626 9.304688-1.726563 10.953125-9.867188 18.164063-19.199219l35.6875 23.882812v335.902344c-85.65625 45.183594-144.1875 135.148437-144.1875 238.550781 0 148.628906 120.921875 269.542969 269.546875 269.542969 161.152344 0 287.761718-141.613281 267.441406-303.355469h241.910156v59.078125c-60.722656 7.261719-107.953125 59.046875-107.953125 121.691407 0 67.59375 54.984375 122.585937 122.582031 122.585937 62.648438 0 114.429688-47.230469 121.691407-107.953125h68.589843c8.078126 0 14.628907-6.558594 14.628907-14.632812 0-8.078126-6.550781-14.640626-14.628907-14.640626zm-314.332031-626.414062h121.644531c13.097657 0 23.742188 10.648438 23.742188 23.734375v.742187c0 13.089844-10.644531 23.734376-23.742188 23.734376h-121.644531zm-585.613281-120.054688c-61.097656-43.191406-41.886719-29.769531-45.761719-32.34375-8.964843-5.992187-11.359375-18.097656-5.367187-27.0625 5.976562-8.925781 18.035156-11.296874 26.933594-5.457031l45.890624 32.449219c-3.542968 5.285156-16.851562 25.179688-21.695312 32.414062zm474.167969 158.796876v69.988281h-384.582031v-69.988281zm-288.484375 695.640624c-132.484375 0-240.28125-107.792968-240.28125-240.285156 0-132.71875 108.027344-240.28125 240.28125-240.28125 133.621094 0 240.285156 108.648438 240.285156 240.28125 0 132.492188-107.796875 240.285156-240.285156 240.285156zm523.980468 0c-51.453124 0-93.324218-41.871093-93.324218-93.328124 0-51.460938 41.871094-93.324219 93.324218-93.324219 51.464844 0 93.328126 41.863281 93.328126 93.324219 0 51.457031-41.863282 93.328124-93.328126 93.328124zm0 0"/><path d="m304.722656 591.960938c-7.703125-2.460938-15.929687 1.804687-18.382812 9.503906-2.4375 7.695312 1.8125 15.925781 9.515625 18.382812 38.878906 12.371094 64.996093 48.113282 64.996093 88.9375 0 51.460938-41.863281 93.324219-93.324218 93.324219-51.453125 0-93.316406-41.863281-93.316406-93.324219 0-40.824218 26.117187-76.566406 65-88.9375 7.707031-2.457031 11.964843-10.6875 9.507812-18.382812-2.441406-7.699219-10.683594-11.960938-18.378906-9.503906-51.074219 16.246093-85.398438 63.195312-85.398438 116.824218 0 67.597656 54.996094 122.589844 122.585938 122.589844 67.605468 0 122.601562-54.996094 122.601562-122.589844-.003906-53.628906-34.320312-100.585937-85.40625-116.824218zm0 0"/></svg>