<svg height="1063pt" viewBox="-33 -33 1063 1063.7516" width="1063pt" xmlns="http://www.w3.org/2000/svg"><path d="m299.746094 355.195312c-23.527344 52.929688.402344 115.132813 53.335937 138.65625 54.582031 24.261719 142.46875 2.914063 139.902344-59.910156-1.789063-44.238281-19.871094-103.023437-50.960937-129.785156-45.738282-39.382812-118.027344-3.519531-142.277344 51.039062zm65.28125 111.761719c-38.101563-16.941406-55.324219-61.714843-38.382813-99.804687 16.234375-36.546875 66.542969-66.207032 96.1875-40.691406 23.570313 20.296874 39.226563 71.1875 40.757813 108.683593 1.503906 37.199219-63.28125 47.492188-98.5625 31.8125zm0 0"/><path d="m958.851562 651.609375-61.113281-27.164063c-6.144531-36.773437-7.34375-38.394531 13.222657-67.476562 27.941406-39.554688 30.058593-56.433594 2.265624-100.1875-18.445312-29.042969-17.746093-30.960938-9.726562-67.316406l62.652344-24.09375c23.640625-9.097656 35.476562-35.722656 26.378906-59.375-9.085938-23.640625-35.726562-35.476563-59.367188-26.382813l-62.839843 24.167969c-30.832031-21.953125-32.160157-23.984375-37.699219-56.550781-8.679688-51.015625-21.480469-62.183594-68.824219-72.839844-33.308593-7.484375-34.804687-9.160156-55.140625-40.996094l27.261719-61.351562c10.285156-23.144531-.175781-50.347657-23.320313-60.632813-23.199218-10.308594-50.332031.113282-60.636718 23.316406l-27.167969 61.125c-36.707031 6.128907-38.390625 7.339844-67.488281-13.21875-4.042969-2.863281-8.21875-5.816406-12.496094-8.558593-6.835938-4.390625-15.933594-2.410157-20.332031 4.421875-4.398438 6.835937-2.410157 15.945312 4.421875 20.339844 3.726562 2.398437 7.464844 5.027343 11.429687 7.835937 33.730469 23.835937 44.710938 25.910156 83.664063 19.117187 36.796875-6.414062 42.28125-5.011718 63.074218 28.03125 21.074219 33.457032 29.957032 40.21875 70.273438 49.28125 36.554688 8.226563 39.832031 11.214844 46.265625 49.070313 2.492187 14.640625 5.066406 29.785156 13.023437 42.40625 12.535157 19.859375 34.496094 29.03125 50.621094 44.28125 8.277344 7.765625 8.726563 11.105469 9.171875 11.796875.03125.394531 2.855469 5.453125.351563 21.414062-3.648438 22.566407-10.570313 40.523438-7.152344 60.28125 5.035156 29.011719 34.382812 54.441407 33.875 74.640626-.5 20.019531-30.882812 43.191406-37.59375 72.808593-6.054688 26.714844 10.117188 64.984375 2.585938 81.933594-7.507813 16.902344-47.4375 31.523437-62.550782 52.980469-17.34375 24.640625-14.449218 63.023437-28.839844 76.703125-14.722656 13.972656-53.011718 9.054687-78.097656 24.871093-23.804687 15.015626-38.800781 53.148438-56.082031 59.796876-8.976563 3.445312-27.710937-.527344-37.195313-2.671876-39.832031-8.996093-50.84375-6.890624-84.710937 14.625-32.261719 20.476563-36.640625 20.277344-67.417969-1.46875-33.734375-23.851562-44.710937-25.910156-83.671875-19.121093-32.441406 5.652343-36.667969.832031-38.082031.699219-17.351562-7.714844-30.339844-46.613282-52.976562-62.546876-24.644532-17.359374-63.03125-14.453124-76.699219-28.847656-13.984375-14.722656-9.058594-53.011718-24.871094-78.09375-10.714844-16.972656-27.988281-25.734375-45.703125-39.976562-12.4375-10.050782-14.351562-16.511719-14.097656-16.109375 0-.003907 0-.003907 0-.011719-6.621094-17.257812 11.605468-53.988281 6.792968-81.6875-5.023437-29.011719-34.367187-54.429688-33.871093-74.628906.511719-20.023438 30.890625-43.203125 37.605469-72.816406 6.347656-27.996094-10.640626-63.824219-2.589844-81.925782 7.492187-16.867187 46.785156-30.609375 62.539062-52.988281 17.359375-24.648437 14.464844-63.03125 28.855469-76.703125 14.722656-13.972656 53.011719-9.042969 78.097656-24.871094 19.859375-12.519531 29.007813-34.457031 44.277344-50.613281 10.304687-10.984375 15.863281-13.996094 49-6.503906 14.574219 3.296875 29.652344 6.703125 44.503906 4.125 19.851563-3.441407 36.683594-17.335938 52.871094-26.507813 7.066406-4.003906 9.554687-12.980468 5.554687-20.054687-4.003906-7.066407-12.980468-9.5625-20.058593-5.558594-42.917969 24.285156-34.253907 28.625-81.257813 18.253906l-24.09375-62.65625c-9.09375-23.640625-35.730468-35.472656-59.371094-26.378906-23.695312 9.117187-35.503906 35.660156-26.390624 59.371094l24.179687 62.847656c-21.972656 30.835937-23.996094 32.148437-56.554687 37.691406-17.394532 2.957031-37.113282 6.3125-51.015626 19.515625-23.421874 22.242188-19.378906 62.25-32.644531 81.097656-5.085937 7.210938-14.964843 13.445313-25.4375 20.023438-1.574219 1-3.140625 2.300781-4.738281 3.324219l-61.355469-27.265625c-11.207031-4.984375-23.691406-5.292969-35.144531-.890625-38.085938 14.652343-39.34375 68.335937-2.167969 84.859375l61.121094 27.15625c6.140625 36.761718 7.3125 38.429687-13.21875 67.488281-10.574219 14.953125-21.507813 30.425781-21.980469 49.234375-.8125 32.492188 30.484375 58.402344 34.300782 80.40625 1.804687 10.394531-2.035157 25.015625-4.867188 37.859375l-62.65625 24.101563c-23.640625 9.082031-35.480469 35.726562-26.378906 59.363281 9.101562 23.6875 35.761718 35.460937 59.367187 26.386719l62.847657-24.171876c30.824218 21.960938 32.148437 23.992188 37.691406 56.550782 8.679687 51.011718 21.476562 62.199218 68.824218 72.839844 33.34375 7.492187 34.796876 9.148437 55.140626 41l-27.261719 61.351562c-16.664063 37.503906 20.601562 76.09375 58.476562 61.53125 11.449219-4.40625 20.503907-13.003906 25.488281-24.214844l27.160157-61.121094c36.742187-6.140624 38.414062-7.328124 67.488281 13.214844 40.128906 28.367188 57.285156 29.515625 100.179688 2.273438 29.109374-18.492188 31.039062-17.730469 67.3125-9.71875l24.109374 62.652344c7.011719 18.242187 24.453126 29.445312 42.921876 29.445312 31.949218 0 54.460937-32.179688 42.824218-62.433594l-24.171875-62.847656c21.96875-30.835938 23.996094-32.152344 56.550781-37.691406 51.007813-8.675782 62.195313-21.476563 72.839844-68.832032 7.460938-33.15625 8.890625-34.628906 41.003906-55.140624 58.429688 24.800781 71.847657 37.652343 96.5 28.171874 38.101563-14.667968 39.304688-68.359374 2.15625-84.867187zm-279.992187-604.925781c3.695313-8.320313 13.46875-12.082032 21.789063-8.386719 8.320312 3.695313 12.082031 13.472656 8.382812 21.789063l-20.964844 47.191406c-8.140625-7.085938-17.480468-11.882813-30.175781-13.414063zm264.875 260.390625c8.496094-3.257813 18.070313.988281 21.332031 9.492187 3.273438 8.488282-.976562 18.066406-9.476562 21.332032l-48.222656 18.550781c-.828126-13.011719-5.371094-22.636719-11.855469-30.820313zm-620.910156-279.664063c6.636719 0 12.914062 4.03125 15.433593 10.582032l18.542969 48.226562c-12.222656.785156-21.992187 4.851562-30.816406 11.851562l-18.554687-48.21875c-4.160157-10.84375 3.867187-22.441406 15.394531-22.441406zm-275.011719 256.820313c9.167969-3.523438 11.613281.367187 59.816406 21.289062-3.5625 4.078125-6.730468 8.738281-9.089844 14.027344-.058593.195313-3.199218 6.824219-4.316406 16.144531l-47.191406-20.964844c-13.347656-5.9375-12.910156-25.234374.78125-30.496093zm2.382812 401.917969c-8.492187 3.265624-18.0625-.984376-21.332031-9.472657-3.269531-8.503906.980469-18.070312 9.484375-21.347656l48.222656-18.546875c.773438 12.175781 4.828126 21.972656 11.859376 30.824219zm264.882813 260.398437c-3.699219 8.3125-13.476563 12.082031-21.789063 8.382813-8.316406-3.695313-12.082031-13.472657-8.386718-21.792969l20.964844-47.1875c8.191406 7.132812 17.503906 11.882812 30.175781 13.417969zm371.097656 9.464844c-5.914062 13.320312-25.203125 12.996093-30.492187-.78125l-18.554688-48.21875c12.207032-.78125 21.984375-4.835938 30.824219-11.851563 16.035156 45.535156 22.945313 50.234375 18.222656 60.851563zm259.949219-247.007813c-10.855469 4.164063-15.394531-3.054687-59.820312-21.292968 7.105468-8.164063 11.875-17.453126 13.414062-30.175782l47.179688 20.964844c13.347656 5.9375 12.910156 25.234375-.773438 30.503906zm0 0"/><path d="m584.113281 558.023438c4.660157-6.652344 3.042969-15.824219-3.609375-20.488282-6.667968-4.660156-15.835937-3.039062-20.5 3.613282-24.363281 34.808593-54.003906 67.566406-91.023437 106.023437-36.269531 37.703125-36.726563 65.519531-30.71875 82.21875 25.554687 71.078125 207.566406 56.828125 293.878906-76.703125 58.238281-90.105469 23.488281-193 4.8125-248.285156-17.929687-53.109375-102.226563-60.996094-114.230469-5.824219-6.796875 31.191406-16.457031 59.488281-29.535156 86.507813-3.550781 7.320312-.488281 16.117187 6.832031 19.660156 7.3125 3.546875 16.113281.480468 19.648438-6.828125 14.105469-29.132813 24.507812-59.578125 31.808593-93.074219 5.40625-24.84375 49.128907-16.09375 57.59375 8.972656 18.285157 54.125 48.878907 144.722656-1.65625 222.898438-77.023437 119.175781-227.355468 121.941406-241.457031 82.714844-4.4375-12.328126 4.394531-31.230469 24.242188-51.847657 37.960937-39.460937 68.457031-73.199219 93.914062-109.558593zm0 0"/></svg>